STARTFONT 2.1
COMMENT
COMMENT Converted from OpenType font "RuthlessSketch_Regular.ttf" by "otf2bdf 3.0".
COMMENT
FONT -FreeType-Ruthless Sketch-Medium-R-Normal--44-320-100-100-P-217-ISO10646-1
SIZE 32 100 100
FONTBOUNDINGBOX 52 50 -20 -9
STARTPROPERTIES 19
FOUNDRY "FreeType"
FAMILY_NAME "Ruthless Sketch"
WEIGHT_NAME "Medium"
SLANT "R"
SETWIDTH_NAME "Normal"
ADD_STYLE_NAME ""
PIXEL_SIZE 44
POINT_SIZE 320
RESOLUTION_X 100
RESOLUTION_Y 100
SPACING "P"
AVERAGE_WIDTH 217
CHARSET_REGISTRY "ISO10646"
CHARSET_ENCODING "1"
FONT_ASCENT 41
FONT_DESCENT 9
COPYRIGHT "© 2024 GGBotNet. All Rights Reserved."
_OTF_FONTFILE "RuthlessSketch_Regular.ttf"
_OTF_PSNAME "RuthlessSketch-Regular"
ENDPROPERTIES
CHARS 1105
STARTCHAR 0020
ENCODING 32
SWIDTH 292 0
DWIDTH 13 0
BBX 0 0 0 0
BITMAP
ENDCHAR
STARTCHAR 0021
ENCODING 33
SWIDTH 292 0
DWIDTH 13 0
BBX 11 34 1 -1
BITMAP
3FE0
FFE0
FFE0
FFE0
FFE0
FFC0
FFC0
FFC0
FFC0
FFC0
7FC0
7F80
7F80
7F80
7F80
7F80
7F80
3F80
3F80
3F80
3F80
3F00
0800
0000
0000
0600
1F80
3F80
3FC0
3FC0
3FC0
3FC0
1F80
0400
ENDCHAR
STARTCHAR 0022
ENCODING 34
SWIDTH 382 0
DWIDTH 17 0
BBX 16 16 1 16
BITMAP
FC3E
FC7F
FC7F
FC7F
FC7F
FC3F
FC3F
FC3E
FC3E
FC3E
783E
781E
781C
381C
381C
300C
ENDCHAR
STARTCHAR 0023
ENCODING 35
SWIDTH 517 0
DWIDTH 23 0
BBX 21 31 1 0
BITMAP
01F048
01F078
01F0F0
01F0F0
03F0F0
03E1F0
03E1E0
03E1E0
FFFFF8
FFFFF8
FFFFF8
FFFFF8
FFFFF8
7FC7C0
0F8780
0F8F80
0F0FA0
FFFFF8
FFFFF8
FFFFF8
FFFFF8
FFFFF8
FFFF00
3C3E00
3C3E00
7C3E00
787E00
787C00
787C00
F07C00
104400
ENDCHAR
STARTCHAR 0024
ENCODING 36
SWIDTH 495 0
DWIDTH 22 0
BBX 21 41 1 -5
BITMAP
01F800
01F800
01F800
01F800
01F800
01FC00
03FF80
0FFFE0
1FFFF0
3FFFF8
7FFFF8
7FFFF8
7FFFF8
7FFCF0
7FF820
7FF800
7FF800
3FF800
3FFE00
1FFF80
07FFC0
01FFC0
01FFE0
01FFE0
01FFE0
7FFFE0
7FFFE0
7FFFE0
7FFFE0
FFFFC0
FFFFC0
FFFF80
FFFF80
FFFF00
FFFE00
07F800
01F800
01F800
01F800
01F800
007800
ENDCHAR
STARTCHAR 0025
ENCODING 37
SWIDTH 562 0
DWIDTH 25 0
BBX 24 31 1 0
BITMAP
000060
0E0078
3F00F8
7F80F8
7FC1F0
F3C1F0
E1C3E0
E1C3E0
E1C7C0
F1CFC0
F3CF80
FFDF80
7F9F00
3F3E00
003E00
007C40
00FDF8
00FBFC
01F3FC
01F79E
03E78E
07E70F
07C70E
0F878E
0F879E
1F03FE
3E03FC
3E01F8
7C0020
380000
180000
ENDCHAR
STARTCHAR 0026
ENCODING 38
SWIDTH 495 0
DWIDTH 22 0
BBX 21 30 1 1
BITMAP
038000
0FF000
3FF800
7FF800
7FFC00
7EFC00
7C7C00
7C7800
3EF800
3FF800
1FF000
1FF0E0
3FF1F0
3FF9F0
7FFDF0
7FFFE0
FEFFE0
FC7FE0
FC3FE0
FC1FE0
FC0FC0
FC07E0
FE0FF0
FFFFF8
FFFFF8
7FFFF8
7FFF78
3FFF38
0FFE18
03F808
ENDCHAR
STARTCHAR 0027
ENCODING 39
SWIDTH 202 0
DWIDTH 9 0
BBX 8 16 1 16
BITMAP
FE
FE
FF
FF
FF
FF
FF
FE
FE
FE
7E
7C
7C
3C
38
38
ENDCHAR
STARTCHAR 0028
ENCODING 40
SWIDTH 337 0
DWIDTH 15 0
BBX 14 42 1 -7
BITMAP
0040
00F0
01FC
03FC
07F0
07F0
0FE0
1F80
1F80
3F00
7F00
7E00
7C00
FC00
FC00
F800
F800
F800
F800
FC00
FC00
FC00
FC00
FC00
FC00
FC00
FC00
FC00
FC00
7C00
7E00
3E00
3F00
1F00
1F80
0F80
0FE0
07F0
03F8
01FC
00F8
00E0
ENDCHAR
STARTCHAR 0029
ENCODING 41
SWIDTH 337 0
DWIDTH 15 0
BBX 14 42 1 -6
BITMAP
1800
3C00
FE00
FE00
7F00
3F80
0FC0
07C0
07E0
07E0
03F0
01F0
01F8
00F8
00F8
00FC
00FC
00FC
00F8
00F8
00FC
00FC
00FC
00FC
00FC
00FC
00FC
00F8
00F8
01F8
01F0
03F0
03F0
07E0
07E0
0FC0
3F80
7F00
7F00
FE00
7C00
1800
ENDCHAR
STARTCHAR 002A
ENCODING 42
SWIDTH 315 0
DWIDTH 14 0
BBX 13 14 1 19
BITMAP
0600
0600
4620
F678
7FF0
3FC0
1F80
1F80
3FC0
7EF0
F678
4620
0600
0600
ENDCHAR
STARTCHAR 002B
ENCODING 43
SWIDTH 472 0
DWIDTH 21 0
BBX 20 20 1 6
BITMAP
01D000
01F800
01F800
01F800
01F800
01F800
01F800
FFFFE0
FFFFE0
FFFFF0
FFFFF0
FFFFF0
FFFFF0
7FF800
01F800
01F800
01F800
03F800
01F800
01F800
ENDCHAR
STARTCHAR 002C
ENCODING 44
SWIDTH 202 0
DWIDTH 9 0
BBX 11 15 -2 -7
BITMAP
0380
0FC0
1FC0
1FE0
1FE0
1FE0
0FC0
0FC0
0780
1F00
7F00
FF00
3E00
1C00
0C00
ENDCHAR
STARTCHAR 002D
ENCODING 45
SWIDTH 382 0
DWIDTH 17 0
BBX 16 7 1 12
BITMAP
FFFE
FFFE
FFFE
FFFE
FFFF
FFFF
03FE
ENDCHAR
STARTCHAR 002E
ENCODING 46
SWIDTH 202 0
DWIDTH 9 0
BBX 8 8 1 0
BITMAP
38
7E
FF
FF
FF
FF
FE
3C
ENDCHAR
STARTCHAR 002F
ENCODING 47
SWIDTH 450 0
DWIDTH 20 0
BBX 18 35 1 -3
BITMAP
000600
000FC0
000FC0
001FC0
001F80
003F80
003F80
007F00
007F00
007F00
00FE00
00FE00
01FC00
01FC00
01FC00
03F800
03F800
07F800
07F800
0FF000
0FF000
0FF000
1FE000
1FE000
3FE000
3FC000
3FC000
7FC000
7FC000
7F8000
FF8000
FF8000
FF0000
FF0000
FF0000
ENDCHAR
STARTCHAR 0030
ENCODING 48
SWIDTH 382 0
DWIDTH 17 0
BBX 16 31 1 0
BITMAP
0700
1FC0
3FE0
3FE0
7FF0
7FF8
7FFC
7FFC
7FFE
FFFE
FE7E
FE3F
FC3F
FC3F
FC3F
FC1F
FC3F
FE3F
FE3F
FFFF
FFFF
7FFF
7FFE
3FFE
3FFE
3FFE
1FFE
1FFC
0FFC
03F8
01F0
ENDCHAR
STARTCHAR 0031
ENCODING 49
SWIDTH 427 0
DWIDTH 19 0
BBX 17 29 1 1
BITMAP
00F800
01FC00
07FE00
1FFE00
3FFE00
FFFE00
FFFE00
7FFE00
3DFE00
1DFE00
09FE00
01FE00
01FE00
01FE00
03FE00
03FE00
03FE00
03FF00
03FF00
03FF00
03FF00
07FF00
07FF00
07FF00
07FF00
07FF00
07FF80
03FF80
001F80
ENDCHAR
STARTCHAR 0032
ENCODING 50
SWIDTH 495 0
DWIDTH 22 0
BBX 21 31 1 0
BITMAP
038000
0FF000
1FFC00
3FFF00
7FFF00
FFFF00
FFFF00
FFFF00
7C3F00
383F00
103F00
003F00
003F00
007E00
007E00
007C00
00FC00
00FC00
01FCB8
01FFF8
03FFF8
07FFF8
07FFF0
0FFFF0
0FFFF0
1FFFF0
7FFFE0
7FFFE0
7FFF80
0FFC00
004000
ENDCHAR
STARTCHAR 0033
ENCODING 51
SWIDTH 472 0
DWIDTH 21 0
BBX 19 30 1 0
BITMAP
1FF000
7FF800
7FF800
7FF800
3FF000
01F000
03F000
03E000
07E000
0FE000
0FFC00
1FFF00
3FFF80
3FFFC0
3FFFC0
073FC0
000FC0
0007E0
0003E0
0003E0
0003E0
0007E0
000FE0
E01FE0
FFFFC0
FFFFC0
7FFF80
3FFF00
0FFE00
01F800
ENDCHAR
STARTCHAR 0034
ENCODING 52
SWIDTH 427 0
DWIDTH 19 0
BBX 18 31 1 -1
BITMAP
07E000
0FC000
0FC000
0FC000
1F8000
1F8000
1F8000
1F8000
3F0000
3F0000
3F0000
7FFF80
7FFFC0
7FFFC0
7FFFC0
FFFFC0
FFFF80
FFFE00
E0F800
00F800
00F800
01FC00
01FC00
01FC00
03FC00
03FC00
03FC00
07FC00
07FE00
07FC00
040000
ENDCHAR
STARTCHAR 0035
ENCODING 53
SWIDTH 472 0
DWIDTH 21 0
BBX 20 31 1 0
BITMAP
000080
0FFFC0
0FFFC0
0FFFC0
0FFF80
0FE800
0FC000
1FC000
1FC000
1FF800
1FFC00
1FFE00
3FFF00
3FFF80
30FFC0
003FC0
003FE0
001FE0
000FF0
000FF0
000FF0
000FF0
800FF0
C01FF0
E01FE0
FF7FE0
FFFFC0
7FFFC0
7FFF80
0FFF00
03FC00
ENDCHAR
STARTCHAR 0036
ENCODING 54
SWIDTH 495 0
DWIDTH 22 0
BBX 20 32 1 -1
BITMAP
000600
007F00
00FFC0
01FFC0
03FFE0
0FFFC0
0FE000
1F8000
3F8000
7F0000
7F0000
7F0000
FFFC00
FFFE00
FFFF80
FFFFC0
FFFFC0
FFFFE0
FF0FF0
FE07F0
FE07F0
FE03F0
FE03F0
7E07F0
7E07F0
7F0FF0
7F8FE0
3FFFE0
3FFFC0
0FFF80
07FF00
01FC00
ENDCHAR
STARTCHAR 0037
ENCODING 55
SWIDTH 405 0
DWIDTH 18 0
BBX 17 29 1 1
BITMAP
3FFF80
FFFF80
FFFF80
FFFF80
FFFF80
FFFF80
FFFF00
FEFF00
C03F80
007F00
00FF00
00FF00
01FF00
01FE00
03FE00
03FE00
07FE00
07FC00
0FFC00
1FFC00
1FF800
3FF800
3FF800
7FF800
7FF000
7FF000
FFF000
FFC000
F00000
ENDCHAR
STARTCHAR 0038
ENCODING 56
SWIDTH 495 0
DWIDTH 22 0
BBX 21 31 1 0
BITMAP
01FC00
07FE00
0FFF00
1FFF00
1FFF00
1F9F00
1F9F00
1F9F00
1FFE00
0FFE00
0FFE00
1FFE00
3FFF00
3FFF80
3FFFC0
7FFFC0
7F1FE0
FE0FF0
FE07F0
FE07F0
FE03F0
FF03F0
FF07F8
FFCFF8
7FFFF0
7FFFF0
3FFFE0
3FFFE0
0FFFC0
03FF80
00FC00
ENDCHAR
STARTCHAR 0039
ENCODING 57
SWIDTH 450 0
DWIDTH 20 0
BBX 19 30 1 0
BITMAP
0FF800
3FFE00
7FFF80
7FFFC0
7FFFC0
FE3FC0
FC0FE0
FC0FE0
FC0FE0
FC0FE0
FE0FE0
FE1FE0
FFFFE0
7FFFE0
7FFFE0
3FFFE0
0FFFE0
000FE0
0007E0
0007E0
000FE0
600FE0
781FE0
7FFFC0
7FFFC0
7FFFC0
3FFF80
3FFF00
0FFF00
01C000
ENDCHAR
STARTCHAR 003A
ENCODING 58
SWIDTH 202 0
DWIDTH 9 0
BBX 8 22 1 0
BITMAP
38
FE
FE
FF
FF
FF
FE
7C
00
00
00
00
00
00
1C
7E
FE
FF
FF
FF
7E
7C
ENDCHAR
STARTCHAR 003B
ENCODING 59
SWIDTH 202 0
DWIDTH 9 0
BBX 11 29 -2 -7
BITMAP
0700
0FC0
1FE0
1FE0
1FE0
1FE0
1FC0
0780
0000
0000
0000
0000
0000
0000
0380
0FC0
1FC0
1FE0
1FE0
1FE0
0FC0
0FC0
0780
1F00
7F00
FF00
3E00
1C00
0C00
ENDCHAR
STARTCHAR 003C
ENCODING 60
SWIDTH 472 0
DWIDTH 21 0
BBX 20 25 1 3
BITMAP
000060
0001E0
0003E0
000FE0
003FF0
00FFF0
03FFE0
0FFFE0
7FFFE0
FFFFE0
FFF800
FFC000
FF0000
FFF000
7FFE00
3FFFC0
1FFFE0
07FFE0
03FFE0
00FFE0
007FE0
001FE0
000FE0
0003F0
000060
ENDCHAR
STARTCHAR 003D
ENCODING 61
SWIDTH 472 0
DWIDTH 21 0
BBX 20 17 1 7
BITMAP
000F80
FFFFF0
FFFFF0
FFFFF0
FFFFF0
FFFFF0
FFE000
000000
000000
000000
07FFF0
FFFFF0
FFFFF0
FFFFF0
FFFFF0
FFFFE0
020000
ENDCHAR
STARTCHAR 003E
ENCODING 62
SWIDTH 472 0
DWIDTH 21 0
BBX 20 25 1 3
BITMAP
C00000
F80000
FE0000
FF8000
FFC000
FFF000
FFF800
FFFC00
FFFF00
7FFF80
0FFFE0
00FFE0
001FF0
003FF0
03FFF0
FFFFE0
FFFFC0
FFFE00
FFF800
FFE000
FF8000
FE0000
FC0000
F00000
C00000
ENDCHAR
STARTCHAR 003F
ENCODING 63
SWIDTH 450 0
DWIDTH 20 0
BBX 19 32 1 0
BITMAP
0FE000
3FFF00
7FFFC0
7FFFC0
FFFFE0
FFFFE0
FFFFE0
FC1FE0
780FE0
000FE0
000FE0
000FE0
001FC0
007FC0
03FFC0
07FF80
07FE00
0FFC00
0FF000
07E000
07E000
07E000
000000
000000
000000
03C000
07E000
0FF000
0FF000
0FF000
07F000
03C000
ENDCHAR
STARTCHAR 0040
ENCODING 64
SWIDTH 652 0
DWIDTH 29 0
BBX 28 38 1 -6
BITMAP
001FE000
01FFF800
07FFFE00
0FFFFF00
1FFFFF80
1FFFFF80
3FFFFFC0
7FFFFFC0
7FFFFFC0
7FC01FE0
FF801FE0
FF00FFE0
FF03FFE0
FE0FFFF0
FE1FFFF0
FE1F8FF0
FE3F07F0
FE3F07F0
FE3E07F0
FE3E07F0
FE3E07F0
FE3F0FE0
FE3FFFE0
FE1FFFE0
FE1FFFC0
FF0FFF00
FF07FC00
FF006000
7F800000
7FC00600
7FE07F00
7FFFFF80
3FFFFFC0
3FFFFF80
1FFFFF80
0FFFFE00
07FFFC00
01FFF000
ENDCHAR
STARTCHAR 0041
ENCODING 65
SWIDTH 630 0
DWIDTH 28 0
BBX 26 31 1 -1
BITMAP
000F0000
000F8000
001F8000
001F8000
003FC000
003FC000
003FC000
007FC000
007FC000
007FE000
00FFE000
00FFE000
01FFF000
01FFF000
01FFF000
03FFF800
03EFF800
07C7F800
0787FC00
0F83FC00
0FBFFC00
1FFFFE00
1FFFFE00
1FFFFE00
3FC3FF00
3F83FF00
7F83FF80
7F01FF80
FF01FFC0
FF01FFC0
FC008000
ENDCHAR
STARTCHAR 0042
ENCODING 66
SWIDTH 517 0
DWIDTH 23 0
BBX 21 31 1 0
BITMAP
0C0000
7FF800
FFFE00
FFFF00
FFFF00
FFFF80
FFFF80
FF3FC0
FF0FC0
7F0FC0
7F0F80
7F0F80
7F9F80
7FFF00
7FFE00
7FFF80
3FFFE0
3FFFE0
3FFFF0
3FC3F8
3FC3F8
3FC3F8
3FC7F8
3FEFF8
3FFFF8
1FFFF8
1FFFF0
1FFFE0
1FFFC0
1FFE00
030000
ENDCHAR
STARTCHAR 0043
ENCODING 67
SWIDTH 472 0
DWIDTH 21 0
BBX 20 30 1 0
BITMAP
007F00
03FFC0
0FFFE0
1FFFF0
3FFFF0
7FFFF0
7FFFF0
7FFFF0
FFF800
FFE000
FFC000
FF8000
FF8000
FF8000
FF8000
FF8000
FFC060
FFFFF0
FFFFF0
FFFFF0
FFFFF0
7FFFF0
7FFFF0
3FFFF0
3FFFF0
1FFFE0
1FFFC0
0FFF80
03FE00
000800
ENDCHAR
STARTCHAR 0044
ENCODING 68
SWIDTH 450 0
DWIDTH 20 0
BBX 19 30 1 0
BITMAP
7F8000
FFF000
FFFC00
FFFE00
FFFE00
FFFF00
FFFF80
FFFF80
FF1FC0
FF07C0
FF07E0
FF07E0
FF07E0
FF07E0
7F0FE0
7F0FC0
7F1FC0
7FBF80
7FFF80
7FFF00
3FFF00
3FFE00
3FFE00
3FFC00
3FF800
1FF000
1FE000
1F8000
0E0000
080000
ENDCHAR
STARTCHAR 0045
ENCODING 69
SWIDTH 495 0
DWIDTH 22 0
BBX 20 31 1 0
BITMAP
0FF800
7FFF00
FFFF00
FFFE00
FFFE00
7FFE00
7FFE00
7FFE00
7FFE00
7FE400
3F8000
3F8000
3F8400
3FFE00
3FFC00
3FFE00
1FFE00
1FF000
1FC000
1FE0C0
1FFFE0
0FFFE0
0FFFE0
0FFFF0
0FFFF0
0FFFF0
0FFFF0
0FFFF0
0FFF80
0FF800
078000
ENDCHAR
STARTCHAR 0046
ENCODING 70
SWIDTH 495 0
DWIDTH 22 0
BBX 21 31 1 0
BITMAP
01FFE0
7FFFF0
FFFFF0
FFFFF0
FFFFF0
FFFFF8
FFFF78
FF8000
FF0000
FF0000
FF0000
FF3000
FFF800
FFF800
FFF800
FFF800
FFF800
FFD800
FF0000
FF0000
FF0000
FF0000
FF0000
FF0000
FF0000
FF0000
FF0000
FF0000
FF8000
7F8000
7C0000
ENDCHAR
STARTCHAR 0047
ENCODING 71
SWIDTH 495 0
DWIDTH 22 0
BBX 21 31 1 0
BITMAP
004000
01FF00
03FFC0
03FFE0
07FFF0
0FFFF0
1FFFF0
1FF3E0
1F8000
3F0000
3F0000
3E0000
7E0000
7E00F8
7E1FF0
7E1FF0
FE1FF0
FE1FF0
FE1FF0
FE1FF0
FE1FF0
FFBFF0
FFFFF0
FFFFF0
FFFFF0
FFFFE0
7FFFC0
3FFF00
1FFC00
0FF000
040000
ENDCHAR
STARTCHAR 0048
ENCODING 72
SWIDTH 562 0
DWIDTH 25 0
BBX 23 29 1 1
BITMAP
07F000
1FF0FE
3FE0FE
3FE1FE
1FF1FE
1FF1FE
1FE1FE
3FE1FE
3FE1FE
3FE1FE
3FE1FE
3FFFFE
3FFFFE
3FFFFC
3FFFFC
3FFFFC
3FFFFE
7FFFFE
7FFFFE
7FFFFE
7FE3FE
7FE3FE
7FE3FE
7FC3FC
7FC3FC
7FE3FC
7FE3FC
FFE3FC
FFC7C0
ENDCHAR
STARTCHAR 0049
ENCODING 73
SWIDTH 315 0
DWIDTH 14 0
BBX 13 30 1 0
BITMAP
0FF0
1FF8
1FF8
1FF0
1FF0
1FF0
1FF0
1FF0
3FF0
3FF0
3FF0
3FF0
3FF0
3FF0
3FE0
3FE0
3FE0
3FE0
3FE0
3FE0
3FE0
3FF0
3FF0
7FF0
7FE0
7FE0
7FE0
7FE0
FFC0
F800
ENDCHAR
STARTCHAR 004A
ENCODING 74
SWIDTH 450 0
DWIDTH 20 0
BBX 19 30 1 0
BITMAP
007FC0
00FFC0
00FFC0
00FFC0
00FFC0
00FFC0
01FFC0
01FFC0
01FFC0
01FFC0
01FFE0
01FFE0
01FFE0
01FFE0
01FFE0
00FFE0
00FFE0
00FFE0
007FE0
007FC0
7C7FC0
FE7FC0
FF7FC0
FF7F80
FFFF80
FFFF00
7FFF00
3FFE00
1FF800
03F000
ENDCHAR
STARTCHAR 004B
ENCODING 75
SWIDTH 540 0
DWIDTH 24 0
BBX 23 31 1 0
BITMAP
000060
FFF0E0
7FF1F0
7FF1FE
FFF3FC
FFF7FC
FFF7F8
FFF7F0
FFFFF0
FFFFE0
FFFFC0
FFFF80
FFFF80
FFFF00
FFFF00
FFFE00
FFFC00
FFFE00
FFFF00
FFFF80
FFFFC0
FFFFE0
FFFFF0
FFE7F0
FFE7F8
FFE3FC
FFE3FC
FFE1FE
FFF0FE
FFE0E0
03C0C0
ENDCHAR
STARTCHAR 004C
ENCODING 76
SWIDTH 495 0
DWIDTH 22 0
BBX 21 31 1 -1
BITMAP
03FE00
0FFE00
0FFE00
1FFE00
1FFE00
1FFC00
1FFC00
1FFC00
1FFC00
1FFC00
1FFC00
1FF800
1FF800
3FF800
3FF800
3FF800
3FF800
3FF000
7FF000
7FF000
7FF000
7FFFF0
7FFFF0
7FFFF0
7FFFF0
7FFFF0
7FFFF8
7FFFF8
7FFFD0
FFC000
C00000
ENDCHAR
STARTCHAR 004D
ENCODING 77
SWIDTH 652 0
DWIDTH 29 0
BBX 27 30 1 0
BITMAP
0C000600
0E000F00
0F001F00
0F001F00
1F803F00
1FC03F00
1FC07F00
1FE07F00
1FE0FF80
1FF0FF80
3FF9FF80
3FFBFF80
3FFFFF80
3FFFFF80
3FFFFF80
3FFFFF80
3FFFFFC0
7FEF7FC0
7FE77FC0
7FC27FC0
7FC0FFC0
7FC0FFC0
7F80FFC0
7F80FFC0
FF80FFE0
FF00FFE0
FF00FFE0
FF00FFE0
FE00FFE0
FE000000
ENDCHAR
STARTCHAR 004E
ENCODING 78
SWIDTH 562 0
DWIDTH 25 0
BBX 24 30 1 0
BITMAP
060038
1FE0FE
3FF1FF
3FE1FE
3FE1FE
3FF1FE
3FF1FE
3FF1FE
3FF3FE
7FF1FE
7FF9FE
7FF9FC
7FF9FC
7FF9FC
7FFFFC
7FFFFC
7FFFFC
7FBFFC
7FBFFC
7FBFFC
FF9FFC
FF9FFC
FF9FFC
FF8FFC
FF8FFC
FF8FF8
FF87F8
FF87FC
FF87F8
F00000
ENDCHAR
STARTCHAR 004F
ENCODING 79
SWIDTH 517 0
DWIDTH 23 0
BBX 22 31 1 0
BITMAP
03C000
07F000
07FC00
0FFE00
0FFF80
1FFF80
1FFFC0
3FFFE0
3FFFE0
7FFFF0
7FFFF8
7FFFF8
FF87F8
FF07FC
FF03FC
FF03FC
FF03FC
FF07FC
FF87FC
FFEFFC
FFFFFC
7FFFFC
7FFFF8
7FFFF8
3FFFF8
3FFFF8
1FFFF0
1FFFF0
0FFFE0
03FFC0
00FF00
ENDCHAR
STARTCHAR 0050
ENCODING 80
SWIDTH 495 0
DWIDTH 22 0
BBX 20 30 1 1
BITMAP
1FF800
7FFF00
7FFF80
7FFFC0
7FFFC0
7FFFE0
7F9FE0
7F83F0
7F83F0
7F83F0
7F83F0
7FC7F0
7FC7F0
7FFFF0
7FFFF0
FFFFE0
FFFFC0
FFFF80
FFE000
FFE000
FFE000
FFE000
FFE000
FFE000
FFE000
FFE000
FFE000
FFE000
FFE000
FFE000
ENDCHAR
STARTCHAR 0051
ENCODING 81
SWIDTH 607 0
DWIDTH 27 0
BBX 26 33 1 -2
BITMAP
00F00000
07FC0000
0FFE0000
1FFF8000
1FFF8000
3FFFC000
3FFFE000
7FFFF000
7F9FF000
7F8FF800
7F07F800
FF03F800
FF03FC00
FF01FC00
FF01FC00
FF01FC00
FF01FC00
FF83FC00
FFEFF800
FFFFF800
FFFFF800
FFFFF800
FFFFF000
7FFFF000
7FFFF800
3FFFFC00
1FFFFE00
0FFFFE00
07FFFF00
01FFFF80
0001FFC0
0001FF80
0000C000
ENDCHAR
STARTCHAR 0052
ENCODING 82
SWIDTH 585 0
DWIDTH 26 0
BBX 24 32 1 -1
BITMAP
006000
07FC00
7FFF00
FFFFC0
FFFFE0
FFEFF0
FFC1F0
FFC1F0
FFC0F8
FFC0F8
FFC1F8
FFE1F8
FFF3F0
FFFFF0
7FFFF0
7FFFE0
7FFF80
7FFF80
7FFFC0
7FFFC0
7FFFE0
7FF7F0
7FF7F0
7FF3F8
7FF3F8
7FF1FC
7FF1FE
7FF0FE
3FF0FF
3FF07F
3FF07C
1F8000
ENDCHAR
STARTCHAR 0053
ENCODING 83
SWIDTH 495 0
DWIDTH 22 0
BBX 21 31 1 0
BITMAP
003E00
03FFF8
0FFFF0
1FFFF0
1FFFE0
1FFFE0
3FFFE0
3FFFC0
3FFFC0
7FFF80
7FFF80
7FFF00
7F8180
3FC000
3FF000
1FFE00
1FFF80
0FFFC0
00FFE0
003FE0
000FE0
000FF0
701FF0
FFFFF0
FFFFF0
FFFFE0
FFFFE0
FFFFE0
7FFF80
1FFE00
0FFC00
ENDCHAR
STARTCHAR 0054
ENCODING 84
SWIDTH 562 0
DWIDTH 25 0
BBX 24 30 1 0
BITMAP
1FFFF8
FFFFFE
FFFFFE
FFFFFE
FFFFFF
FFFFFF
FFFFFF
FFFFFF
FFFFE0
FC7F80
C07F00
007F00
007F00
007F00
007E00
007E00
007E00
007F00
007E00
007E00
007E00
007E00
007E00
007E00
007F00
007E00
007E00
00FE00
007E00
007E00
ENDCHAR
STARTCHAR 0055
ENCODING 85
SWIDTH 540 0
DWIDTH 24 0
BBX 23 29 1 2
BITMAP
1F80FC
3F81FE
3F81FE
3F00FC
7F00FC
7F00FC
7F00FC
7F01FC
7F01FC
FF01FC
FF01FC
FF01FC
FF01FE
FF01FE
FF83FE
FF83FE
FFC3FC
FFFFFC
FFFFFC
FFFFF8
FFFFF8
7FFFF8
7FFFF0
3FFFF0
3FFFE0
1FFFC0
1FFF80
07FF00
01FE00
ENDCHAR
STARTCHAR 0056
ENCODING 86
SWIDTH 585 0
DWIDTH 26 0
BBX 25 28 1 1
BITMAP
E000FF80
FF01FF80
7FE0FF00
7FF1FF80
3FF1FF00
3FF1FF00
3FF1FF00
1FF1FF00
1FF9FE00
1FF9FE00
0FF9FE00
0FF9FE00
07F9FC00
07FFFC00
03FFFC00
03FFFC00
01FFF800
00FFF800
00FFF800
007FF800
003FF800
003FF000
001FF000
000FF000
000FF000
0007F000
0003F000
0003C000
ENDCHAR
STARTCHAR 0057
ENCODING 87
SWIDTH 720 0
DWIDTH 32 0
BBX 31 31 1 0
BITMAP
00000080
7C0001F4
FF0381FE
FF0383FC
FF83C3FC
FF83C3F8
FF83C7F8
FFC3C7F8
7FC3E7F8
7FE3EFF0
7FE7EFF0
3FF7FFF0
3FF7FFF0
3FFFFFF0
1FFFFFF0
1FFFFFF0
0FFFFFE0
0FFFFFE0
07FFFFE0
07FF7FE0
03FF7FE0
03FF3FC0
01FE3FC0
01FE3FC0
00FC1FC0
00FC1FC0
007C1FC0
007C0FC0
00380F80
00180000
00180000
ENDCHAR
STARTCHAR 0058
ENCODING 88
SWIDTH 562 0
DWIDTH 25 0
BBX 24 29 1 1
BITMAP
00007F
7F00FF
FF00FF
FF81FE
FF81FE
FFC3FC
FFC3FC
7FE7FC
7FE7F8
3FF7F8
1FFFF0
0FFFF0
07FFF0
07FFE0
03FFC0
03FFC0
01FFC0
03FFC0
03FFC0
07FFE0
07FFE0
0FFFE0
0FE7F0
1FE7F0
1FE3F8
3FE1F8
3FE1F8
3FC0E0
7FC000
ENDCHAR
STARTCHAR 0059
ENCODING 89
SWIDTH 607 0
DWIDTH 27 0
BBX 26 30 1 1
BITMAP
00003FC0
0E003F80
FF007F00
FF007F00
FF80FF00
7F80FE00
7FC1FE00
3FC1FC00
3FE3FC00
1FE3F800
1FF7F800
0FF7F000
0FFFF000
07FFE000
07FFE000
03FFC000
03FFC000
01FF8000
01FF8000
00FF0000
00FF0000
007F0000
007F0000
007F0000
007F0000
007F0000
007F8000
007F8000
007F8000
003F0000
ENDCHAR
STARTCHAR 005A
ENCODING 90
SWIDTH 585 0
DWIDTH 26 0
BBX 25 31 1 0
BITMAP
001E0000
03FFF800
3FFFF800
7FFFF000
7FFFE000
FFFFE000
FFFFC000
FFFFC000
FE3F8000
003F8000
003F0000
007F0000
007E0000
00FE0000
00FE0000
00FE0000
01FC0000
01FC0000
01FC0000
03FC0000
03FC0000
03F80000
07F00000
07FFFF80
07FFFF80
0FFFFF80
0FFFFF00
0FFFFF00
09FFFE00
003FF800
0003C000
ENDCHAR
STARTCHAR 005B
ENCODING 91
SWIDTH 337 0
DWIDTH 15 0
BBX 14 43 1 -7
BITMAP
07FC
FFFC
FFFC
FFFC
FFFC
FFFC
FC00
FC00
FC00
FC00
FC00
FC00
FC00
FC00
FE00
FC00
FC00
FC00
FE00
FE00
FE00
FE00
FE00
FC00
FC00
FC00
FC00
FE00
FE00
FE00
FE00
FE00
FC00
FC00
FC00
FC00
FFFC
FFFC
FFFC
FFFC
FFFC
FFFC
1000
ENDCHAR
STARTCHAR 005C
ENCODING 92
SWIDTH 450 0
DWIDTH 20 0
BBX 18 35 1 -3
BITMAP
FE0000
FF0000
FF0000
FF8000
FF8000
7F8000
7F8000
7FC000
3FC000
3FC000
3FE000
1FE000
1FE000
1FF000
0FF000
0FF000
07F000
07F800
03F800
03F800
03FC00
01FC00
01FC00
00FE00
00FE00
007E00
007F00
007F00
003F80
003F80
001F80
001FC0
000FC0
000FC0
000640
ENDCHAR
STARTCHAR 005D
ENCODING 93
SWIDTH 337 0
DWIDTH 15 0
BBX 14 42 1 -7
BITMAP
7FFC
FFFC
FFFC
FFFC
FFFC
FFFC
41FC
01FC
01FC
01FC
01FC
01FC
01FC
01FC
01FC
01FC
01FC
01FC
01FC
01FC
01FC
01FC
01FC
01FC
01FC
01FC
01FC
01FC
01FC
01FC
01FC
01FC
01FC
01FC
01FC
01FC
5FFC
FFFC
FFFC
FFFC
FFFC
FFFC
ENDCHAR
STARTCHAR 005E
ENCODING 94
SWIDTH 495 0
DWIDTH 22 0
BBX 20 18 1 14
BITMAP
00F800
00F800
01FC00
03FC00
03FE00
07FE00
0FFE00
0FFF00
1FDF00
1F9F80
3F9F80
7F9FC0
7F8FC0
7F0FE0
FF0FE0
FF0FF0
FE0FF0
E003E0
ENDCHAR
STARTCHAR 005F
ENCODING 95
SWIDTH 382 0
DWIDTH 17 0
BBX 16 6 1 -6
BITMAP
FFFF
FFFF
FFFF
FFFE
FFFE
0600
ENDCHAR
STARTCHAR 0060
ENCODING 96
SWIDTH 225 0
DWIDTH 10 0
BBX 9 6 1 31
BITMAP
FC00
FE00
7E00
3F00
1F00
0F80
ENDCHAR
STARTCHAR 0061
ENCODING 97
SWIDTH 630 0
DWIDTH 28 0
BBX 26 31 1 -1
BITMAP
000F0000
000F8000
001F8000
001F8000
003FC000
003FC000
003FC000
007FC000
007FC000
007FE000
00FFE000
00FFE000
01FFF000
01FFF000
01FFF000
03FFF800
03EFF800
07C7F800
0787FC00
0F83FC00
0FBFFC00
1FFFFE00
1FFFFE00
1FFFFE00
3FC3FF00
3F83FF00
7F83FF80
7F01FF80
FF01FFC0
FF01FFC0
FC008000
ENDCHAR
STARTCHAR 0062
ENCODING 98
SWIDTH 517 0
DWIDTH 23 0
BBX 21 31 1 0
BITMAP
0C0000
7FF800
FFFE00
FFFF00
FFFF00
FFFF80
FFFF80
FF3FC0
FF0FC0
7F0FC0
7F0F80
7F0F80
7F9F80
7FFF00
7FFE00
7FFF80
3FFFE0
3FFFE0
3FFFF0
3FC3F8
3FC3F8
3FC3F8
3FC7F8
3FEFF8
3FFFF8
1FFFF8
1FFFF0
1FFFE0
1FFFC0
1FFE00
030000
ENDCHAR
STARTCHAR 0063
ENCODING 99
SWIDTH 472 0
DWIDTH 21 0
BBX 20 30 1 0
BITMAP
007F00
03FFC0
0FFFE0
1FFFF0
3FFFF0
7FFFF0
7FFFF0
7FFFF0
FFF800
FFE000
FFC000
FF8000
FF8000
FF8000
FF8000
FF8000
FFC060
FFFFF0
FFFFF0
FFFFF0
FFFFF0
7FFFF0
7FFFF0
3FFFF0
3FFFF0
1FFFE0
1FFFC0
0FFF80
03FE00
000800
ENDCHAR
STARTCHAR 0064
ENCODING 100
SWIDTH 450 0
DWIDTH 20 0
BBX 19 30 1 0
BITMAP
7F8000
FFF000
FFFC00
FFFE00
FFFE00
FFFF00
FFFF80
FFFF80
FF1FC0
FF07C0
FF07E0
FF07E0
FF07E0
FF07E0
7F0FE0
7F0FC0
7F1FC0
7FBF80
7FFF80
7FFF00
3FFF00
3FFE00
3FFE00
3FFC00
3FF800
1FF000
1FE000
1F8000
0E0000
080000
ENDCHAR
STARTCHAR 0065
ENCODING 101
SWIDTH 495 0
DWIDTH 22 0
BBX 20 31 1 0
BITMAP
0FF800
7FFF00
FFFF00
FFFE00
FFFE00
7FFE00
7FFE00
7FFE00
7FFE00
7FE400
3F8000
3F8000
3F8400
3FFE00
3FFC00
3FFE00
1FFE00
1FF000
1FC000
1FE0C0
1FFFE0
0FFFE0
0FFFE0
0FFFF0
0FFFF0
0FFFF0
0FFFF0
0FFFF0
0FFF80
0FF800
078000
ENDCHAR
STARTCHAR 0066
ENCODING 102
SWIDTH 495 0
DWIDTH 22 0
BBX 21 31 1 0
BITMAP
01FFE0
7FFFF0
FFFFF0
FFFFF0
FFFFF0
FFFFF8
FFFF78
FF8000
FF0000
FF0000
FF0000
FF3000
FFF800
FFF800
FFF800
FFF800
FFF800
FFD800
FF0000
FF0000
FF0000
FF0000
FF0000
FF0000
FF0000
FF0000
FF0000
FF0000
FF8000
7F8000
7C0000
ENDCHAR
STARTCHAR 0067
ENCODING 103
SWIDTH 495 0
DWIDTH 22 0
BBX 21 31 1 0
BITMAP
004000
01FF00
03FFC0
03FFE0
07FFF0
0FFFF0
1FFFF0
1FF3E0
1F8000
3F0000
3F0000
3E0000
7E0000
7E00F8
7E1FF0
7E1FF0
FE1FF0
FE1FF0
FE1FF0
FE1FF0
FE1FF0
FFBFF0
FFFFF0
FFFFF0
FFFFF0
FFFFE0
7FFFC0
3FFF00
1FFC00
0FF000
040000
ENDCHAR
STARTCHAR 0068
ENCODING 104
SWIDTH 562 0
DWIDTH 25 0
BBX 23 29 1 1
BITMAP
07F000
1FF0FE
3FE0FE
3FE1FE
1FF1FE
1FF1FE
1FE1FE
3FE1FE
3FE1FE
3FE1FE
3FE1FE
3FFFFE
3FFFFE
3FFFFC
3FFFFC
3FFFFC
3FFFFE
7FFFFE
7FFFFE
7FFFFE
7FE3FE
7FE3FE
7FE3FE
7FC3FC
7FC3FC
7FE3FC
7FE3FC
FFE3FC
FFC7C0
ENDCHAR
STARTCHAR 0069
ENCODING 105
SWIDTH 315 0
DWIDTH 14 0
BBX 13 30 1 0
BITMAP
0FF0
1FF8
1FF8
1FF0
1FF0
1FF0
1FF0
1FF0
3FF0
3FF0
3FF0
3FF0
3FF0
3FF0
3FE0
3FE0
3FE0
3FE0
3FE0
3FE0
3FE0
3FF0
3FF0
7FF0
7FE0
7FE0
7FE0
7FE0
FFC0
F800
ENDCHAR
STARTCHAR 006A
ENCODING 106
SWIDTH 450 0
DWIDTH 20 0
BBX 19 30 1 0
BITMAP
007FC0
00FFC0
00FFC0
00FFC0
00FFC0
00FFC0
01FFC0
01FFC0
01FFC0
01FFC0
01FFE0
01FFE0
01FFE0
01FFE0
01FFE0
00FFE0
00FFE0
00FFE0
007FE0
007FC0
7C7FC0
FE7FC0
FF7FC0
FF7F80
FFFF80
FFFF00
7FFF00
3FFE00
1FF800
03F000
ENDCHAR
STARTCHAR 006B
ENCODING 107
SWIDTH 540 0
DWIDTH 24 0
BBX 23 31 1 0
BITMAP
000060
FFF0E0
7FF1F0
7FF1FE
FFF3FC
FFF7FC
FFF7F8
FFF7F0
FFFFF0
FFFFE0
FFFFC0
FFFF80
FFFF80
FFFF00
FFFF00
FFFE00
FFFC00
FFFE00
FFFF00
FFFF80
FFFFC0
FFFFE0
FFFFF0
FFE7F0
FFE7F8
FFE3FC
FFE3FC
FFE1FE
FFF0FE
FFE0E0
03C0C0
ENDCHAR
STARTCHAR 006C
ENCODING 108
SWIDTH 495 0
DWIDTH 22 0
BBX 21 31 1 -1
BITMAP
03FE00
0FFE00
0FFE00
1FFE00
1FFE00
1FFC00
1FFC00
1FFC00
1FFC00
1FFC00
1FFC00
1FF800
1FF800
3FF800
3FF800
3FF800
3FF800
3FF000
7FF000
7FF000
7FF000
7FFFF0
7FFFF0
7FFFF0
7FFFF0
7FFFF0
7FFFF8
7FFFF8
7FFFD0
FFC000
C00000
ENDCHAR
STARTCHAR 006D
ENCODING 109
SWIDTH 652 0
DWIDTH 29 0
BBX 27 30 1 0
BITMAP
0C000600
0E000F00
0F001F00
0F001F00
1F803F00
1FC03F00
1FC07F00
1FE07F00
1FE0FF80
1FF0FF80
3FF9FF80
3FFBFF80
3FFFFF80
3FFFFF80
3FFFFF80
3FFFFF80
3FFFFFC0
7FEF7FC0
7FE77FC0
7FC27FC0
7FC0FFC0
7FC0FFC0
7F80FFC0
7F80FFC0
FF80FFE0
FF00FFE0
FF00FFE0
FF00FFE0
FE00FFE0
FE000000
ENDCHAR
STARTCHAR 006E
ENCODING 110
SWIDTH 562 0
DWIDTH 25 0
BBX 24 30 1 0
BITMAP
060038
1FE0FE
3FF1FF
3FE1FE
3FE1FE
3FF1FE
3FF1FE
3FF1FE
3FF3FE
7FF1FE
7FF9FE
7FF9FC
7FF9FC
7FF9FC
7FFFFC
7FFFFC
7FFFFC
7FBFFC
7FBFFC
7FBFFC
FF9FFC
FF9FFC
FF9FFC
FF8FFC
FF8FFC
FF8FF8
FF87F8
FF87FC
FF87F8
F00000
ENDCHAR
STARTCHAR 006F
ENCODING 111
SWIDTH 517 0
DWIDTH 23 0
BBX 22 31 1 0
BITMAP
03C000
07F000
07FC00
0FFE00
0FFF80
1FFF80
1FFFC0
3FFFE0
3FFFE0
7FFFF0
7FFFF8
7FFFF8
FF87F8
FF07FC
FF03FC
FF03FC
FF03FC
FF07FC
FF87FC
FFEFFC
FFFFFC
7FFFFC
7FFFF8
7FFFF8
3FFFF8
3FFFF8
1FFFF0
1FFFF0
0FFFE0
03FFC0
00FF00
ENDCHAR
STARTCHAR 0070
ENCODING 112
SWIDTH 495 0
DWIDTH 22 0
BBX 20 30 1 1
BITMAP
1FF800
7FFF00
7FFF80
7FFFC0
7FFFC0
7FFFE0
7F9FE0
7F83F0
7F83F0
7F83F0
7F83F0
7FC7F0
7FC7F0
7FFFF0
7FFFF0
FFFFE0
FFFFC0
FFFF80
FFE000
FFE000
FFE000
FFE000
FFE000
FFE000
FFE000
FFE000
FFE000
FFE000
FFE000
FFE000
ENDCHAR
STARTCHAR 0071
ENCODING 113
SWIDTH 607 0
DWIDTH 27 0
BBX 26 33 1 -2
BITMAP
00F00000
07FC0000
0FFE0000
1FFF8000
1FFF8000
3FFFC000
3FFFE000
7FFFF000
7F9FF000
7F8FF800
7F07F800
FF03F800
FF03FC00
FF01FC00
FF01FC00
FF01FC00
FF01FC00
FF83FC00
FFEFF800
FFFFF800
FFFFF800
FFFFF800
FFFFF000
7FFFF000
7FFFF800
3FFFFC00
1FFFFE00
0FFFFE00
07FFFF00
01FFFF80
0001FFC0
0001FF80
0000C000
ENDCHAR
STARTCHAR 0072
ENCODING 114
SWIDTH 585 0
DWIDTH 26 0
BBX 24 32 1 -1
BITMAP
006000
07FC00
7FFF00
FFFFC0
FFFFE0
FFEFF0
FFC1F0
FFC1F0
FFC0F8
FFC0F8
FFC1F8
FFE1F8
FFF3F0
FFFFF0
7FFFF0
7FFFE0
7FFF80
7FFF80
7FFFC0
7FFFC0
7FFFE0
7FF7F0
7FF7F0
7FF3F8
7FF3F8
7FF1FC
7FF1FE
7FF0FE
3FF0FF
3FF07F
3FF07C
1F8000
ENDCHAR
STARTCHAR 0073
ENCODING 115
SWIDTH 495 0
DWIDTH 22 0
BBX 21 31 1 0
BITMAP
003E00
03FFF8
0FFFF0
1FFFF0
1FFFE0
1FFFE0
3FFFE0
3FFFC0
3FFFC0
7FFF80
7FFF80
7FFF00
7F8180
3FC000
3FF000
1FFE00
1FFF80
0FFFC0
00FFE0
003FE0
000FE0
000FF0
701FF0
FFFFF0
FFFFF0
FFFFE0
FFFFE0
FFFFE0
7FFF80
1FFE00
0FFC00
ENDCHAR
STARTCHAR 0074
ENCODING 116
SWIDTH 562 0
DWIDTH 25 0
BBX 24 30 1 0
BITMAP
1FFFF8
FFFFFE
FFFFFE
FFFFFE
FFFFFF
FFFFFF
FFFFFF
FFFFFF
FFFFE0
FC7F80
C07F00
007F00
007F00
007F00
007E00
007E00
007E00
007F00
007E00
007E00
007E00
007E00
007E00
007E00
007F00
007E00
007E00
00FE00
007E00
007E00
ENDCHAR
STARTCHAR 0075
ENCODING 117
SWIDTH 540 0
DWIDTH 24 0
BBX 23 29 1 2
BITMAP
1F80FC
3F81FE
3F81FE
3F00FC
7F00FC
7F00FC
7F00FC
7F01FC
7F01FC
FF01FC
FF01FC
FF01FC
FF01FE
FF01FE
FF83FE
FF83FE
FFC3FC
FFFFFC
FFFFFC
FFFFF8
FFFFF8
7FFFF8
7FFFF0
3FFFF0
3FFFE0
1FFFC0
1FFF80
07FF00
01FE00
ENDCHAR
STARTCHAR 0076
ENCODING 118
SWIDTH 585 0
DWIDTH 26 0
BBX 25 28 1 1
BITMAP
E000FF80
FF01FF80
7FE0FF00
7FF1FF80
3FF1FF00
3FF1FF00
3FF1FF00
1FF1FF00
1FF9FE00
1FF9FE00
0FF9FE00
0FF9FE00
07F9FC00
07FFFC00
03FFFC00
03FFFC00
01FFF800
00FFF800
00FFF800
007FF800
003FF800
003FF000
001FF000
000FF000
000FF000
0007F000
0003F000
0003C000
ENDCHAR
STARTCHAR 0077
ENCODING 119
SWIDTH 720 0
DWIDTH 32 0
BBX 31 31 1 0
BITMAP
00000080
7C0001F4
FF0381FE
FF0383FC
FF83C3FC
FF83C3F8
FF83C7F8
FFC3C7F8
7FC3E7F8
7FE3EFF0
7FE7EFF0
3FF7FFF0
3FF7FFF0
3FFFFFF0
1FFFFFF0
1FFFFFF0
0FFFFFE0
0FFFFFE0
07FFFFE0
07FF7FE0
03FF7FE0
03FF3FC0
01FE3FC0
01FE3FC0
00FC1FC0
00FC1FC0
007C1FC0
007C0FC0
00380F80
00180000
00180000
ENDCHAR
STARTCHAR 0078
ENCODING 120
SWIDTH 562 0
DWIDTH 25 0
BBX 24 29 1 1
BITMAP
00007F
7F00FF
FF00FF
FF81FE
FF81FE
FFC3FC
FFC3FC
7FE7FC
7FE7F8
3FF7F8
1FFFF0
0FFFF0
07FFF0
07FFE0
03FFC0
03FFC0
01FFC0
03FFC0
03FFC0
07FFE0
07FFE0
0FFFE0
0FE7F0
1FE7F0
1FE3F8
3FE1F8
3FE1F8
3FC0E0
7FC000
ENDCHAR
STARTCHAR 0079
ENCODING 121
SWIDTH 607 0
DWIDTH 27 0
BBX 26 30 1 1
BITMAP
00003FC0
0E003F80
FF007F00
FF007F00
FF80FF00
7F80FE00
7FC1FE00
3FC1FC00
3FE3FC00
1FE3F800
1FF7F800
0FF7F000
0FFFF000
07FFE000
07FFE000
03FFC000
03FFC000
01FF8000
01FF8000
00FF0000
00FF0000
007F0000
007F0000
007F0000
007F0000
007F0000
007F8000
007F8000
007F8000
003F0000
ENDCHAR
STARTCHAR 007A
ENCODING 122
SWIDTH 585 0
DWIDTH 26 0
BBX 25 31 1 0
BITMAP
001E0000
03FFF800
3FFFF800
7FFFF000
7FFFE000
FFFFE000
FFFFC000
FFFFC000
FE3F8000
003F8000
003F0000
007F0000
007E0000
00FE0000
00FE0000
00FE0000
01FC0000
01FC0000
01FC0000
03FC0000
03FC0000
03F80000
07F00000
07FFFF80
07FFFF80
0FFFFF80
0FFFFF00
0FFFFF00
09FFFE00
003FF800
0003C000
ENDCHAR
STARTCHAR 007B
ENCODING 123
SWIDTH 337 0
DWIDTH 15 0
BBX 14 42 1 -5
BITMAP
0070
00F8
00F8
01FC
03FC
03FC
07F0
07E0
07E0
07C0
07C0
0FC0
0F80
0F80
0F80
1F80
1F80
1F00
FF00
FF00
FF00
FF80
FF80
1F80
0F80
0FC0
0FC0
0FC0
0FC0
0FC0
0FC0
0FC0
0FC0
07E0
07E0
07E0
07F8
07F8
03F8
01F8
00F8
0070
ENDCHAR
STARTCHAR 007C
ENCODING 124
SWIDTH 180 0
DWIDTH 8 0
BBX 7 45 1 -7
BITMAP
E0
FE
FE
FE
FE
FE
FE
FE
FE
FE
FE
FE
FE
FE
FE
FE
FE
FE
FC
FC
FC
FC
FE
FE
FE
FE
FE
FC
FC
FE
FE
FE
FE
FE
FE
FE
FC
FC
FC
FC
FC
FC
FC
FC
FC
ENDCHAR
STARTCHAR 007D
ENCODING 125
SWIDTH 337 0
DWIDTH 15 0
BBX 14 42 1 -5
BITMAP
7800
7C00
7E00
FF00
FF80
7F80
1F80
1F80
1F80
1F80
0F80
0F80
0F80
0FC0
0FC0
0FC0
0FC0
0FC0
07F8
07FC
07FC
03FC
03FC
03F8
07E0
07E0
07C0
07C0
0FC0
0FC0
0F80
0F80
1F80
1F80
3F80
7F00
FF00
FE00
FE00
7C00
7800
3000
ENDCHAR
STARTCHAR 007E
ENCODING 126
SWIDTH 472 0
DWIDTH 21 0
BBX 20 10 1 11
BITMAP
0C07E0
3F07F0
7FC7F0
FFFFF0
FFFFE0
FFFFE0
FFFFE0
FFFFC0
F8FF80
F87F00
ENDCHAR
STARTCHAR 00A0
ENCODING 160
SWIDTH 292 0
DWIDTH 13 0
BBX 0 0 0 0
BITMAP
ENDCHAR
STARTCHAR 00A1
ENCODING 161
SWIDTH 292 0
DWIDTH 13 0
BBX 12 34 1 -9
BITMAP
0E00
1F80
3FC0
3FC0
3FC0
3FC0
3F80
1F80
0000
0000
0000
1E00
3F00
3F80
3F80
3F80
3F80
7F80
7F80
7F80
7F80
7F80
7F80
FFC0
FFC0
FFC0
FFC0
FFC0
FFE0
FFE0
FFE0
FFE0
FFF0
01E0
ENDCHAR
STARTCHAR 00A2
ENCODING 162
SWIDTH 495 0
DWIDTH 22 0
BBX 21 38 1 -4
BITMAP
0007E0
000FE0
000FC0
000FC0
003FC0
03FFC0
07FFE0
0FFFF0
1FFFF0
3FFFF0
3FFFF0
7FFFF0
7FFFF0
FFFFF0
FFBFF0
FF7F70
FE7E00
FE7E00
FE7E00
FC7E00
FCFC00
FEFC00
FEFC00
FFFC00
FFFC00
FFFFF0
7FFFF0
7FFFF0
3FFFF8
3FFFF8
1FFFF0
07FFE0
03FFC0
03FE00
03E000
07E000
07E000
01E000
ENDCHAR
STARTCHAR 00A3
ENCODING 163
SWIDTH 540 0
DWIDTH 24 0
BBX 23 30 1 0
BITMAP
003F80
007FE0
00FFF0
01FFF8
03FFFC
03FFFC
03FBFC
07F9FC
07F8FC
07F8F8
0FF800
0FF000
FFFFE0
FFFFE0
FFFFE0
FFFFE0
FFFFE0
7FFFC0
0FF800
0FF800
0FF800
0FF800
0FF800
FFFFFE
FFFFFE
FFFFFC
FFFFFC
FFFFFC
7FFFFC
07FFE0
ENDCHAR
STARTCHAR 00A4
ENCODING 164
SWIDTH 427 0
DWIDTH 19 0
BBX 18 18 1 6
BITMAP
100400
3C0E00
7FDF00
FFFF80
FFFFC0
7FFF80
7F3F00
3E1E00
3C1E00
3C1E00
3C1E00
3E3E00
3F3F00
FFFF80
FFFFC0
FFFF80
3CCF00
180600
ENDCHAR
STARTCHAR 00A5
ENCODING 165
SWIDTH 607 0
DWIDTH 27 0
BBX 26 30 1 1
BITMAP
00003FC0
0E003F80
FF007F00
FF007F00
FF80FF00
7F80FE00
7FC1FE00
3FC1FC00
3FE3FC00
1FE3F800
1FF7F800
0FF7F000
0FFFF000
3FFFFC00
3FFFFC00
3FFFFC00
3FFFFC00
3FFFFC00
3FFF8000
00FF0000
1FFFFC00
1FFFFC00
3FFFFC00
3FFFFC00
3FFFFC00
3FFFEC00
007F8000
007F8000
007F8000
003F0000
ENDCHAR
STARTCHAR 00A6
ENCODING 166
SWIDTH 180 0
DWIDTH 8 0
BBX 7 45 1 -7
BITMAP
FC
FC
FC
FE
FE
FE
FC
FC
FE
FE
FE
FE
FE
FE
FE
FE
FE
FC
FC
FC
00
00
00
00
00
0C
FC
FC
FC
FC
FC
FC
FC
FC
FC
FC
FC
FC
FC
FC
FC
FE
FE
FC
FC
ENDCHAR
STARTCHAR 00A7
ENCODING 167
SWIDTH 495 0
DWIDTH 22 0
BBX 21 38 1 -3
BITMAP
002000
03FE00
07FF00
1FFF80
1FFFC0
3FFFC0
3FFFC0
3FFFC0
3FE180
3FC000
1FC000
1FE000
3FF800
7FFF00
7FFFC0
7FFFE0
FFFFF0
FFDFF0
FE07F8
FE07F8
FF0FF0
FFFFF0
7FFFF0
3FFFF0
1FFFE0
07FFE0
00FFC0
003F80
003FC0
003FC0
1C7FC0
1FFFC0
1FFFC0
1FFFC0
1FFF80
0FFF00
07FE00
03F800
ENDCHAR
STARTCHAR 00A8
ENCODING 168
SWIDTH 292 0
DWIDTH 13 0
BBX 12 5 1 31
BITMAP
60E0
F1F0
F1F0
F1E0
7040
ENDCHAR
STARTCHAR 00A9
ENCODING 169
SWIDTH 652 0
DWIDTH 29 0
BBX 28 29 1 1
BITMAP
000FC000
00FFF800
07FFFE00
0FFFFF00
1FFFFF80
3FC03FC0
3F000FC0
7E0707E0
7C1FC3E0
F83FC3E0
F87FC1F0
F07FC1F0
F07CC1F0
F0F801F0
F0F801F0
F0F801F0
F0F801F0
F87C01F0
F87FC1E0
FC7FE1E0
7C3FC3E0
7E0F83C0
7F000F80
3F803F80
1FFFFF00
0FFFFC00
07FFF800
01FFE000
000F0000
ENDCHAR
STARTCHAR 00AA
ENCODING 170
SWIDTH 315 0
DWIDTH 14 0
BBX 13 15 1 15
BITMAP
0300
0700
0780
0780
0F80
0FC0
1FC0
1FC0
1BC0
31E0
3FE0
7FF0
71F0
F1F0
F1F8
ENDCHAR
STARTCHAR 00AB
ENCODING 171
SWIDTH 472 0
DWIDTH 21 0
BBX 20 19 1 1
BITMAP
01C020
038060
0781F0
0F83F0
1F87F0
3F8FE0
7FBFE0
FF3FC0
FC3E00
F03C00
F83F00
FF3FC0
FF9FE0
3FCFE0
1FC7E0
0FC3E0
03C1E0
01C0E0
008070
ENDCHAR
STARTCHAR 00AC
ENCODING 172
SWIDTH 472 0
DWIDTH 21 0
BBX 20 11 1 8
BITMAP
FFFFE0
FFFFF0
FFFFF0
FFFFF0
FFFFF0
FFFFF0
7FFFF0
0007F0
0007E0
0007E0
0007E0
ENDCHAR
STARTCHAR 00AD
ENCODING 173
SWIDTH 382 0
DWIDTH 17 0
BBX 16 7 1 12
BITMAP
FFFF
FFFF
FFFF
FFFF
FFFF
FFFF
7F80
ENDCHAR
STARTCHAR 00AE
ENCODING 174
SWIDTH 450 0
DWIDTH 20 0
BBX 18 19 1 13
BITMAP
00E000
0FF800
3FFE00
7E1F00
780780
F7E180
F7B1C0
E791C0
E3B1C0
E3E1C0
E3E1C0
E3B1C0
E3B9C0
F39BC0
790780
7C0F80
3FFF00
1FFF00
07FC00
ENDCHAR
STARTCHAR 00AF
ENCODING 175
SWIDTH 315 0
DWIDTH 14 0
BBX 13 4 1 32
BITMAP
FFF8
FFF8
FFF8
FFF8
ENDCHAR
STARTCHAR 00B0
ENCODING 176
SWIDTH 315 0
DWIDTH 14 0
BBX 13 15 1 17
BITMAP
0700
3FC0
7FE0
7FF0
F8F0
F0F8
F0F8
F0F8
F078
F8F8
F9F0
7FE0
3FE0
1FC0
0F00
ENDCHAR
STARTCHAR 00B1
ENCODING 177
SWIDTH 472 0
DWIDTH 21 0
BBX 19 26 1 0
BITMAP
007000
03F800
03F800
03F000
03F000
03F800
03F800
FFFFE0
FFFFE0
FFFFE0
FFFFE0
FFFFE0
FFFFE0
03FFC0
03F800
03F800
03F800
03F800
01F800
000800
000000
FFFFE0
FFFFE0
FFFFE0
FFFFE0
FFFFE0
ENDCHAR
STARTCHAR 00B2
ENCODING 178
SWIDTH 270 0
DWIDTH 12 0
BBX 10 15 1 16
BITMAP
1800
7E00
FF00
FF00
6700
4700
0700
0E00
0E00
1FC0
1FC0
3FC0
3FC0
FFC0
7F00
ENDCHAR
STARTCHAR 00B3
ENCODING 179
SWIDTH 247 0
DWIDTH 11 0
BBX 9 15 1 15
BITMAP
7C00
FC00
5C00
1C00
3800
7E00
7F00
3F80
0380
0180
0180
0380
FF80
7F00
3E00
ENDCHAR
STARTCHAR 00B4
ENCODING 180
SWIDTH 225 0
DWIDTH 10 0
BBX 9 7 1 31
BITMAP
1F80
3F00
7E00
7C00
F800
F000
1000
ENDCHAR
STARTCHAR 00B5
ENCODING 181
SWIDTH 540 0
DWIDTH 24 0
BBX 23 31 1 -7
BITMAP
0200F0
FE07F0
FE03F8
FE03F8
FE03FC
FE03FC
FE03FE
FE03FE
FE03FE
FF03FE
FF07FC
FF07FC
FF0FFC
FFFFFC
FFFFFC
FFFFFC
FFFFF8
FFFFF8
FFFFF0
FFFFF0
FFFFE0
FFFFC0
FDFF00
FC0000
FC0000
FC0000
FE0000
FE0000
FE0000
FC0000
FC0000
ENDCHAR
STARTCHAR 00B6
ENCODING 182
SWIDTH 382 0
DWIDTH 17 0
BBX 16 35 1 -4
BITMAP
00E0
0FFF
3FFF
7FFF
FFFF
FFFF
FFFF
FF8F
FF9F
FF9F
FF9F
FF9F
FF9F
FF9F
FF9F
FF9F
7F9F
7F9F
1F9F
079F
079F
079F
079F
079F
079F
079F
079F
079F
079F
079F
079F
079F
079F
078F
078F
ENDCHAR
STARTCHAR 00B7
ENCODING 183
SWIDTH 202 0
DWIDTH 9 0
BBX 8 9 1 11
BITMAP
1C
7E
FE
FF
FF
FF
7E
7C
10
ENDCHAR
STARTCHAR 00B8
ENCODING 184
SWIDTH 292 0
DWIDTH 13 0
BBX 12 9 1 -7
BITMAP
1F00
1F00
1F00
0FC0
07E0
03F0
FFF0
FFF0
7FE0
ENDCHAR
STARTCHAR 00B9
ENCODING 185
SWIDTH 225 0
DWIDTH 10 0
BBX 8 14 1 16
BITMAP
1E
3E
FE
EE
7E
1E
1E
1F
1F
1F
1F
3F
3F
1F
ENDCHAR
STARTCHAR 00BA
ENCODING 186
SWIDTH 270 0
DWIDTH 12 0
BBX 11 16 1 15
BITMAP
1800
3E00
7F00
7F80
7FC0
FFC0
F1E0
F1E0
F1E0
FBE0
FFE0
FFC0
7FC0
7FC0
3F80
0400
ENDCHAR
STARTCHAR 00BB
ENCODING 187
SWIDTH 472 0
DWIDTH 21 0
BBX 20 20 1 0
BITMAP
800000
C02000
E03000
F03800
F83E00
FC3F00
FE3F80
FF3FE0
3FBFE0
0F83F0
0781F0
1F83F0
FF8FE0
FF3FC0
FE3F80
FC3F00
F03E00
E03E00
C03800
803000
ENDCHAR
STARTCHAR 00BC
ENCODING 188
SWIDTH 562 0
DWIDTH 25 0
BBX 23 32 1 -1
BITMAP
000060
1E0078
3E00F8
FE00F8
EE01F0
7E01F0
1E03E0
1E03E0
1F07C0
1F0FC0
1F0F80
1F1F80
3F1F00
3F3E00
1F3E00
007C00
00FC70
00F8E0
01F0E0
01F0E0
03E0E0
07E1C0
07C1FE
0F81FE
0F81FE
1F0318
3E0038
3E0038
7C0038
38007C
18007C
000040
ENDCHAR
STARTCHAR 00BD
ENCODING 189
SWIDTH 562 0
DWIDTH 25 0
BBX 23 31 1 0
BITMAP
000060
1E0078
3E00F8
FE00F8
EE01F0
7E01F0
1E03E0
1E03E0
1F07C0
1F0FC0
1F0F80
1F1F80
3F1F00
3F3E00
1F3E00
007C80
00FFF0
00FFF8
01F7F8
01F738
03E238
07E038
07C070
0F8070
0F80E2
1F00FE
3E01FE
3E01FE
7C03FE
3803F8
180040
ENDCHAR
STARTCHAR 00BE
ENCODING 190
SWIDTH 562 0
DWIDTH 25 0
BBX 23 32 1 -1
BITMAP
000060
7C0078
FC00F8
5C00F8
1C01F0
3801F0
7E03E0
7F03E0
3F87C0
038FC0
018F80
019F80
039F00
FFBE00
7F3E00
3E7C00
00FC70
00F8E0
01F0E0
01F0E0
03E0E0
07E1C0
07C1FE
0F81FE
0F81FE
1F0318
3E0038
3E0038
7C0038
38007C
18007C
000040
ENDCHAR
STARTCHAR 00BF
ENCODING 191
SWIDTH 450 0
DWIDTH 20 0
BBX 19 32 1 -8
BITMAP
00F800
01FC00
01FE00
01FE00
01FC00
01FC00
007000
000000
000000
000000
01FC00
01FC00
01FC00
03FC00
07FC00
1FFC00
3FF800
7FF800
FF8000
FF0000
FE0000
FE0000
FE0180
FE03C0
FF0FE0
FFFFE0
FFFFE0
FFFFC0
7FFFC0
7FFF80
3FFF00
003800
ENDCHAR
STARTCHAR 00C0
ENCODING 192
SWIDTH 630 0
DWIDTH 28 0
BBX 26 39 1 -1
BITMAP
01F80000
01F80000
00FC0000
007E0000
003E0000
001E0000
00000000
00000000
000F0000
000F8000
001F8000
001F8000
003FC000
003FC000
003FC000
007FC000
007FC000
007FE000
00FFE000
00FFE000
01FFF000
01FFF000
01FFF000
03FFF800
03EFF800
07C7F800
0787FC00
0F83FC00
0FBFFC00
1FFFFE00
1FFFFE00
1FFFFE00
3FC3FF00
3F83FF00
7F83FF80
7F01FF80
FF01FFC0
FF01FFC0
FC008000
ENDCHAR
STARTCHAR 00C1
ENCODING 193
SWIDTH 630 0
DWIDTH 28 0
BBX 26 39 1 -1
BITMAP
0001F800
0003F000
0003F000
0007E000
0007C000
000F8000
00010000
00000000
000F0000
000F8000
001F8000
001F8000
003FC000
003FC000
003FC000
007FC000
007FC000
007FE000
00FFE000
00FFE000
01FFF000
01FFF000
01FFF000
03FFF800
03EFF800
07C7F800
0787FC00
0F83FC00
0FBFFC00
1FFFFE00
1FFFFE00
1FFFFE00
3FC3FF00
3F83FF00
7F83FF80
7F01FF80
FF01FFC0
FF01FFC0
FC008000
ENDCHAR
STARTCHAR 00C2
ENCODING 194
SWIDTH 630 0
DWIDTH 28 0
BBX 26 39 1 -1
BITMAP
000F0000
003F8000
007FE000
00FFF000
01FDF000
01F0F000
00004000
00000000
000F0000
000F8000
001F8000
001F8000
003FC000
003FC000
003FC000
007FC000
007FC000
007FE000
00FFE000
00FFE000
01FFF000
01FFF000
01FFF000
03FFF800
03EFF800
07C7F800
0787FC00
0F83FC00
0FBFFC00
1FFFFE00
1FFFFE00
1FFFFE00
3FC3FF00
3F83FF00
7F83FF80
7F01FF80
FF01FFC0
FF01FFC0
FC008000
ENDCHAR
STARTCHAR 00C3
ENCODING 195
SWIDTH 630 0
DWIDTH 28 0
BBX 26 39 1 -1
BITMAP
0038F800
00FCF800
00FFF800
00FFF800
00FFF000
00E7E000
00E00000
00000000
000F0000
000F8000
001F8000
001F8000
003FC000
003FC000
003FC000
007FC000
007FC000
007FE000
00FFE000
00FFE000
01FFF000
01FFF000
01FFF000
03FFF800
03EFF800
07C7F800
0787FC00
0F83FC00
0FBFFC00
1FFFFE00
1FFFFE00
1FFFFE00
3FC3FF00
3F83FF00
7F83FF80
7F01FF80
FF01FFC0
FF01FFC0
FC008000
ENDCHAR
STARTCHAR 00C4
ENCODING 196
SWIDTH 630 0
DWIDTH 28 0
BBX 26 37 1 -1
BITMAP
0070E000
00F8F000
00F8F000
00F8F000
00706000
00000000
000F0000
000F8000
001F8000
001F8000
003FC000
003FC000
003FC000
007FC000
007FC000
007FE000
00FFE000
00FFE000
01FFF000
01FFF000
01FFF000
03FFF800
03EFF800
07C7F800
0787FC00
0F83FC00
0FBFFC00
1FFFFE00
1FFFFE00
1FFFFE00
3FC3FF00
3F83FF00
7F83FF80
7F01FF80
FF01FFC0
FF01FFC0
FC008000
ENDCHAR
STARTCHAR 00C5
ENCODING 197
SWIDTH 630 0
DWIDTH 28 0
BBX 26 39 1 -1
BITMAP
003F8000
007FE000
00FFF000
01F1F000
01E0F000
01E0F000
01F0F000
01F1F000
00FFE000
007FC000
003F8000
001F8000
003FC000
003FC000
003FC000
007FC000
007FC000
007FE000
00FFE000
00FFE000
01FFF000
01FFF000
01FFF000
03FFF800
03EFF800
07C7F800
0787FC00
0F83FC00
0FBFFC00
1FFFFE00
1FFFFE00
1FFFFE00
3FC3FF00
3F83FF00
7F83FF80
7F01FF80
FF01FFC0
FF01FFC0
FC008000
ENDCHAR
STARTCHAR 00C6
ENCODING 198
SWIDTH 720 0
DWIDTH 32 0
BBX 31 32 1 -1
BITMAP
0000FE00
000FFFE0
000FFFE0
001FFFC0
001FFFC0
003FFFC0
003FFFC0
003FFFC0
007FFFC0
007FFF80
007FF000
00FFF000
00FFF000
01FFFFC0
01FFFF80
03FFFF80
03FFFFC0
03C7FF40
07C7F800
0787F808
0F83FFFC
0FFFFFFC
1FFFFFFC
1FFFFFFC
3FFFFFFE
3FC3FFFE
3F83FFFE
7F03FFFE
7F01FFF8
FF01FF80
FF01F800
F0000000
ENDCHAR
STARTCHAR 00C7
ENCODING 199
SWIDTH 472 0
DWIDTH 21 0
BBX 20 37 1 -7
BITMAP
007F00
03FFC0
0FFFE0
1FFFF0
3FFFF0
7FFFF0
7FFFF0
7FFFF0
FFF800
FFE000
FFC000
FF8000
FF8000
FF8000
FF8000
FF8000
FFC060
FFFFF0
FFFFF0
FFFFF0
FFFFF0
7FFFF0
7FFFF0
3FFFF0
3FFFF0
1FFFE0
1FFFC0
0FFF80
03FE00
01E800
01F000
01F800
007E00
083E00
1FFE00
1FFE00
0FFC00
ENDCHAR
STARTCHAR 00C8
ENCODING 200
SWIDTH 495 0
DWIDTH 22 0
BBX 20 39 1 0
BITMAP
180000
FC0000
FE0000
7F0000
1F0000
0F8000
0F8000
000000
0FF800
7FFF00
FFFF00
FFFE00
FFFE00
7FFE00
7FFE00
7FFE00
7FFE00
7FE400
3F8000
3F8000
3F8400
3FFE00
3FFC00
3FFE00
1FFE00
1FF000
1FC000
1FE0C0
1FFFE0
0FFFE0
0FFFE0
0FFFF0
0FFFF0
0FFFF0
0FFFF0
0FFFF0
0FFF80
0FF800
078000
ENDCHAR
STARTCHAR 00C9
ENCODING 201
SWIDTH 495 0
DWIDTH 22 0
BBX 20 39 1 0
BITMAP
01F800
01F000
03F000
03E000
07C000
078000
078000
000000
0FF800
7FFF00
FFFF00
FFFE00
FFFE00
7FFE00
7FFE00
7FFE00
7FFE00
7FE400
3F8000
3F8000
3F8400
3FFE00
3FFC00
3FFE00
1FFE00
1FF000
1FC000
1FE0C0
1FFFE0
0FFFE0
0FFFE0
0FFFF0
0FFFF0
0FFFF0
0FFFF0
0FFFF0
0FFF80
0FF800
078000
ENDCHAR
STARTCHAR 00CA
ENCODING 202
SWIDTH 495 0
DWIDTH 22 0
BBX 20 39 1 0
BITMAP
070000
1F8000
3FE000
7FF000
7FF800
F8F800
F02000
000000
0FF800
7FFF00
FFFF00
FFFE00
FFFE00
7FFE00
7FFE00
7FFE00
7FFE00
7FE400
3F8000
3F8000
3F8400
3FFE00
3FFC00
3FFE00
1FFE00
1FF000
1FC000
1FE0C0
1FFFE0
0FFFE0
0FFFE0
0FFFF0
0FFFF0
0FFFF0
0FFFF0
0FFFF0
0FFF80
0FF800
078000
ENDCHAR
STARTCHAR 00CB
ENCODING 203
SWIDTH 495 0
DWIDTH 22 0
BBX 20 37 1 0
BITMAP
00E000
70F000
F8F000
F8F000
F86000
700000
0FF800
7FFF00
FFFF00
FFFE00
FFFE00
7FFE00
7FFE00
7FFE00
7FFE00
7FE400
3F8000
3F8000
3F8400
3FFE00
3FFC00
3FFE00
1FFE00
1FF000
1FC000
1FE0C0
1FFFE0
0FFFE0
0FFFE0
0FFFF0
0FFFF0
0FFFF0
0FFFF0
0FFFF0
0FFF80
0FF800
078000
ENDCHAR
STARTCHAR 00CC
ENCODING 204
SWIDTH 315 0
DWIDTH 14 0
BBX 13 38 1 0
BITMAP
3F00
1F80
1F80
0FC0
07C0
03E0
0100
0000
0FF0
1FF8
1FF8
1FF0
1FF0
1FF0
1FF0
1FF0
3FF0
3FF0
3FF0
3FF0
3FF0
3FF0
3FE0
3FE0
3FE0
3FE0
3FE0
3FE0
3FE0
3FF0
3FF0
7FF0
7FE0
7FE0
7FE0
7FE0
FFC0
F800
ENDCHAR
STARTCHAR 00CD
ENCODING 205
SWIDTH 315 0
DWIDTH 14 0
BBX 15 38 1 0
BITMAP
007E
00FE
00FC
01F8
01F0
03E0
0040
0000
0FF0
1FF8
1FF8
1FF0
1FF0
1FF0
1FF0
1FF0
3FF0
3FF0
3FF0
3FF0
3FF0
3FF0
3FE0
3FE0
3FE0
3FE0
3FE0
3FE0
3FE0
3FF0
3FF0
7FF0
7FE0
7FE0
7FE0
7FE0
FFC0
F800
ENDCHAR
STARTCHAR 00CE
ENCODING 206
SWIDTH 315 0
DWIDTH 14 0
BBX 15 38 1 0
BITMAP
03E0
07F0
0FF8
1FFC
3F7E
3E3E
0000
0000
0FF0
1FF8
1FF8
1FF0
1FF0
1FF0
1FF0
1FF0
3FF0
3FF0
3FF0
3FF0
3FF0
3FF0
3FE0
3FE0
3FE0
3FE0
3FE0
3FE0
3FE0
3FF0
3FF0
7FF0
7FE0
7FE0
7FE0
7FE0
FFC0
F800
ENDCHAR
STARTCHAR 00CF
ENCODING 207
SWIDTH 315 0
DWIDTH 14 0
BBX 15 36 1 0
BITMAP
1C3C
1E3E
3E3E
3E3C
0C18
0000
0FF0
1FF8
1FF8
1FF0
1FF0
1FF0
1FF0
1FF0
3FF0
3FF0
3FF0
3FF0
3FF0
3FF0
3FE0
3FE0
3FE0
3FE0
3FE0
3FE0
3FE0
3FF0
3FF0
7FF0
7FE0
7FE0
7FE0
7FE0
FFC0
F800
ENDCHAR
STARTCHAR 00D0
ENCODING 208
SWIDTH 472 0
DWIDTH 21 0
BBX 21 30 0 0
BITMAP
1FF000
3FFC00
3FFF00
3FFF80
3FFFC0
3FFFE0
3FFFE0
3FFFF0
3FE7F0
3FC1F8
3FF9F8
FFF9F8
FFF9F8
FFFDF8
FFFDF8
FFE3F8
FFE7F0
1FEFF0
0FFFE0
0FFFE0
0FFFC0
0FFFC0
0FFF80
07FF00
07FF00
07FE00
07F800
03F000
03C000
030000
ENDCHAR
STARTCHAR 00D1
ENCODING 209
SWIDTH 562 0
DWIDTH 25 0
BBX 24 38 1 0
BITMAP
0070F0
00FDF0
01FFF0
01FFF0
01FFE0
01EFC0
01E000
000000
060038
1FE0FE
3FF1FF
3FE1FE
3FE1FE
3FF1FE
3FF1FE
3FF1FE
3FF3FE
7FF1FE
7FF9FE
7FF9FC
7FF9FC
7FF9FC
7FFFFC
7FFFFC
7FFFFC
7FBFFC
7FBFFC
7FBFFC
FF9FFC
FF9FFC
FF9FFC
FF8FFC
FF8FFC
FF8FF8
FF87F8
FF87FC
FF87F8
F00000
ENDCHAR
STARTCHAR 00D2
ENCODING 210
SWIDTH 517 0
DWIDTH 23 0
BBX 22 38 1 0
BITMAP
FC0000
7E0000
3E0000
3F0000
1F0000
0F8000
040000
03C000
07F000
07FC00
0FFE00
0FFF80
1FFF80
1FFFC0
3FFFE0
3FFFE0
7FFFF0
7FFFF8
7FFFF8
FF87F8
FF07FC
FF03FC
FF03FC
FF03FC
FF07FC
FF87FC
FFEFFC
FFFFFC
7FFFFC
7FFFF8
7FFFF8
3FFFF8
3FFFF8
1FFFF0
1FFFF0
0FFFE0
03FFC0
00FF00
ENDCHAR
STARTCHAR 00D3
ENCODING 211
SWIDTH 517 0
DWIDTH 23 0
BBX 22 38 1 0
BITMAP
007E00
00FC00
00F800
01F800
01F000
03E000
004000
03C000
07F000
07FC00
0FFE00
0FFF80
1FFF80
1FFFC0
3FFFE0
3FFFE0
7FFFF0
7FFFF8
7FFFF8
FF87F8
FF07FC
FF03FC
FF03FC
FF03FC
FF07FC
FF87FC
FFEFFC
FFFFFC
7FFFFC
7FFFF8
7FFFF8
3FFFF8
3FFFF8
1FFFF0
1FFFF0
0FFFE0
03FFC0
00FF00
ENDCHAR
STARTCHAR 00D4
ENCODING 212
SWIDTH 517 0
DWIDTH 23 0
BBX 22 39 1 0
BITMAP
030000
07C000
0FF000
1FF800
3FFC00
7EFC00
783C00
000000
03C000
07F000
07FC00
0FFE00
0FFF80
1FFF80
1FFFC0
3FFFE0
3FFFE0
7FFFF0
7FFFF8
7FFFF8
FF87F8
FF07FC
FF03FC
FF03FC
FF03FC
FF07FC
FF87FC
FFEFFC
FFFFFC
7FFFFC
7FFFF8
7FFFF8
3FFFF8
3FFFF8
1FFFF0
1FFFF0
0FFFE0
03FFC0
00FF00
ENDCHAR
STARTCHAR 00D5
ENCODING 213
SWIDTH 517 0
DWIDTH 23 0
BBX 22 39 1 0
BITMAP
001800
1C7C00
3F7C00
7FFC00
7FF800
7FF000
79F000
780000
03C000
07F000
07FC00
0FFE00
0FFF80
1FFF80
1FFFC0
3FFFE0
3FFFE0
7FFFF0
7FFFF8
7FFFF8
FF87F8
FF07FC
FF03FC
FF03FC
FF03FC
FF07FC
FF87FC
FFEFFC
FFFFFC
7FFFFC
7FFFF8
7FFFF8
3FFFF8
3FFFF8
1FFFF0
1FFFF0
0FFFE0
03FFC0
00FF00
ENDCHAR
STARTCHAR 00D6
ENCODING 214
SWIDTH 517 0
DWIDTH 23 0
BBX 22 36 1 0
BITMAP
183800
3C7C00
7C7C00
3C7800
181000
03C000
07F000
07FC00
0FFE00
0FFF80
1FFF80
1FFFC0
3FFFE0
3FFFE0
7FFFF0
7FFFF8
7FFFF8
FF87F8
FF07FC
FF03FC
FF03FC
FF03FC
FF07FC
FF87FC
FFEFFC
FFFFFC
7FFFFC
7FFFF8
7FFFF8
3FFFF8
3FFFF8
1FFFF0
1FFFF0
0FFFE0
03FFC0
00FF00
ENDCHAR
STARTCHAR 00D7
ENCODING 215
SWIDTH 427 0
DWIDTH 19 0
BBX 18 18 1 7
BITMAP
100400
180E00
3C1F00
7E3F80
FF7FC0
FFFF80
7FFF00
3FFE00
1FFC00
0FF800
1FFC00
3FFE00
7FFF00
FFFF80
FF7F80
7E3F00
3C1F00
180C00
ENDCHAR
STARTCHAR 00D8
ENCODING 216
SWIDTH 517 0
DWIDTH 23 0
BBX 24 32 0 -1
BITMAP
000040
01E07F
03F8FF
03FEFE
07FFFC
07FFFC
0FFFF8
0FFFF8
1FFFF0
1FFFF0
3FFFF8
3FFFFC
3FFFFC
7F3FFC
7F7FFE
7E7EFE
7EFEFE
7EFCFE
7FF9FE
7FF9FE
7FF3FE
7FFFFE
3FFFFE
3FFFFC
3FFFFC
1FFFFC
1FFFFC
3FFFF8
7FFFF8
7FFFF0
FDFFE0
B87F80
ENDCHAR
STARTCHAR 00D9
ENCODING 217
SWIDTH 540 0
DWIDTH 24 0
BBX 23 37 1 1
BITMAP
07E000
03F000
01F800
00F800
007C00
007C00
002000
000000
1F80FC
3F81FE
3F81FE
3F00FC
7F00FC
7F00FC
7F00FC
7F01FC
7F01FC
FF01FC
FF01FC
FF01FC
FF01FE
FF01FE
FF83FE
FF83FE
FFC3FC
FFFFFC
FFFFFC
FFFFF8
FFFFF8
7FFFF8
7FFFF0
3FFFF0
3FFFE0
1FFFC0
1FFF80
07FF00
01FE00
ENDCHAR
STARTCHAR 00DA
ENCODING 218
SWIDTH 540 0
DWIDTH 24 0
BBX 23 37 1 1
BITMAP
0003F0
0007E0
000FC0
000F80
001F00
001F00
000200
000000
1F80FC
3F81FE
3F81FE
3F00FC
7F00FC
7F00FC
7F00FC
7F01FC
7F01FC
FF01FC
FF01FC
FF01FC
FF01FE
FF01FE
FF83FE
FF83FE
FFC3FC
FFFFFC
FFFFFC
FFFFF8
FFFFF8
7FFFF8
7FFFF0
3FFFF0
3FFFE0
1FFFC0
1FFF80
07FF00
01FE00
ENDCHAR
STARTCHAR 00DB
ENCODING 219
SWIDTH 540 0
DWIDTH 24 0
BBX 23 37 1 1
BITMAP
001E00
007F00
00FF80
01FFE0
03F3E0
03E1E0
000080
000000
1F80FC
3F81FE
3F81FE
3F00FC
7F00FC
7F00FC
7F00FC
7F01FC
7F01FC
FF01FC
FF01FC
FF01FC
FF01FE
FF01FE
FF83FE
FF83FE
FFC3FC
FFFFFC
FFFFFC
FFFFF8
FFFFF8
7FFFF8
7FFFF0
3FFFF0
3FFFE0
1FFFC0
1FFF80
07FF00
01FE00
ENDCHAR
STARTCHAR 00DC
ENCODING 220
SWIDTH 540 0
DWIDTH 24 0
BBX 23 35 1 1
BITMAP
00E1C0
01E3E0
01E3E0
01E3E0
00C1C0
000000
1F80FC
3F81FE
3F81FE
3F00FC
7F00FC
7F00FC
7F00FC
7F01FC
7F01FC
FF01FC
FF01FC
FF01FC
FF01FE
FF01FE
FF83FE
FF83FE
FFC3FC
FFFFFC
FFFFFC
FFFFF8
FFFFF8
7FFFF8
7FFFF0
3FFFF0
3FFFE0
1FFFC0
1FFF80
07FF00
01FE00
ENDCHAR
STARTCHAR 00DD
ENCODING 221
SWIDTH 607 0
DWIDTH 27 0
BBX 26 38 1 0
BITMAP
0003F000
0007E000
0007E000
000FC000
000F8000
001F0000
00020000
00000000
00003FC0
0E003F80
FF007F00
FF007F00
FF80FF00
7F80FE00
7FC1FE00
3FC1FC00
3FE3FC00
1FE3F800
1FF7F800
0FF7F000
0FFFF000
07FFE000
07FFE000
03FFC000
03FFC000
01FF8000
01FF8000
00FF0000
00FF0000
007F0000
007F0000
007F0000
007F0000
007F0000
007F8000
007F8000
007F8000
003F0000
ENDCHAR
STARTCHAR 00DE
ENCODING 222
SWIDTH 495 0
DWIDTH 22 0
BBX 21 31 1 0
BITMAP
FC0000
FE0000
FF0000
FF0000
FF8000
FFFC00
FFFF00
FFFF80
FFFFC0
FFFFC0
FFFFE0
FF0FE0
FF07E0
FF03F0
FF03F0
FF03F0
7F07F0
7F07F0
7F87F0
7F8FF0
7FFFF8
7FFFF0
7FFFE0
7FFFC0
7FFF80
7FC000
7FC000
7FC000
7FC000
7FC000
3FC000
ENDCHAR
STARTCHAR 00DF
ENCODING 223
SWIDTH 562 0
DWIDTH 25 0
BBX 23 34 1 -3
BITMAP
07E000
1FFC00
1FFE00
7FFF00
7FFF00
FFFF80
FF7F80
FE1F80
FC0F80
FC0F80
FC0F80
FC1F80
FC3F00
FE3E00
FE3E00
FE3FE0
FE3FF8
FE3FFC
FE3FFC
FE07FE
7E01FE
7E00FE
7E00FE
7E00FE
7E01FE
7F07FE
7F1FFE
7F1FFC
7F1FF8
7F1FF0
7F1FC0
7F0000
3F0000
1C0000
ENDCHAR
STARTCHAR 00E0
ENCODING 224
SWIDTH 630 0
DWIDTH 28 0
BBX 26 39 1 -1
BITMAP
01F80000
01F80000
00FC0000
007E0000
003E0000
001E0000
00000000
00000000
000F0000
000F8000
001F8000
001F8000
003FC000
003FC000
003FC000
007FC000
007FC000
007FE000
00FFE000
00FFE000
01FFF000
01FFF000
01FFF000
03FFF800
03EFF800
07C7F800
0787FC00
0F83FC00
0FBFFC00
1FFFFE00
1FFFFE00
1FFFFE00
3FC3FF00
3F83FF00
7F83FF80
7F01FF80
FF01FFC0
FF01FFC0
FC008000
ENDCHAR
STARTCHAR 00E1
ENCODING 225
SWIDTH 630 0
DWIDTH 28 0
BBX 26 39 1 -1
BITMAP
0001F800
0003F000
0003F000
0007E000
0007C000
000F8000
00010000
00000000
000F0000
000F8000
001F8000
001F8000
003FC000
003FC000
003FC000
007FC000
007FC000
007FE000
00FFE000
00FFE000
01FFF000
01FFF000
01FFF000
03FFF800
03EFF800
07C7F800
0787FC00
0F83FC00
0FBFFC00
1FFFFE00
1FFFFE00
1FFFFE00
3FC3FF00
3F83FF00
7F83FF80
7F01FF80
FF01FFC0
FF01FFC0
FC008000
ENDCHAR
STARTCHAR 00E2
ENCODING 226
SWIDTH 630 0
DWIDTH 28 0
BBX 26 39 1 -1
BITMAP
000F0000
003F8000
007FE000
00FFF000
01FDF000
01F0F000
00004000
00000000
000F0000
000F8000
001F8000
001F8000
003FC000
003FC000
003FC000
007FC000
007FC000
007FE000
00FFE000
00FFE000
01FFF000
01FFF000
01FFF000
03FFF800
03EFF800
07C7F800
0787FC00
0F83FC00
0FBFFC00
1FFFFE00
1FFFFE00
1FFFFE00
3FC3FF00
3F83FF00
7F83FF80
7F01FF80
FF01FFC0
FF01FFC0
FC008000
ENDCHAR
STARTCHAR 00E3
ENCODING 227
SWIDTH 630 0
DWIDTH 28 0
BBX 26 39 1 -1
BITMAP
0038F800
00FCF800
00FFF800
00FFF800
00FFF000
00E7E000
00E00000
00000000
000F0000
000F8000
001F8000
001F8000
003FC000
003FC000
003FC000
007FC000
007FC000
007FE000
00FFE000
00FFE000
01FFF000
01FFF000
01FFF000
03FFF800
03EFF800
07C7F800
0787FC00
0F83FC00
0FBFFC00
1FFFFE00
1FFFFE00
1FFFFE00
3FC3FF00
3F83FF00
7F83FF80
7F01FF80
FF01FFC0
FF01FFC0
FC008000
ENDCHAR
STARTCHAR 00E4
ENCODING 228
SWIDTH 630 0
DWIDTH 28 0
BBX 26 37 1 -1
BITMAP
0070E000
00F8F000
00F8F000
00F8F000
00706000
00000000
000F0000
000F8000
001F8000
001F8000
003FC000
003FC000
003FC000
007FC000
007FC000
007FE000
00FFE000
00FFE000
01FFF000
01FFF000
01FFF000
03FFF800
03EFF800
07C7F800
0787FC00
0F83FC00
0FBFFC00
1FFFFE00
1FFFFE00
1FFFFE00
3FC3FF00
3F83FF00
7F83FF80
7F01FF80
FF01FFC0
FF01FFC0
FC008000
ENDCHAR
STARTCHAR 00E5
ENCODING 229
SWIDTH 630 0
DWIDTH 28 0
BBX 26 39 1 -1
BITMAP
003F8000
007FE000
00FFF000
01F1F000
01E0F000
01E0F000
01F0F000
01F1F000
00FFE000
007FC000
003F8000
001F8000
003FC000
003FC000
003FC000
007FC000
007FC000
007FE000
00FFE000
00FFE000
01FFF000
01FFF000
01FFF000
03FFF800
03EFF800
07C7F800
0787FC00
0F83FC00
0FBFFC00
1FFFFE00
1FFFFE00
1FFFFE00
3FC3FF00
3F83FF00
7F83FF80
7F01FF80
FF01FFC0
FF01FFC0
FC008000
ENDCHAR
STARTCHAR 00E6
ENCODING 230
SWIDTH 720 0
DWIDTH 32 0
BBX 31 32 1 -1
BITMAP
0000FE00
000FFFE0
000FFFE0
001FFFC0
001FFFC0
003FFFC0
003FFFC0
003FFFC0
007FFFC0
007FFF80
007FF000
00FFF000
00FFF000
01FFFFC0
01FFFF80
03FFFF80
03FFFFC0
03C7FF40
07C7F800
0787F808
0F83FFFC
0FFFFFFC
1FFFFFFC
1FFFFFFC
3FFFFFFE
3FC3FFFE
3F83FFFE
7F03FFFE
7F01FFF8
FF01FF80
FF01F800
F0000000
ENDCHAR
STARTCHAR 00E7
ENCODING 231
SWIDTH 472 0
DWIDTH 21 0
BBX 20 37 1 -7
BITMAP
007F00
03FFC0
0FFFE0
1FFFF0
3FFFF0
7FFFF0
7FFFF0
7FFFF0
FFF800
FFE000
FFC000
FF8000
FF8000
FF8000
FF8000
FF8000
FFC060
FFFFF0
FFFFF0
FFFFF0
FFFFF0
7FFFF0
7FFFF0
3FFFF0
3FFFF0
1FFFE0
1FFFC0
0FFF80
03FE00
01E800
01F000
01F800
007E00
083E00
1FFE00
1FFE00
0FFC00
ENDCHAR
STARTCHAR 00E8
ENCODING 232
SWIDTH 495 0
DWIDTH 22 0
BBX 20 39 1 0
BITMAP
180000
FC0000
FE0000
7F0000
1F0000
0F8000
0F8000
000000
0FF800
7FFF00
FFFF00
FFFE00
FFFE00
7FFE00
7FFE00
7FFE00
7FFE00
7FE400
3F8000
3F8000
3F8400
3FFE00
3FFC00
3FFE00
1FFE00
1FF000
1FC000
1FE0C0
1FFFE0
0FFFE0
0FFFE0
0FFFF0
0FFFF0
0FFFF0
0FFFF0
0FFFF0
0FFF80
0FF800
078000
ENDCHAR
STARTCHAR 00E9
ENCODING 233
SWIDTH 495 0
DWIDTH 22 0
BBX 20 39 1 0
BITMAP
01F800
01F000
03F000
03E000
07C000
078000
078000
000000
0FF800
7FFF00
FFFF00
FFFE00
FFFE00
7FFE00
7FFE00
7FFE00
7FFE00
7FE400
3F8000
3F8000
3F8400
3FFE00
3FFC00
3FFE00
1FFE00
1FF000
1FC000
1FE0C0
1FFFE0
0FFFE0
0FFFE0
0FFFF0
0FFFF0
0FFFF0
0FFFF0
0FFFF0
0FFF80
0FF800
078000
ENDCHAR
STARTCHAR 00EA
ENCODING 234
SWIDTH 495 0
DWIDTH 22 0
BBX 20 39 1 0
BITMAP
070000
1F8000
3FE000
7FF000
7FF800
F8F800
F02000
000000
0FF800
7FFF00
FFFF00
FFFE00
FFFE00
7FFE00
7FFE00
7FFE00
7FFE00
7FE400
3F8000
3F8000
3F8400
3FFE00
3FFC00
3FFE00
1FFE00
1FF000
1FC000
1FE0C0
1FFFE0
0FFFE0
0FFFE0
0FFFF0
0FFFF0
0FFFF0
0FFFF0
0FFFF0
0FFF80
0FF800
078000
ENDCHAR
STARTCHAR 00EB
ENCODING 235
SWIDTH 495 0
DWIDTH 22 0
BBX 20 37 1 0
BITMAP
00E000
70F000
F8F000
F8F000
F86000
700000
0FF800
7FFF00
FFFF00
FFFE00
FFFE00
7FFE00
7FFE00
7FFE00
7FFE00
7FE400
3F8000
3F8000
3F8400
3FFE00
3FFC00
3FFE00
1FFE00
1FF000
1FC000
1FE0C0
1FFFE0
0FFFE0
0FFFE0
0FFFF0
0FFFF0
0FFFF0
0FFFF0
0FFFF0
0FFF80
0FF800
078000
ENDCHAR
STARTCHAR 00EC
ENCODING 236
SWIDTH 315 0
DWIDTH 14 0
BBX 13 38 1 0
BITMAP
3F00
1F80
1F80
0FC0
07C0
03E0
0100
0000
0FF0
1FF8
1FF8
1FF0
1FF0
1FF0
1FF0
1FF0
3FF0
3FF0
3FF0
3FF0
3FF0
3FF0
3FE0
3FE0
3FE0
3FE0
3FE0
3FE0
3FE0
3FF0
3FF0
7FF0
7FE0
7FE0
7FE0
7FE0
FFC0
F800
ENDCHAR
STARTCHAR 00ED
ENCODING 237
SWIDTH 315 0
DWIDTH 14 0
BBX 15 38 1 0
BITMAP
007E
00FE
00FC
01F8
01F0
03E0
0040
0000
0FF0
1FF8
1FF8
1FF0
1FF0
1FF0
1FF0
1FF0
3FF0
3FF0
3FF0
3FF0
3FF0
3FF0
3FE0
3FE0
3FE0
3FE0
3FE0
3FE0
3FE0
3FF0
3FF0
7FF0
7FE0
7FE0
7FE0
7FE0
FFC0
F800
ENDCHAR
STARTCHAR 00EE
ENCODING 238
SWIDTH 315 0
DWIDTH 14 0
BBX 15 38 1 0
BITMAP
03E0
07F0
0FF8
1FFC
3F7E
3E3E
0000
0000
0FF0
1FF8
1FF8
1FF0
1FF0
1FF0
1FF0
1FF0
3FF0
3FF0
3FF0
3FF0
3FF0
3FF0
3FE0
3FE0
3FE0
3FE0
3FE0
3FE0
3FE0
3FF0
3FF0
7FF0
7FE0
7FE0
7FE0
7FE0
FFC0
F800
ENDCHAR
STARTCHAR 00EF
ENCODING 239
SWIDTH 315 0
DWIDTH 14 0
BBX 15 36 1 0
BITMAP
1C3C
1E3E
3E3E
3E3C
0C18
0000
0FF0
1FF8
1FF8
1FF0
1FF0
1FF0
1FF0
1FF0
3FF0
3FF0
3FF0
3FF0
3FF0
3FF0
3FE0
3FE0
3FE0
3FE0
3FE0
3FE0
3FE0
3FF0
3FF0
7FF0
7FE0
7FE0
7FE0
7FE0
FFC0
F800
ENDCHAR
STARTCHAR 00F0
ENCODING 240
SWIDTH 472 0
DWIDTH 21 0
BBX 21 30 0 0
BITMAP
1FF000
3FFC00
3FFF00
3FFF80
3FFFC0
3FFFE0
3FFFE0
3FFFF0
3FE7F0
3FC1F8
3FF9F8
FFF9F8
FFF9F8
FFFDF8
FFFDF8
FFE3F8
FFE7F0
1FEFF0
0FFFE0
0FFFE0
0FFFC0
0FFFC0
0FFF80
07FF00
07FF00
07FE00
07F800
03F000
03C000
030000
ENDCHAR
STARTCHAR 00F1
ENCODING 241
SWIDTH 562 0
DWIDTH 25 0
BBX 24 38 1 0
BITMAP
0070F0
00FDF0
01FFF0
01FFF0
01FFE0
01EFC0
01E000
000000
060038
1FE0FE
3FF1FF
3FE1FE
3FE1FE
3FF1FE
3FF1FE
3FF1FE
3FF3FE
7FF1FE
7FF9FE
7FF9FC
7FF9FC
7FF9FC
7FFFFC
7FFFFC
7FFFFC
7FBFFC
7FBFFC
7FBFFC
FF9FFC
FF9FFC
FF9FFC
FF8FFC
FF8FFC
FF8FF8
FF87F8
FF87FC
FF87F8
F00000
ENDCHAR
STARTCHAR 00F2
ENCODING 242
SWIDTH 517 0
DWIDTH 23 0
BBX 22 38 1 0
BITMAP
FC0000
7E0000
3E0000
3F0000
1F0000
0F8000
040000
03C000
07F000
07FC00
0FFE00
0FFF80
1FFF80
1FFFC0
3FFFE0
3FFFE0
7FFFF0
7FFFF8
7FFFF8
FF87F8
FF07FC
FF03FC
FF03FC
FF03FC
FF07FC
FF87FC
FFEFFC
FFFFFC
7FFFFC
7FFFF8
7FFFF8
3FFFF8
3FFFF8
1FFFF0
1FFFF0
0FFFE0
03FFC0
00FF00
ENDCHAR
STARTCHAR 00F3
ENCODING 243
SWIDTH 517 0
DWIDTH 23 0
BBX 22 38 1 0
BITMAP
007E00
00FC00
00F800
01F800
01F000
03E000
004000
03C000
07F000
07FC00
0FFE00
0FFF80
1FFF80
1FFFC0
3FFFE0
3FFFE0
7FFFF0
7FFFF8
7FFFF8
FF87F8
FF07FC
FF03FC
FF03FC
FF03FC
FF07FC
FF87FC
FFEFFC
FFFFFC
7FFFFC
7FFFF8
7FFFF8
3FFFF8
3FFFF8
1FFFF0
1FFFF0
0FFFE0
03FFC0
00FF00
ENDCHAR
STARTCHAR 00F4
ENCODING 244
SWIDTH 517 0
DWIDTH 23 0
BBX 22 39 1 0
BITMAP
030000
07C000
0FF000
1FF800
3FFC00
7EFC00
783C00
000000
03C000
07F000
07FC00
0FFE00
0FFF80
1FFF80
1FFFC0
3FFFE0
3FFFE0
7FFFF0
7FFFF8
7FFFF8
FF87F8
FF07FC
FF03FC
FF03FC
FF03FC
FF07FC
FF87FC
FFEFFC
FFFFFC
7FFFFC
7FFFF8
7FFFF8
3FFFF8
3FFFF8
1FFFF0
1FFFF0
0FFFE0
03FFC0
00FF00
ENDCHAR
STARTCHAR 00F5
ENCODING 245
SWIDTH 517 0
DWIDTH 23 0
BBX 22 39 1 0
BITMAP
001800
1C7C00
3F7C00
7FFC00
7FF800
7FF000
79F000
780000
03C000
07F000
07FC00
0FFE00
0FFF80
1FFF80
1FFFC0
3FFFE0
3FFFE0
7FFFF0
7FFFF8
7FFFF8
FF87F8
FF07FC
FF03FC
FF03FC
FF03FC
FF07FC
FF87FC
FFEFFC
FFFFFC
7FFFFC
7FFFF8
7FFFF8
3FFFF8
3FFFF8
1FFFF0
1FFFF0
0FFFE0
03FFC0
00FF00
ENDCHAR
STARTCHAR 00F6
ENCODING 246
SWIDTH 517 0
DWIDTH 23 0
BBX 22 36 1 0
BITMAP
183800
3C7C00
7C7C00
3C7800
181000
03C000
07F000
07FC00
0FFE00
0FFF80
1FFF80
1FFFC0
3FFFE0
3FFFE0
7FFFF0
7FFFF8
7FFFF8
FF87F8
FF07FC
FF03FC
FF03FC
FF03FC
FF07FC
FF87FC
FFEFFC
FFFFFC
7FFFFC
7FFFF8
7FFFF8
3FFFF8
3FFFF8
1FFFF0
1FFFF0
0FFFE0
03FFC0
00FF00
ENDCHAR
STARTCHAR 00F7
ENCODING 247
SWIDTH 472 0
DWIDTH 21 0
BBX 20 23 1 4
BITMAP
01F000
01F800
03F800
03F800
03F800
01F800
00F000
000000
FFFFE0
FFFFF0
FFFFF0
FFFFF0
FFFFF0
FFFFE0
200000
000000
01E000
03F800
03F800
03F800
03F800
03F000
01F000
ENDCHAR
STARTCHAR 00F8
ENCODING 248
SWIDTH 517 0
DWIDTH 23 0
BBX 24 32 0 -1
BITMAP
000040
01E07F
03F8FF
03FEFE
07FFFC
07FFFC
0FFFF8
0FFFF8
1FFFF0
1FFFF0
3FFFF8
3FFFFC
3FFFFC
7F3FFC
7F7FFE
7E7EFE
7EFEFE
7EFCFE
7FF9FE
7FF9FE
7FF3FE
7FFFFE
3FFFFE
3FFFFC
3FFFFC
1FFFFC
1FFFFC
3FFFF8
7FFFF8
7FFFF0
FDFFE0
B87F80
ENDCHAR
STARTCHAR 00F9
ENCODING 249
SWIDTH 540 0
DWIDTH 24 0
BBX 23 37 1 1
BITMAP
07E000
03F000
01F800
00F800
007C00
007C00
002000
000000
1F80FC
3F81FE
3F81FE
3F00FC
7F00FC
7F00FC
7F00FC
7F01FC
7F01FC
FF01FC
FF01FC
FF01FC
FF01FE
FF01FE
FF83FE
FF83FE
FFC3FC
FFFFFC
FFFFFC
FFFFF8
FFFFF8
7FFFF8
7FFFF0
3FFFF0
3FFFE0
1FFFC0
1FFF80
07FF00
01FE00
ENDCHAR
STARTCHAR 00FA
ENCODING 250
SWIDTH 540 0
DWIDTH 24 0
BBX 23 37 1 1
BITMAP
0003F0
0007E0
000FC0
000F80
001F00
001F00
000200
000000
1F80FC
3F81FE
3F81FE
3F00FC
7F00FC
7F00FC
7F00FC
7F01FC
7F01FC
FF01FC
FF01FC
FF01FC
FF01FE
FF01FE
FF83FE
FF83FE
FFC3FC
FFFFFC
FFFFFC
FFFFF8
FFFFF8
7FFFF8
7FFFF0
3FFFF0
3FFFE0
1FFFC0
1FFF80
07FF00
01FE00
ENDCHAR
STARTCHAR 00FB
ENCODING 251
SWIDTH 540 0
DWIDTH 24 0
BBX 23 37 1 1
BITMAP
001E00
007F00
00FF80
01FFE0
03F3E0
03E1E0
000080
000000
1F80FC
3F81FE
3F81FE
3F00FC
7F00FC
7F00FC
7F00FC
7F01FC
7F01FC
FF01FC
FF01FC
FF01FC
FF01FE
FF01FE
FF83FE
FF83FE
FFC3FC
FFFFFC
FFFFFC
FFFFF8
FFFFF8
7FFFF8
7FFFF0
3FFFF0
3FFFE0
1FFFC0
1FFF80
07FF00
01FE00
ENDCHAR
STARTCHAR 00FC
ENCODING 252
SWIDTH 540 0
DWIDTH 24 0
BBX 23 35 1 1
BITMAP
00E1C0
01E3E0
01E3E0
01E3E0
00C1C0
000000
1F80FC
3F81FE
3F81FE
3F00FC
7F00FC
7F00FC
7F00FC
7F01FC
7F01FC
FF01FC
FF01FC
FF01FC
FF01FE
FF01FE
FF83FE
FF83FE
FFC3FC
FFFFFC
FFFFFC
FFFFF8
FFFFF8
7FFFF8
7FFFF0
3FFFF0
3FFFE0
1FFFC0
1FFF80
07FF00
01FE00
ENDCHAR
STARTCHAR 00FD
ENCODING 253
SWIDTH 607 0
DWIDTH 27 0
BBX 26 38 1 0
BITMAP
0003F000
0007E000
0007E000
000FC000
000F8000
001F0000
00020000
00000000
00003FC0
0E003F80
FF007F00
FF007F00
FF80FF00
7F80FE00
7FC1FE00
3FC1FC00
3FE3FC00
1FE3F800
1FF7F800
0FF7F000
0FFFF000
07FFE000
07FFE000
03FFC000
03FFC000
01FF8000
01FF8000
00FF0000
00FF0000
007F0000
007F0000
007F0000
007F0000
007F0000
007F8000
007F8000
007F8000
003F0000
ENDCHAR
STARTCHAR 00FE
ENCODING 254
SWIDTH 495 0
DWIDTH 22 0
BBX 21 31 1 0
BITMAP
FC0000
FE0000
FF0000
FF0000
FF8000
FFFC00
FFFF00
FFFF80
FFFFC0
FFFFC0
FFFFE0
FF0FE0
FF07E0
FF03F0
FF03F0
FF03F0
7F07F0
7F07F0
7F87F0
7F8FF0
7FFFF8
7FFFF0
7FFFE0
7FFFC0
7FFF80
7FC000
7FC000
7FC000
7FC000
7FC000
3FC000
ENDCHAR
STARTCHAR 00FF
ENCODING 255
SWIDTH 607 0
DWIDTH 27 0
BBX 26 36 1 0
BITMAP
00C1C000
01E3E000
01E3E000
01E3C000
00E08000
00000000
00003FC0
0E003F80
FF007F00
FF007F00
FF80FF00
7F80FE00
7FC1FE00
3FC1FC00
3FE3FC00
1FE3F800
1FF7F800
0FF7F000
0FFFF000
07FFE000
07FFE000
03FFC000
03FFC000
01FF8000
01FF8000
00FF0000
00FF0000
007F0000
007F0000
007F0000
007F0000
007F0000
007F8000
007F8000
007F8000
003F0000
ENDCHAR
STARTCHAR 0100
ENCODING 256
SWIDTH 630 0
DWIDTH 28 0
BBX 26 37 1 -1
BITMAP
00FFF800
00FFF800
00FFF800
00FFF800
00000000
00000000
000F0000
000F8000
001F8000
001F8000
003FC000
003FC000
003FC000
007FC000
007FC000
007FE000
00FFE000
00FFE000
01FFF000
01FFF000
01FFF000
03FFF800
03EFF800
07C7F800
0787FC00
0F83FC00
0FBFFC00
1FFFFE00
1FFFFE00
1FFFFE00
3FC3FF00
3F83FF00
7F83FF80
7F01FF80
FF01FFC0
FF01FFC0
FC008000
ENDCHAR
STARTCHAR 0101
ENCODING 257
SWIDTH 630 0
DWIDTH 28 0
BBX 26 37 1 -1
BITMAP
00FFF800
00FFF800
00FFF800
00FFF800
00000000
00000000
000F0000
000F8000
001F8000
001F8000
003FC000
003FC000
003FC000
007FC000
007FC000
007FE000
00FFE000
00FFE000
01FFF000
01FFF000
01FFF000
03FFF800
03EFF800
07C7F800
0787FC00
0F83FC00
0FBFFC00
1FFFFE00
1FFFFE00
1FFFFE00
3FC3FF00
3F83FF00
7F83FF80
7F01FF80
FF01FFC0
FF01FFC0
FC008000
ENDCHAR
STARTCHAR 0102
ENCODING 258
SWIDTH 630 0
DWIDTH 28 0
BBX 26 39 1 -1
BITMAP
01E0F000
01E0F000
00FFF000
00FFE000
007FC000
003F8000
000C0000
00000000
000F0000
000F8000
001F8000
001F8000
003FC000
003FC000
003FC000
007FC000
007FC000
007FE000
00FFE000
00FFE000
01FFF000
01FFF000
01FFF000
03FFF800
03EFF800
07C7F800
0787FC00
0F83FC00
0FBFFC00
1FFFFE00
1FFFFE00
1FFFFE00
3FC3FF00
3F83FF00
7F83FF80
7F01FF80
FF01FFC0
FF01FFC0
FC008000
ENDCHAR
STARTCHAR 0103
ENCODING 259
SWIDTH 630 0
DWIDTH 28 0
BBX 26 39 1 -1
BITMAP
01E0F000
01E0F000
00FFF000
00FFE000
007FC000
003F8000
000C0000
00000000
000F0000
000F8000
001F8000
001F8000
003FC000
003FC000
003FC000
007FC000
007FC000
007FE000
00FFE000
00FFE000
01FFF000
01FFF000
01FFF000
03FFF800
03EFF800
07C7F800
0787FC00
0F83FC00
0FBFFC00
1FFFFE00
1FFFFE00
1FFFFE00
3FC3FF00
3F83FF00
7F83FF80
7F01FF80
FF01FFC0
FF01FFC0
FC008000
ENDCHAR
STARTCHAR 0104
ENCODING 260
SWIDTH 630 0
DWIDTH 28 0
BBX 26 37 1 -7
BITMAP
000F0000
000F8000
001F8000
001F8000
003FC000
003FC000
003FC000
007FC000
007FC000
007FE000
00FFE000
00FFE000
01FFF000
01FFF000
01FFF000
03FFF800
03EFF800
07C7F800
0787FC00
0F83FC00
0FBFFC00
1FFFFE00
1FFFFE00
1FFFFE00
3FC3FF00
3F83FF00
7F83FF80
7F01FF80
FF01FFC0
FF01FFC0
FC03C000
0003C000
00078000
0007C100
0007FF80
0007FF80
0003FF00
ENDCHAR
STARTCHAR 0105
ENCODING 261
SWIDTH 630 0
DWIDTH 28 0
BBX 26 37 1 -7
BITMAP
000F0000
000F8000
001F8000
001F8000
003FC000
003FC000
003FC000
007FC000
007FC000
007FE000
00FFE000
00FFE000
01FFF000
01FFF000
01FFF000
03FFF800
03EFF800
07C7F800
0787FC00
0F83FC00
0FBFFC00
1FFFFE00
1FFFFE00
1FFFFE00
3FC3FF00
3F83FF00
7F83FF80
7F01FF80
FF01FFC0
FF01FFC0
FC03C000
0003C000
00078000
0007C100
0007FF80
0007FF80
0003FF00
ENDCHAR
STARTCHAR 0106
ENCODING 262
SWIDTH 472 0
DWIDTH 21 0
BBX 20 38 1 0
BITMAP
0007F0
0007E0
000FC0
000F80
001F00
001E00
000200
000000
007F00
03FFC0
0FFFE0
1FFFF0
3FFFF0
7FFFF0
7FFFF0
7FFFF0
FFF800
FFE000
FFC000
FF8000
FF8000
FF8000
FF8000
FF8000
FFC060
FFFFF0
FFFFF0
FFFFF0
FFFFF0
7FFFF0
7FFFF0
3FFFF0
3FFFF0
1FFFE0
1FFFC0
0FFF80
03FE00
000800
ENDCHAR
STARTCHAR 0107
ENCODING 263
SWIDTH 472 0
DWIDTH 21 0
BBX 20 38 1 0
BITMAP
0007F0
0007E0
000FC0
000F80
001F00
001E00
000200
000000
007F00
03FFC0
0FFFE0
1FFFF0
3FFFF0
7FFFF0
7FFFF0
7FFFF0
FFF800
FFE000
FFC000
FF8000
FF8000
FF8000
FF8000
FF8000
FFC060
FFFFF0
FFFFF0
FFFFF0
FFFFF0
7FFFF0
7FFFF0
3FFFF0
3FFFF0
1FFFE0
1FFFC0
0FFF80
03FE00
000800
ENDCHAR
STARTCHAR 0108
ENCODING 264
SWIDTH 472 0
DWIDTH 21 0
BBX 20 38 1 0
BITMAP
003E00
007F00
00FF80
01FFC0
03F7E0
03E3E0
000000
000000
007F00
03FFC0
0FFFE0
1FFFF0
3FFFF0
7FFFF0
7FFFF0
7FFFF0
FFF800
FFE000
FFC000
FF8000
FF8000
FF8000
FF8000
FF8000
FFC060
FFFFF0
FFFFF0
FFFFF0
FFFFF0
7FFFF0
7FFFF0
3FFFF0
3FFFF0
1FFFE0
1FFFC0
0FFF80
03FE00
000800
ENDCHAR
STARTCHAR 0109
ENCODING 265
SWIDTH 472 0
DWIDTH 21 0
BBX 20 38 1 0
BITMAP
003E00
007F00
00FF80
01FFC0
03F7E0
03E3E0
000000
000000
007F00
03FFC0
0FFFE0
1FFFF0
3FFFF0
7FFFF0
7FFFF0
7FFFF0
FFF800
FFE000
FFC000
FF8000
FF8000
FF8000
FF8000
FF8000
FFC060
FFFFF0
FFFFF0
FFFFF0
FFFFF0
7FFFF0
7FFFF0
3FFFF0
3FFFF0
1FFFE0
1FFFC0
0FFF80
03FE00
000800
ENDCHAR
STARTCHAR 010A
ENCODING 266
SWIDTH 472 0
DWIDTH 21 0
BBX 20 36 1 0
BITMAP
001800
003C00
007C00
003C00
001800
000000
007F00
03FFC0
0FFFE0
1FFFF0
3FFFF0
7FFFF0
7FFFF0
7FFFF0
FFF800
FFE000
FFC000
FF8000
FF8000
FF8000
FF8000
FF8000
FFC060
FFFFF0
FFFFF0
FFFFF0
FFFFF0
7FFFF0
7FFFF0
3FFFF0
3FFFF0
1FFFE0
1FFFC0
0FFF80
03FE00
000800
ENDCHAR
STARTCHAR 010B
ENCODING 267
SWIDTH 472 0
DWIDTH 21 0
BBX 20 36 1 0
BITMAP
001800
003C00
007C00
003C00
001800
000000
007F00
03FFC0
0FFFE0
1FFFF0
3FFFF0
7FFFF0
7FFFF0
7FFFF0
FFF800
FFE000
FFC000
FF8000
FF8000
FF8000
FF8000
FF8000
FFC060
FFFFF0
FFFFF0
FFFFF0
FFFFF0
7FFFF0
7FFFF0
3FFFF0
3FFFF0
1FFFE0
1FFFC0
0FFF80
03FE00
000800
ENDCHAR
STARTCHAR 010C
ENCODING 268
SWIDTH 472 0
DWIDTH 21 0
BBX 20 38 1 0
BITMAP
03C3E0
03E7E0
03FFC0
01FF80
007F00
003E00
001800
000000
007F00
03FFC0
0FFFE0
1FFFF0
3FFFF0
7FFFF0
7FFFF0
7FFFF0
FFF800
FFE000
FFC000
FF8000
FF8000
FF8000
FF8000
FF8000
FFC060
FFFFF0
FFFFF0
FFFFF0
FFFFF0
7FFFF0
7FFFF0
3FFFF0
3FFFF0
1FFFE0
1FFFC0
0FFF80
03FE00
000800
ENDCHAR
STARTCHAR 010D
ENCODING 269
SWIDTH 472 0
DWIDTH 21 0
BBX 20 38 1 0
BITMAP
03C3E0
03E7E0
03FFC0
01FF80
007F00
003E00
001800
000000
007F00
03FFC0
0FFFE0
1FFFF0
3FFFF0
7FFFF0
7FFFF0
7FFFF0
FFF800
FFE000
FFC000
FF8000
FF8000
FF8000
FF8000
FF8000
FFC060
FFFFF0
FFFFF0
FFFFF0
FFFFF0
7FFFF0
7FFFF0
3FFFF0
3FFFF0
1FFFE0
1FFFC0
0FFF80
03FE00
000800
ENDCHAR
STARTCHAR 010E
ENCODING 270
SWIDTH 450 0
DWIDTH 20 0
BBX 19 39 1 0
BITMAP
007800
F0F800
F9F000
FFF000
7FE000
1FC000
0F8000
000000
000000
7F8000
FFF000
FFFC00
FFFE00
FFFE00
FFFF00
FFFF80
FFFF80
FF1FC0
FF07C0
FF07E0
FF07E0
FF07E0
FF07E0
7F0FE0
7F0FC0
7F1FC0
7FBF80
7FFF80
7FFF00
3FFF00
3FFE00
3FFE00
3FFC00
3FF800
1FF000
1FE000
1F8000
0E0000
080000
ENDCHAR
STARTCHAR 010F
ENCODING 271
SWIDTH 450 0
DWIDTH 20 0
BBX 19 39 1 0
BITMAP
007800
F0F800
F9F000
FFF000
7FE000
1FC000
0F8000
000000
000000
7F8000
FFF000
FFFC00
FFFE00
FFFE00
FFFF00
FFFF80
FFFF80
FF1FC0
FF07C0
FF07E0
FF07E0
FF07E0
FF07E0
7F0FE0
7F0FC0
7F1FC0
7FBF80
7FFF80
7FFF00
3FFF00
3FFE00
3FFE00
3FFC00
3FF800
1FF000
1FE000
1F8000
0E0000
080000
ENDCHAR
STARTCHAR 0110
ENCODING 272
SWIDTH 472 0
DWIDTH 21 0
BBX 21 30 0 0
BITMAP
1FF000
3FFC00
3FFF00
3FFF80
3FFFC0
3FFFE0
3FFFE0
3FFFF0
3FE7F0
3FC1F8
3FF9F8
FFF9F8
FFF9F8
FFFDF8
FFFDF8
FFE3F8
FFE7F0
1FEFF0
0FFFE0
0FFFE0
0FFFC0
0FFFC0
0FFF80
07FF00
07FF00
07FE00
07F800
03F000
03C000
030000
ENDCHAR
STARTCHAR 0111
ENCODING 273
SWIDTH 472 0
DWIDTH 21 0
BBX 21 30 0 0
BITMAP
1FF000
3FFC00
3FFF00
3FFF80
3FFFC0
3FFFE0
3FFFE0
3FFFF0
3FE7F0
3FC1F8
3FF9F8
FFF9F8
FFF9F8
FFFDF8
FFFDF8
FFE3F8
FFE7F0
1FEFF0
0FFFE0
0FFFE0
0FFFC0
0FFFC0
0FFF80
07FF00
07FF00
07FE00
07F800
03F000
03C000
030000
ENDCHAR
STARTCHAR 0112
ENCODING 274
SWIDTH 495 0
DWIDTH 22 0
BBX 20 36 1 0
BITMAP
3FF800
FFF800
FFF800
FF8000
E00000
0FF800
7FFF00
FFFF00
FFFE00
FFFE00
7FFE00
7FFE00
7FFE00
7FFE00
7FE400
3F8000
3F8000
3F8400
3FFE00
3FFC00
3FFE00
1FFE00
1FF000
1FC000
1FE0C0
1FFFE0
0FFFE0
0FFFE0
0FFFF0
0FFFF0
0FFFF0
0FFFF0
0FFFF0
0FFF80
0FF800
078000
ENDCHAR
STARTCHAR 0113
ENCODING 275
SWIDTH 495 0
DWIDTH 22 0
BBX 20 36 1 0
BITMAP
3FF800
FFF800
FFF800
FF8000
E00000
0FF800
7FFF00
FFFF00
FFFE00
FFFE00
7FFE00
7FFE00
7FFE00
7FFE00
7FE400
3F8000
3F8000
3F8400
3FFE00
3FFC00
3FFE00
1FFE00
1FF000
1FC000
1FE0C0
1FFFE0
0FFFE0
0FFFE0
0FFFF0
0FFFF0
0FFFF0
0FFFF0
0FFFF0
0FFF80
0FF800
078000
ENDCHAR
STARTCHAR 0114
ENCODING 276
SWIDTH 495 0
DWIDTH 22 0
BBX 20 39 1 0
BITMAP
007800
E07800
F1F800
FFF000
7FE000
3FC000
1F8000
000000
0FF800
7FFF00
FFFF00
FFFE00
FFFE00
7FFE00
7FFE00
7FFE00
7FFE00
7FE400
3F8000
3F8000
3F8400
3FFE00
3FFC00
3FFE00
1FFE00
1FF000
1FC000
1FE0C0
1FFFE0
0FFFE0
0FFFE0
0FFFF0
0FFFF0
0FFFF0
0FFFF0
0FFFF0
0FFF80
0FF800
078000
ENDCHAR
STARTCHAR 0115
ENCODING 277
SWIDTH 495 0
DWIDTH 22 0
BBX 20 39 1 0
BITMAP
007800
E07800
F1F800
FFF000
7FE000
3FC000
1F8000
000000
0FF800
7FFF00
FFFF00
FFFE00
FFFE00
7FFE00
7FFE00
7FFE00
7FFE00
7FE400
3F8000
3F8000
3F8400
3FFE00
3FFC00
3FFE00
1FFE00
1FF000
1FC000
1FE0C0
1FFFE0
0FFFE0
0FFFE0
0FFFF0
0FFFF0
0FFFF0
0FFFF0
0FFFF0
0FFF80
0FF800
078000
ENDCHAR
STARTCHAR 0116
ENCODING 278
SWIDTH 495 0
DWIDTH 22 0
BBX 20 37 1 0
BITMAP
060000
0F0000
0F8000
0F0000
070000
000000
0FF800
7FFF00
FFFF00
FFFE00
FFFE00
7FFE00
7FFE00
7FFE00
7FFE00
7FE400
3F8000
3F8000
3F8400
3FFE00
3FFC00
3FFE00
1FFE00
1FF000
1FC000
1FE0C0
1FFFE0
0FFFE0
0FFFE0
0FFFF0
0FFFF0
0FFFF0
0FFFF0
0FFFF0
0FFF80
0FF800
078000
ENDCHAR
STARTCHAR 0117
ENCODING 279
SWIDTH 495 0
DWIDTH 22 0
BBX 20 37 1 0
BITMAP
060000
0F0000
0F8000
0F0000
070000
000000
0FF800
7FFF00
FFFF00
FFFE00
FFFE00
7FFE00
7FFE00
7FFE00
7FFE00
7FE400
3F8000
3F8000
3F8400
3FFE00
3FFC00
3FFE00
1FFE00
1FF000
1FC000
1FE0C0
1FFFE0
0FFFE0
0FFFE0
0FFFF0
0FFFF0
0FFFF0
0FFFF0
0FFFF0
0FFF80
0FF800
078000
ENDCHAR
STARTCHAR 0118
ENCODING 280
SWIDTH 495 0
DWIDTH 22 0
BBX 20 38 1 -7
BITMAP
0FF800
7FFF00
FFFF00
FFFE00
FFFE00
7FFE00
7FFE00
7FFE00
7FFE00
7FE400
3F8000
3F8000
3F8400
3FFE00
3FFC00
3FFE00
1FFE00
1FF000
1FC000
1FE0C0
1FFFE0
0FFFE0
0FFFE0
0FFFF0
0FFFF0
0FFFF0
0FFFF0
0FFFF0
0FFF80
0FFC00
07B800
007800
007800
007870
00FFF0
007FF0
007FF0
000E00
ENDCHAR
STARTCHAR 0119
ENCODING 281
SWIDTH 495 0
DWIDTH 22 0
BBX 20 38 1 -7
BITMAP
0FF800
7FFF00
FFFF00
FFFE00
FFFE00
7FFE00
7FFE00
7FFE00
7FFE00
7FE400
3F8000
3F8000
3F8400
3FFE00
3FFC00
3FFE00
1FFE00
1FF000
1FC000
1FE0C0
1FFFE0
0FFFE0
0FFFE0
0FFFF0
0FFFF0
0FFFF0
0FFFF0
0FFFF0
0FFF80
0FFC00
07B800
007800
007800
007870
00FFF0
007FF0
007FF0
000E00
ENDCHAR
STARTCHAR 011A
ENCODING 282
SWIDTH 495 0
DWIDTH 22 0
BBX 20 39 1 0
BITMAP
007800
F0F800
F9F000
FFF000
7FE000
1FC000
0F8000
000000
0FF800
7FFF00
FFFF00
FFFE00
FFFE00
7FFE00
7FFE00
7FFE00
7FFE00
7FE400
3F8000
3F8000
3F8400
3FFE00
3FFC00
3FFE00
1FFE00
1FF000
1FC000
1FE0C0
1FFFE0
0FFFE0
0FFFE0
0FFFF0
0FFFF0
0FFFF0
0FFFF0
0FFFF0
0FFF80
0FF800
078000
ENDCHAR
STARTCHAR 011B
ENCODING 283
SWIDTH 495 0
DWIDTH 22 0
BBX 20 39 1 0
BITMAP
007800
F0F800
F9F000
FFF000
7FE000
1FC000
0F8000
000000
0FF800
7FFF00
FFFF00
FFFE00
FFFE00
7FFE00
7FFE00
7FFE00
7FFE00
7FE400
3F8000
3F8000
3F8400
3FFE00
3FFC00
3FFE00
1FFE00
1FF000
1FC000
1FE0C0
1FFFE0
0FFFE0
0FFFE0
0FFFF0
0FFFF0
0FFFF0
0FFFF0
0FFFF0
0FFF80
0FF800
078000
ENDCHAR
STARTCHAR 011C
ENCODING 284
SWIDTH 495 0
DWIDTH 22 0
BBX 21 38 1 0
BITMAP
007800
00FE00
03FF00
07FF80
07EFC0
07C7C0
000200
004000
01FF00
03FFC0
03FFE0
07FFF0
0FFFF0
1FFFF0
1FF3E0
1F8000
3F0000
3F0000
3E0000
7E0000
7E00F8
7E1FF0
7E1FF0
FE1FF0
FE1FF0
FE1FF0
FE1FF0
FE1FF0
FFBFF0
FFFFF0
FFFFF0
FFFFF0
FFFFE0
7FFFC0
3FFF00
1FFC00
0FF000
040000
ENDCHAR
STARTCHAR 011D
ENCODING 285
SWIDTH 495 0
DWIDTH 22 0
BBX 21 38 1 0
BITMAP
007800
00FE00
03FF00
07FF80
07EFC0
07C7C0
000200
004000
01FF00
03FFC0
03FFE0
07FFF0
0FFFF0
1FFFF0
1FF3E0
1F8000
3F0000
3F0000
3E0000
7E0000
7E00F8
7E1FF0
7E1FF0
FE1FF0
FE1FF0
FE1FF0
FE1FF0
FE1FF0
FFBFF0
FFFFF0
FFFFF0
FFFFF0
FFFFE0
7FFFC0
3FFF00
1FFC00
0FF000
040000
ENDCHAR
STARTCHAR 011E
ENCODING 286
SWIDTH 495 0
DWIDTH 22 0
BBX 21 38 1 0
BITMAP
0703C0
0787C0
07FF80
03FF80
03FF00
01FE00
003000
004000
01FF00
03FFC0
03FFE0
07FFF0
0FFFF0
1FFFF0
1FF3E0
1F8000
3F0000
3F0000
3E0000
7E0000
7E00F8
7E1FF0
7E1FF0
FE1FF0
FE1FF0
FE1FF0
FE1FF0
FE1FF0
FFBFF0
FFFFF0
FFFFF0
FFFFF0
FFFFE0
7FFFC0
3FFF00
1FFC00
0FF000
040000
ENDCHAR
STARTCHAR 011F
ENCODING 287
SWIDTH 495 0
DWIDTH 22 0
BBX 21 38 1 0
BITMAP
0703C0
0787C0
07FF80
03FF80
03FF00
01FE00
003000
004000
01FF00
03FFC0
03FFE0
07FFF0
0FFFF0
1FFFF0
1FF3E0
1F8000
3F0000
3F0000
3E0000
7E0000
7E00F8
7E1FF0
7E1FF0
FE1FF0
FE1FF0
FE1FF0
FE1FF0
FE1FF0
FFBFF0
FFFFF0
FFFFF0
FFFFF0
FFFFE0
7FFFC0
3FFF00
1FFC00
0FF000
040000
ENDCHAR
STARTCHAR 0120
ENCODING 288
SWIDTH 495 0
DWIDTH 22 0
BBX 21 36 1 0
BITMAP
003000
007800
00F800
00F800
003000
004000
01FF00
03FFC0
03FFE0
07FFF0
0FFFF0
1FFFF0
1FF3E0
1F8000
3F0000
3F0000
3E0000
7E0000
7E00F8
7E1FF0
7E1FF0
FE1FF0
FE1FF0
FE1FF0
FE1FF0
FE1FF0
FFBFF0
FFFFF0
FFFFF0
FFFFF0
FFFFE0
7FFFC0
3FFF00
1FFC00
0FF000
040000
ENDCHAR
STARTCHAR 0121
ENCODING 289
SWIDTH 495 0
DWIDTH 22 0
BBX 21 36 1 0
BITMAP
003000
007800
00F800
00F800
003000
004000
01FF00
03FFC0
03FFE0
07FFF0
0FFFF0
1FFFF0
1FF3E0
1F8000
3F0000
3F0000
3E0000
7E0000
7E00F8
7E1FF0
7E1FF0
FE1FF0
FE1FF0
FE1FF0
FE1FF0
FE1FF0
FFBFF0
FFFFF0
FFFFF0
FFFFF0
FFFFE0
7FFFC0
3FFF00
1FFC00
0FF000
040000
ENDCHAR
STARTCHAR 0122
ENCODING 290
SWIDTH 495 0
DWIDTH 22 0
BBX 21 38 1 -7
BITMAP
004000
01FF00
03FFC0
03FFE0
07FFF0
0FFFF0
1FFFF0
1FF3E0
1F8000
3F0000
3F0000
3E0000
7E0000
7E00F8
7E1FF0
7E1FF0
FE1FF0
FE1FF0
FE1FF0
FE1FF0
FE1FF0
FFBFF0
FFFFF0
FFFFF0
FFFFF0
FFFFE0
7FFFC0
3FFF00
1FFC00
0FF000
040000
000000
07E000
07E000
07E000
0FC000
0F8000
078000
ENDCHAR
STARTCHAR 0123
ENCODING 291
SWIDTH 495 0
DWIDTH 22 0
BBX 21 38 1 -7
BITMAP
004000
01FF00
03FFC0
03FFE0
07FFF0
0FFFF0
1FFFF0
1FF3E0
1F8000
3F0000
3F0000
3E0000
7E0000
7E00F8
7E1FF0
7E1FF0
FE1FF0
FE1FF0
FE1FF0
FE1FF0
FE1FF0
FFBFF0
FFFFF0
FFFFF0
FFFFF0
FFFFE0
7FFFC0
3FFF00
1FFC00
0FF000
040000
000000
07E000
07E000
07E000
0FC000
0F8000
078000
ENDCHAR
STARTCHAR 0124
ENCODING 292
SWIDTH 562 0
DWIDTH 25 0
BBX 23 37 1 1
BITMAP
000780
001FC0
003FE0
007FF8
00FCF8
00F878
000020
000000
07F000
1FF0FE
3FE0FE
3FE1FE
1FF1FE
1FF1FE
1FE1FE
3FE1FE
3FE1FE
3FE1FE
3FE1FE
3FFFFE
3FFFFE
3FFFFC
3FFFFC
3FFFFC
3FFFFE
7FFFFE
7FFFFE
7FFFFE
7FE3FE
7FE3FE
7FE3FE
7FC3FC
7FC3FC
7FE3FC
7FE3FC
FFE3FC
FFC7C0
ENDCHAR
STARTCHAR 0125
ENCODING 293
SWIDTH 562 0
DWIDTH 25 0
BBX 23 37 1 1
BITMAP
000780
001FC0
003FE0
007FF8
00FCF8
00F878
000020
000000
07F000
1FF0FE
3FE0FE
3FE1FE
1FF1FE
1FF1FE
1FE1FE
3FE1FE
3FE1FE
3FE1FE
3FE1FE
3FFFFE
3FFFFE
3FFFFC
3FFFFC
3FFFFC
3FFFFE
7FFFFE
7FFFFE
7FFFFE
7FE3FE
7FE3FE
7FE3FE
7FC3FC
7FC3FC
7FE3FC
7FE3FC
FFE3FC
FFC7C0
ENDCHAR
STARTCHAR 0126
ENCODING 294
SWIDTH 585 0
DWIDTH 26 0
BBX 25 29 1 1
BITMAP
07F00000
1FF0FE00
3FE0FE00
FFFFFF00
FFFFFF00
FFFFFF00
FFFFFF80
FFFFFF80
FFFFFF00
3FE1FE00
3FE1FE00
3FFFFE00
3FFFFE00
3FFFFC00
3FFFFC00
3FFFFC00
3FFFFE00
7FFFFE00
7FFFFE00
7FFFFE00
7FE3FE00
7FE3FE00
7FE3FE00
7FC3FC00
7FC3FC00
7FE3FC00
7FE3FC00
FFC3FC00
FFC7C000
ENDCHAR
STARTCHAR 0127
ENCODING 295
SWIDTH 585 0
DWIDTH 26 0
BBX 25 29 1 1
BITMAP
07F00000
1FF0FE00
3FE0FE00
FFFFFF00
FFFFFF00
FFFFFF00
FFFFFF80
FFFFFF80
FFFFFF00
3FE1FE00
3FE1FE00
3FFFFE00
3FFFFE00
3FFFFC00
3FFFFC00
3FFFFC00
3FFFFE00
7FFFFE00
7FFFFE00
7FFFFE00
7FE3FE00
7FE3FE00
7FE3FE00
7FC3FC00
7FC3FC00
7FE3FC00
7FE3FC00
FFC3FC00
FFC7C000
ENDCHAR
STARTCHAR 0128
ENCODING 296
SWIDTH 315 0
DWIDTH 14 0
BBX 15 38 1 0
BITMAP
0E1E
1F9E
3FFE
3FFE
3FFC
3DF8
3C00
0000
0FF0
1FF8
1FF8
1FF0
1FF0
1FF0
1FF0
1FF0
3FF0
3FF0
3FF0
3FF0
3FF0
3FF0
3FE0
3FE0
3FE0
3FE0
3FE0
3FE0
3FE0
3FF0
3FF0
7FF0
7FE0
7FE0
7FE0
7FE0
FFC0
F800
ENDCHAR
STARTCHAR 0129
ENCODING 297
SWIDTH 315 0
DWIDTH 14 0
BBX 15 38 1 0
BITMAP
0E1E
1F9E
3FFE
3FFE
3FFC
3DF8
3C00
0000
0FF0
1FF8
1FF8
1FF0
1FF0
1FF0
1FF0
1FF0
3FF0
3FF0
3FF0
3FF0
3FF0
3FF0
3FE0
3FE0
3FE0
3FE0
3FE0
3FE0
3FE0
3FF0
3FF0
7FF0
7FE0
7FE0
7FE0
7FE0
FFC0
F800
ENDCHAR
STARTCHAR 012A
ENCODING 298
SWIDTH 315 0
DWIDTH 14 0
BBX 15 36 1 0
BITMAP
3FFE
3FFE
3FFE
3FFE
0000
0000
0FF0
1FF8
1FF8
1FF0
1FF0
1FF0
1FF0
1FF0
3FF0
3FF0
3FF0
3FF0
3FF0
3FF0
3FE0
3FE0
3FE0
3FE0
3FE0
3FE0
3FE0
3FF0
3FF0
7FF0
7FE0
7FE0
7FE0
7FE0
FFC0
F800
ENDCHAR
STARTCHAR 012B
ENCODING 299
SWIDTH 315 0
DWIDTH 14 0
BBX 15 36 1 0
BITMAP
3FFE
3FFE
3FFE
3FFE
0000
0000
0FF0
1FF8
1FF8
1FF0
1FF0
1FF0
1FF0
1FF0
3FF0
3FF0
3FF0
3FF0
3FF0
3FF0
3FE0
3FE0
3FE0
3FE0
3FE0
3FE0
3FE0
3FF0
3FF0
7FF0
7FE0
7FE0
7FE0
7FE0
FFC0
F800
ENDCHAR
STARTCHAR 012C
ENCODING 300
SWIDTH 315 0
DWIDTH 14 0
BBX 15 38 1 0
BITMAP
381E
3C3E
3FFE
1FFC
0FF8
07F0
0180
0000
0FF0
1FF8
1FF8
1FF0
1FF0
1FF0
1FF0
1FF0
3FF0
3FF0
3FF0
3FF0
3FF0
3FF0
3FE0
3FE0
3FE0
3FE0
3FE0
3FE0
3FE0
3FF0
3FF0
7FF0
7FE0
7FE0
7FE0
7FE0
FFC0
F800
ENDCHAR
STARTCHAR 012D
ENCODING 301
SWIDTH 315 0
DWIDTH 14 0
BBX 15 38 1 0
BITMAP
381E
3C3E
3FFE
1FFC
0FF8
07F0
0180
0000
0FF0
1FF8
1FF8
1FF0
1FF0
1FF0
1FF0
1FF0
3FF0
3FF0
3FF0
3FF0
3FF0
3FF0
3FE0
3FE0
3FE0
3FE0
3FE0
3FE0
3FE0
3FF0
3FF0
7FF0
7FE0
7FE0
7FE0
7FE0
FFC0
F800
ENDCHAR
STARTCHAR 012E
ENCODING 302
SWIDTH 315 0
DWIDTH 14 0
BBX 13 37 1 -7
BITMAP
0FF0
1FF8
1FF8
1FF0
1FF0
1FF0
1FF0
1FF0
3FF0
3FF0
3FF0
3FF0
3FF0
3FF0
3FE0
3FE0
3FE0
3FE0
3FE0
3FE0
3FE0
3FF0
3FF0
7FF0
7FE0
7FE0
7FE0
7FE0
FFC0
FE00
1E00
3C00
3C00
7C18
3FF8
3FF8
1FF8
ENDCHAR
STARTCHAR 012F
ENCODING 303
SWIDTH 315 0
DWIDTH 14 0
BBX 13 37 1 -7
BITMAP
0FF0
1FF8
1FF8
1FF0
1FF0
1FF0
1FF0
1FF0
3FF0
3FF0
3FF0
3FF0
3FF0
3FF0
3FE0
3FE0
3FE0
3FE0
3FE0
3FE0
3FE0
3FF0
3FF0
7FF0
7FE0
7FE0
7FE0
7FE0
FFC0
FE00
1E00
3C00
3C00
7C18
3FF8
3FF8
1FF8
ENDCHAR
STARTCHAR 0130
ENCODING 304
SWIDTH 315 0
DWIDTH 14 0
BBX 13 36 1 0
BITMAP
01C0
03E0
03E0
03C0
0080
0000
0FF0
1FF8
1FF8
1FF0
1FF0
1FF0
1FF0
1FF0
3FF0
3FF0
3FF0
3FF0
3FF0
3FF0
3FE0
3FE0
3FE0
3FE0
3FE0
3FE0
3FE0
3FF0
3FF0
7FF0
7FE0
7FE0
7FE0
7FE0
FFC0
F800
ENDCHAR
STARTCHAR 0131
ENCODING 305
SWIDTH 315 0
DWIDTH 14 0
BBX 13 36 1 0
BITMAP
01C0
03E0
03E0
03C0
0080
0000
0FF0
1FF8
1FF8
1FF0
1FF0
1FF0
1FF0
1FF0
3FF0
3FF0
3FF0
3FF0
3FF0
3FF0
3FE0
3FE0
3FE0
3FE0
3FE0
3FE0
3FE0
3FF0
3FF0
7FF0
7FE0
7FE0
7FE0
7FE0
FFC0
F800
ENDCHAR
STARTCHAR 0132
ENCODING 306
SWIDTH 607 0
DWIDTH 27 0
BBX 25 30 1 0
BITMAP
1F807F00
3FE07F80
3FC07F80
1FC07F80
3FC0FF80
3FC0FF80
3FC0FF80
3F80FF80
3F80FF80
3F80FF80
3F80FF80
3F80FF80
3F80FF80
3F80FF80
7F80FF80
7F80FF80
7F807F80
7F807F80
7F807F80
7F807F80
7F9E3F80
7FBF3F80
7FBF7F80
7FBFBF00
7FBFFF00
7F9FFE00
7F1FFE00
7F8FFC00
FF07F800
F001F000
ENDCHAR
STARTCHAR 0133
ENCODING 307
SWIDTH 607 0
DWIDTH 27 0
BBX 25 30 1 0
BITMAP
1F807F00
3FE07F80
3FC07F80
1FC07F80
3FC0FF80
3FC0FF80
3FC0FF80
3F80FF80
3F80FF80
3F80FF80
3F80FF80
3F80FF80
3F80FF80
3F80FF80
7F80FF80
7F80FF80
7F807F80
7F807F80
7F807F80
7F807F80
7F9E3F80
7FBF3F80
7FBF7F80
7FBFBF00
7FBFFF00
7F9FFE00
7F1FFE00
7F8FFC00
FF07F800
F001F000
ENDCHAR
STARTCHAR 0134
ENCODING 308
SWIDTH 450 0
DWIDTH 20 0
BBX 19 39 1 0
BITMAP
000C00
003E00
007F80
00FFC0
01FFE0
03F3E0
03E0C0
018000
000000
007FC0
00FFC0
00FFC0
00FFC0
00FFC0
00FFC0
01FFC0
01FFC0
01FFC0
01FFC0
01FFE0
01FFE0
01FFE0
01FFE0
01FFE0
00FFE0
00FFE0
00FFE0
007FE0
007FC0
7C7FC0
FE7FC0
FF7FC0
FF7F80
FFFF80
FFFF00
7FFF00
3FFE00
1FF800
03F000
ENDCHAR
STARTCHAR 0135
ENCODING 309
SWIDTH 450 0
DWIDTH 20 0
BBX 19 39 1 0
BITMAP
000C00
003E00
007F80
00FFC0
01FFE0
03F3E0
03E0C0
018000
000000
007FC0
00FFC0
00FFC0
00FFC0
00FFC0
00FFC0
01FFC0
01FFC0
01FFC0
01FFC0
01FFE0
01FFE0
01FFE0
01FFE0
01FFE0
00FFE0
00FFE0
00FFE0
007FE0
007FC0
7C7FC0
FE7FC0
FF7FC0
FF7F80
FFFF80
FFFF00
7FFF00
3FFE00
1FF800
03F000
ENDCHAR
STARTCHAR 0136
ENCODING 310
SWIDTH 540 0
DWIDTH 24 0
BBX 23 38 1 -7
BITMAP
000060
FFF0E0
7FF1F0
7FF1FE
FFF3FC
FFF7FC
FFF7F8
FFF7F0
FFFFF0
FFFFE0
FFFFC0
FFFF80
FFFF80
FFFF00
FFFF00
FFFE00
FFFC00
FFFE00
FFFF00
FFFF80
FFFFC0
FFFFE0
FFFFF0
FFE7F0
FFE7F8
FFE3FC
FFE3FC
FFE1FE
FFF0FE
FFE0E0
03C0C0
000000
007E00
007E00
007E00
007C00
00FC00
007800
ENDCHAR
STARTCHAR 0137
ENCODING 311
SWIDTH 540 0
DWIDTH 24 0
BBX 23 38 1 -7
BITMAP
000060
FFF0E0
7FF1F0
7FF1FE
FFF3FC
FFF7FC
FFF7F8
FFF7F0
FFFFF0
FFFFE0
FFFFC0
FFFF80
FFFF80
FFFF00
FFFF00
FFFE00
FFFC00
FFFE00
FFFF00
FFFF80
FFFFC0
FFFFE0
FFFFF0
FFE7F0
FFE7F8
FFE3FC
FFE3FC
FFE1FE
FFF0FE
FFE0E0
03C0C0
000000
007E00
007E00
007E00
007C00
00FC00
007800
ENDCHAR
STARTCHAR 0138
ENCODING 312
SWIDTH 517 0
DWIDTH 23 0
BBX 22 25 1 -1
BITMAP
0020C0
FFE1E0
FFE3FC
FFE7F8
FFE7F8
FFEFF0
FFEFE0
FFFFC0
FFFF80
FFFF00
FFFF00
FFFE00
FFFC00
FFFC00
FFFF00
FFFF80
FFFFC0
FFFFE0
FFEFF0
FFE7F0
FFC3F8
FFE3FC
FFE1FC
FFE1C0
000080
ENDCHAR
STARTCHAR 0139
ENCODING 313
SWIDTH 495 0
DWIDTH 22 0
BBX 21 39 1 -1
BITMAP
001F80
003F80
003F00
007E00
007C00
00F800
001000
000000
03FE00
0FFE00
0FFE00
1FFE00
1FFE00
1FFC00
1FFC00
1FFC00
1FFC00
1FFC00
1FFC00
1FF800
1FF800
3FF800
3FF800
3FF800
3FF800
3FF000
7FF000
7FF000
7FF000
7FFFF0
7FFFF0
7FFFF0
7FFFF0
7FFFF0
7FFFF8
7FFFF8
7FFFD0
FFC000
C00000
ENDCHAR
STARTCHAR 013A
ENCODING 314
SWIDTH 495 0
DWIDTH 22 0
BBX 21 39 1 -1
BITMAP
001F80
003F80
003F00
007E00
007C00
00F800
001000
000000
03FE00
0FFE00
0FFE00
1FFE00
1FFE00
1FFC00
1FFC00
1FFC00
1FFC00
1FFC00
1FFC00
1FF800
1FF800
3FF800
3FF800
3FF800
3FF800
3FF000
7FF000
7FF000
7FF000
7FFFF0
7FFFF0
7FFFF0
7FFFF0
7FFFF0
7FFFF8
7FFFF8
7FFFD0
FFC000
C00000
ENDCHAR
STARTCHAR 013B
ENCODING 315
SWIDTH 495 0
DWIDTH 22 0
BBX 21 37 1 -7
BITMAP
03FE00
0FFE00
0FFE00
1FFE00
1FFE00
1FFC00
1FFC00
1FFC00
1FFC00
1FFC00
1FFC00
1FF800
1FF800
3FF800
3FF800
3FF800
3FF800
3FF000
7FF000
7FF000
7FF000
7FFFF0
7FFFF0
7FFFF0
7FFFF0
7FFFF0
7FFFF8
7FFFF8
7FFFD0
FFC000
C00000
01F800
01F800
01F800
01F000
03F000
01E000
ENDCHAR
STARTCHAR 013C
ENCODING 316
SWIDTH 495 0
DWIDTH 22 0
BBX 21 37 1 -7
BITMAP
03FE00
0FFE00
0FFE00
1FFE00
1FFE00
1FFC00
1FFC00
1FFC00
1FFC00
1FFC00
1FFC00
1FF800
1FF800
3FF800
3FF800
3FF800
3FF800
3FF000
7FF000
7FF000
7FF000
7FFFF0
7FFFF0
7FFFF0
7FFFF0
7FFFF0
7FFFF8
7FFFF8
7FFFD0
FFC000
C00000
01F800
01F800
01F800
01F000
03F000
01E000
ENDCHAR
STARTCHAR 013D
ENCODING 317
SWIDTH 495 0
DWIDTH 22 0
BBX 21 33 1 -1
BITMAP
000070
0000F8
03FEF8
0FFEF8
0FFEF8
1FFEF8
1FFEF8
1FFCF0
1FFCF0
1FFCE0
1FFC60
1FFC00
1FFC00
1FF800
1FF800
3FF800
3FF800
3FF800
3FF800
3FF000
7FF000
7FF000
7FF000
7FFFF0
7FFFF0
7FFFF0
7FFFF0
7FFFF0
7FFFF8
7FFFF8
7FFFD0
FFC000
C00000
ENDCHAR
STARTCHAR 013E
ENCODING 318
SWIDTH 495 0
DWIDTH 22 0
BBX 21 33 1 -1
BITMAP
000070
0000F8
03FEF8
0FFEF8
0FFEF8
1FFEF8
1FFEF8
1FFCF0
1FFCF0
1FFCE0
1FFC60
1FFC00
1FFC00
1FF800
1FF800
3FF800
3FF800
3FF800
3FF800
3FF000
7FF000
7FF000
7FF000
7FFFF0
7FFFF0
7FFFF0
7FFFF0
7FFFF0
7FFFF8
7FFFF8
7FFFD0
FFC000
C00000
ENDCHAR
STARTCHAR 013F
ENCODING 319
SWIDTH 495 0
DWIDTH 22 0
BBX 21 31 1 -1
BITMAP
03FE00
0FFE00
0FFE00
1FFE00
1FFE00
1FFC00
1FFC00
1FFC00
1FFC00
1FFC00
1FFC00
1FF800
1FF9C0
3FFBE0
3FFBE0
3FFBE0
3FF9C0
3FF000
7FF000
7FF000
7FF000
7FFFF0
7FFFF0
7FFFF0
7FFFF0
7FFFF0
7FFFF8
7FFFF8
7FFFD0
FFC000
C00000
ENDCHAR
STARTCHAR 0140
ENCODING 320
SWIDTH 495 0
DWIDTH 22 0
BBX 21 31 1 -1
BITMAP
03FE00
0FFE00
0FFE00
1FFE00
1FFE00
1FFC00
1FFC00
1FFC00
1FFC00
1FFC00
1FFC00
1FF800
1FF9C0
3FFBE0
3FFBE0
3FFBE0
3FF9C0
3FF000
7FF000
7FF000
7FF000
7FFFF0
7FFFF0
7FFFF0
7FFFF0
7FFFF0
7FFFF8
7FFFF8
7FFFD0
FFC000
C00000
ENDCHAR
STARTCHAR 0141
ENCODING 321
SWIDTH 540 0
DWIDTH 24 0
BBX 23 31 0 -1
BITMAP
00FFC0
03FFC0
03FF80
03FF80
03FF80
03FFBC
07FFFE
07FFFE
07FFFE
07FFFE
07FFF8
07FFF0
07FFE0
07FFC0
07FF00
0FFE00
1FFE00
3FFE00
FFFE00
FFFE00
FFFE00
FFFFFE
7FFFFE
7FFFFE
5FFFFE
1FFFFE
1FFFFE
1FFFFE
1FFFF0
1FF110
300000
ENDCHAR
STARTCHAR 0142
ENCODING 322
SWIDTH 540 0
DWIDTH 24 0
BBX 23 31 0 -1
BITMAP
00FFC0
03FFC0
03FF80
03FF80
03FF80
03FFBC
07FFFE
07FFFE
07FFFE
07FFFE
07FFF8
07FFF0
07FFE0
07FFC0
07FF00
0FFE00
1FFE00
3FFE00
FFFE00
FFFE00
FFFE00
FFFFFE
7FFFFE
7FFFFE
5FFFFE
1FFFFE
1FFFFE
1FFFFE
1FFFF0
1FF110
300000
ENDCHAR
STARTCHAR 0143
ENCODING 323
SWIDTH 562 0
DWIDTH 25 0
BBX 24 38 1 0
BITMAP
0001F8
0003F0
0007E0
0007C0
000F80
000F80
000100
000000
060038
1FE0FE
3FF1FF
3FE1FE
3FE1FE
3FF1FE
3FF1FE
3FF1FE
3FF3FE
7FF1FE
7FF9FE
7FF9FC
7FF9FC
7FF9FC
7FFFFC
7FFFFC
7FFFFC
7FBFFC
7FBFFC
7FBFFC
FF9FFC
FF9FFC
FF9FFC
FF8FFC
FF8FFC
FF8FF8
FF87F8
FF87FC
FF87F8
F00000
ENDCHAR
STARTCHAR 0144
ENCODING 324
SWIDTH 562 0
DWIDTH 25 0
BBX 24 38 1 0
BITMAP
0001F8
0003F0
0007E0
0007C0
000F80
000F80
000100
000000
060038
1FE0FE
3FF1FF
3FE1FE
3FE1FE
3FF1FE
3FF1FE
3FF1FE
3FF3FE
7FF1FE
7FF9FE
7FF9FC
7FF9FC
7FF9FC
7FFFFC
7FFFFC
7FFFFC
7FBFFC
7FBFFC
7FBFFC
FF9FFC
FF9FFC
FF9FFC
FF8FFC
FF8FFC
FF8FF8
FF87F8
FF87FC
FF87F8
F00000
ENDCHAR
STARTCHAR 0145
ENCODING 325
SWIDTH 562 0
DWIDTH 25 0
BBX 24 37 1 -7
BITMAP
060038
1FE0FE
3FF1FF
3FE1FE
3FE1FE
3FF1FE
3FF1FE
3FF1FE
3FF3FE
7FF1FE
7FF9FE
7FF9FC
7FF9FC
7FF9FC
7FFFFC
7FFFFC
7FFFFC
7FBFFC
7FBFFC
7FBFFC
FF9FFC
FF9FFC
FF9FFC
FF8FFC
FF8FFC
FF8FF8
FF87F8
FF87FC
FF87F8
F00000
000000
01F800
01F800
01F800
01F000
03F000
01E000
ENDCHAR
STARTCHAR 0146
ENCODING 326
SWIDTH 562 0
DWIDTH 25 0
BBX 24 37 1 -7
BITMAP
060038
1FE0FE
3FF1FF
3FE1FE
3FE1FE
3FF1FE
3FF1FE
3FF1FE
3FF3FE
7FF1FE
7FF9FE
7FF9FC
7FF9FC
7FF9FC
7FFFFC
7FFFFC
7FFFFC
7FBFFC
7FBFFC
7FBFFC
FF9FFC
FF9FFC
FF9FFC
FF8FFC
FF8FFC
FF8FF8
FF87F8
FF87FC
FF87F8
F00000
000000
01F800
01F800
01F800
01F000
03F000
01E000
ENDCHAR
STARTCHAR 0147
ENCODING 327
SWIDTH 562 0
DWIDTH 25 0
BBX 24 38 1 0
BITMAP
00E0E0
01F1F0
01FFF0
00FFE0
007FC0
001F80
000E00
000000
060038
1FE0FE
3FF1FF
3FE1FE
3FE1FE
3FF1FE
3FF1FE
3FF1FE
3FF3FE
7FF1FE
7FF9FE
7FF9FC
7FF9FC
7FF9FC
7FFFFC
7FFFFC
7FFFFC
7FBFFC
7FBFFC
7FBFFC
FF9FFC
FF9FFC
FF9FFC
FF8FFC
FF8FFC
FF8FF8
FF87F8
FF87FC
FF87F8
F00000
ENDCHAR
STARTCHAR 0148
ENCODING 328
SWIDTH 562 0
DWIDTH 25 0
BBX 24 38 1 0
BITMAP
00E0E0
01F1F0
01FFF0
00FFE0
007FC0
001F80
000E00
000000
060038
1FE0FE
3FF1FF
3FE1FE
3FE1FE
3FF1FE
3FF1FE
3FF1FE
3FF3FE
7FF1FE
7FF9FE
7FF9FC
7FF9FC
7FF9FC
7FFFFC
7FFFFC
7FFFFC
7FBFFC
7FBFFC
7FBFFC
FF9FFC
FF9FFC
FF9FFC
FF8FFC
FF8FFC
FF8FF8
FF87F8
FF87FC
FF87F8
F00000
ENDCHAR
STARTCHAR 0149
ENCODING 329
SWIDTH 630 0
DWIDTH 28 0
BBX 27 32 1 0
BITMAP
7E000000
7E000000
FE300300
FEFF1FC0
FEFF1FE0
FFFF1FE0
FFFF1FC0
FDFF1FC0
FDFF1FC0
FDFF1FC0
FDFF3FC0
F9FF9FC0
F9FF9FC0
FBFF9FC0
73FF9FC0
23FFDF80
03FFFF80
03FFFF80
03FFFF80
03FFFF80
03FFFF80
03FDFF80
03FDFF80
03FDFF80
03FCFF80
03FCFF80
03F8FF80
03F87F80
07F87F80
07F87F80
07F87F00
07800000
ENDCHAR
STARTCHAR 014A
ENCODING 330
SWIDTH 540 0
DWIDTH 24 0
BBX 23 36 1 -5
BITMAP
7C1800
FCFF80
FDFFC0
FFFFE0
FFFFE0
FFFFF0
FFFFF8
FFFFF8
FFFFF8
FFFFFC
FF8FFC
FF03FC
FF03FC
FF03FE
FE01FE
FE01FE
FE01FE
FE01FE
FE01FE
FE01FC
FE01FC
FE01FC
FE01FC
7E01FC
7E01FC
7E01FC
7E01FC
7E01FC
7E01F8
7E03F8
000FF8
007FF8
007FF8
007FE0
007FC0
007F80
ENDCHAR
STARTCHAR 014B
ENCODING 331
SWIDTH 540 0
DWIDTH 24 0
BBX 23 36 1 -5
BITMAP
7C1800
FCFF80
FDFFC0
FFFFE0
FFFFE0
FFFFF0
FFFFF8
FFFFF8
FFFFF8
FFFFFC
FF8FFC
FF03FC
FF03FC
FF03FE
FE01FE
FE01FE
FE01FE
FE01FE
FE01FE
FE01FC
FE01FC
FE01FC
FE01FC
7E01FC
7E01FC
7E01FC
7E01FC
7E01FC
7E01F8
7E03F8
000FF8
007FF8
007FF8
007FE0
007FC0
007F80
ENDCHAR
STARTCHAR 014C
ENCODING 332
SWIDTH 517 0
DWIDTH 23 0
BBX 22 36 1 0
BITMAP
7FFC00
7FFC00
7FFC00
7FFC00
000000
03C000
07F000
07FC00
0FFE00
0FFF80
1FFF80
1FFFC0
3FFFE0
3FFFE0
7FFFF0
7FFFF8
7FFFF8
FF87F8
FF07FC
FF03FC
FF03FC
FF03FC
FF07FC
FF87FC
FFEFFC
FFFFFC
7FFFFC
7FFFF8
7FFFF8
3FFFF8
3FFFF8
1FFFF0
1FFFF0
0FFFE0
03FFC0
00FF00
ENDCHAR
STARTCHAR 014D
ENCODING 333
SWIDTH 517 0
DWIDTH 23 0
BBX 22 36 1 0
BITMAP
7FFC00
7FFC00
7FFC00
7FFC00
000000
03C000
07F000
07FC00
0FFE00
0FFF80
1FFF80
1FFFC0
3FFFE0
3FFFE0
7FFFF0
7FFFF8
7FFFF8
FF87F8
FF07FC
FF03FC
FF03FC
FF03FC
FF07FC
FF87FC
FFEFFC
FFFFFC
7FFFFC
7FFFF8
7FFFF8
3FFFF8
3FFFF8
1FFFF0
1FFFF0
0FFFE0
03FFC0
00FF00
ENDCHAR
STARTCHAR 014E
ENCODING 334
SWIDTH 517 0
DWIDTH 23 0
BBX 22 38 1 0
BITMAP
783C00
7C7C00
3FFC00
3FF800
1FF000
0FE000
000000
03C000
07F000
07FC00
0FFE00
0FFF80
1FFF80
1FFFC0
3FFFE0
3FFFE0
7FFFF0
7FFFF8
7FFFF8
FF87F8
FF07FC
FF03FC
FF03FC
FF03FC
FF07FC
FF87FC
FFEFFC
FFFFFC
7FFFFC
7FFFF8
7FFFF8
3FFFF8
3FFFF8
1FFFF0
1FFFF0
0FFFE0
03FFC0
00FF00
ENDCHAR
STARTCHAR 014F
ENCODING 335
SWIDTH 517 0
DWIDTH 23 0
BBX 22 38 1 0
BITMAP
783C00
7C7C00
3FFC00
3FF800
1FF000
0FE000
000000
03C000
07F000
07FC00
0FFE00
0FFF80
1FFF80
1FFFC0
3FFFE0
3FFFE0
7FFFF0
7FFFF8
7FFFF8
FF87F8
FF07FC
FF03FC
FF03FC
FF03FC
FF07FC
FF87FC
FFEFFC
FFFFFC
7FFFFC
7FFFF8
7FFFF8
3FFFF8
3FFFF8
1FFFF0
1FFFF0
0FFFE0
03FFC0
00FF00
ENDCHAR
STARTCHAR 0150
ENCODING 336
SWIDTH 517 0
DWIDTH 23 0
BBX 22 38 1 0
BITMAP
0FEFE0
0FCFC0
1F9F80
1F3F00
3E3E00
3C3C00
040000
03C000
07F000
07FC00
0FFE00
0FFF80
1FFF80
1FFFC0
3FFFE0
3FFFE0
7FFFF0
7FFFF8
7FFFF8
FF87F8
FF07FC
FF03FC
FF03FC
FF03FC
FF07FC
FF87FC
FFEFFC
FFFFFC
7FFFFC
7FFFF8
7FFFF8
3FFFF8
3FFFF8
1FFFF0
1FFFF0
0FFFE0
03FFC0
00FF00
ENDCHAR
STARTCHAR 0151
ENCODING 337
SWIDTH 517 0
DWIDTH 23 0
BBX 22 38 1 0
BITMAP
0FEFE0
0FCFC0
1F9F80
1F3F00
3E3E00
3C3C00
040000
03C000
07F000
07FC00
0FFE00
0FFF80
1FFF80
1FFFC0
3FFFE0
3FFFE0
7FFFF0
7FFFF8
7FFFF8
FF87F8
FF07FC
FF03FC
FF03FC
FF03FC
FF07FC
FF87FC
FFEFFC
FFFFFC
7FFFFC
7FFFF8
7FFFF8
3FFFF8
3FFFF8
1FFFF0
1FFFF0
0FFFE0
03FFC0
00FF00
ENDCHAR
STARTCHAR 0152
ENCODING 338
SWIDTH 720 0
DWIDTH 32 0
BBX 31 32 1 -1
BITMAP
0006FE00
001FFFE0
007FFFE0
01FFFFC0
03FFFFC0
07FFFFC0
0FFFFFC0
1FFFFFC0
1FFFFFC0
3FFFFF80
3FFFF000
7FFFF000
7F87F000
FF87FFC0
FF03FF80
FF03FF80
FF03FFC0
FF03FF40
FF87F800
FFCFF808
FFFFFFFC
FFFFFFFC
FFFFFFFC
7FFFFFFC
7FFFFFFE
7FFFFFFE
7FFFFFFE
3FFFFFFE
3FFFFFF8
0FFFFF80
07FEF000
01F00000
ENDCHAR
STARTCHAR 0153
ENCODING 339
SWIDTH 720 0
DWIDTH 32 0
BBX 31 32 1 -1
BITMAP
0006FE00
001FFFE0
007FFFE0
01FFFFC0
03FFFFC0
07FFFFC0
0FFFFFC0
1FFFFFC0
1FFFFFC0
3FFFFF80
3FFFF000
7FFFF000
7F87F000
FF87FFC0
FF03FF80
FF03FF80
FF03FFC0
FF03FF40
FF87F800
FFCFF808
FFFFFFFC
FFFFFFFC
FFFFFFFC
7FFFFFFC
7FFFFFFE
7FFFFFFE
7FFFFFFE
3FFFFFFE
3FFFFFF8
0FFFFF80
07FEF000
01F00000
ENDCHAR
STARTCHAR 0154
ENCODING 340
SWIDTH 585 0
DWIDTH 26 0
BBX 24 39 1 -1
BITMAP
01F800
03F000
03E000
07C000
0FC000
0F8000
010000
006000
07FC00
7FFF00
FFFFC0
FFFFE0
FFEFF0
FFC1F0
FFC1F0
FFC0F8
FFC0F8
FFC1F8
FFE1F8
FFF3F0
FFFFF0
7FFFF0
7FFFE0
7FFF80
7FFF80
7FFFC0
7FFFC0
7FFFE0
7FF7F0
7FF7F0
7FF3F8
7FF3F8
7FF1FC
7FF1FE
7FF0FE
3FF0FF
3FF07F
3FF07C
1F8000
ENDCHAR
STARTCHAR 0155
ENCODING 341
SWIDTH 585 0
DWIDTH 26 0
BBX 24 39 1 -1
BITMAP
01F800
03F000
03E000
07C000
0FC000
0F8000
010000
006000
07FC00
7FFF00
FFFFC0
FFFFE0
FFEFF0
FFC1F0
FFC1F0
FFC0F8
FFC0F8
FFC1F8
FFE1F8
FFF3F0
FFFFF0
7FFFF0
7FFFE0
7FFF80
7FFF80
7FFFC0
7FFFC0
7FFFE0
7FF7F0
7FF7F0
7FF3F8
7FF3F8
7FF1FC
7FF1FE
7FF0FE
3FF0FF
3FF07F
3FF07C
1F8000
ENDCHAR
STARTCHAR 0156
ENCODING 342
SWIDTH 585 0
DWIDTH 26 0
BBX 24 38 1 -7
BITMAP
006000
07FC00
7FFF00
FFFFC0
FFFFE0
FFEFF0
FFC1F0
FFC1F0
FFC0F8
FFC0F8
FFC1F8
FFE1F8
FFF3F0
FFFFF0
7FFFF0
7FFFE0
7FFF80
7FFF80
7FFFC0
7FFFC0
7FFFE0
7FF7F0
7FF7F0
7FF3F8
7FF3F8
7FF1FC
7FF1FE
7FF0FE
3FF0FF
3FF07F
3FF07C
1F8000
001F80
001F80
001F80
003F00
003F00
001E00
ENDCHAR
STARTCHAR 0157
ENCODING 343
SWIDTH 585 0
DWIDTH 26 0
BBX 24 38 1 -7
BITMAP
006000
07FC00
7FFF00
FFFFC0
FFFFE0
FFEFF0
FFC1F0
FFC1F0
FFC0F8
FFC0F8
FFC1F8
FFE1F8
FFF3F0
FFFFF0
7FFFF0
7FFFE0
7FFF80
7FFF80
7FFFC0
7FFFC0
7FFFE0
7FF7F0
7FF7F0
7FF3F8
7FF3F8
7FF1FC
7FF1FE
7FF0FE
3FF0FF
3FF07F
3FF07C
1F8000
001F80
001F80
001F80
003F00
003F00
001E00
ENDCHAR
STARTCHAR 0158
ENCODING 344
SWIDTH 585 0
DWIDTH 26 0
BBX 24 40 1 -1
BITMAP
003000
70F800
F9F800
FFF000
7FE000
3FC000
0F8000
020000
006000
07FC00
7FFF00
FFFFC0
FFFFE0
FFEFF0
FFC1F0
FFC1F0
FFC0F8
FFC0F8
FFC1F8
FFE1F8
FFF3F0
FFFFF0
7FFFF0
7FFFE0
7FFF80
7FFF80
7FFFC0
7FFFC0
7FFFE0
7FF7F0
7FF7F0
7FF3F8
7FF3F8
7FF1FC
7FF1FE
7FF0FE
3FF0FF
3FF07F
3FF07C
1F8000
ENDCHAR
STARTCHAR 0159
ENCODING 345
SWIDTH 585 0
DWIDTH 26 0
BBX 24 40 1 -1
BITMAP
003000
70F800
F9F800
FFF000
7FE000
3FC000
0F8000
020000
006000
07FC00
7FFF00
FFFFC0
FFFFE0
FFEFF0
FFC1F0
FFC1F0
FFC0F8
FFC0F8
FFC1F8
FFE1F8
FFF3F0
FFFFF0
7FFFF0
7FFFE0
7FFF80
7FFF80
7FFFC0
7FFFC0
7FFFE0
7FF7F0
7FF7F0
7FF3F8
7FF3F8
7FF1FC
7FF1FE
7FF0FE
3FF0FF
3FF07F
3FF07C
1F8000
ENDCHAR
STARTCHAR 015A
ENCODING 346
SWIDTH 495 0
DWIDTH 22 0
BBX 21 38 1 0
BITMAP
000FC0
001FC0
001F80
003F00
003E00
007C00
000000
003E00
03FFF8
0FFFF0
1FFFF0
1FFFE0
1FFFE0
3FFFE0
3FFFC0
3FFFC0
7FFF80
7FFF80
7FFF00
7F8180
3FC000
3FF000
1FFE00
1FFF80
0FFFC0
00FFE0
003FE0
000FE0
000FF0
701FF0
FFFFF0
FFFFF0
FFFFE0
FFFFE0
FFFFE0
7FFF80
1FFE00
0FFC00
ENDCHAR
STARTCHAR 015B
ENCODING 347
SWIDTH 495 0
DWIDTH 22 0
BBX 21 38 1 0
BITMAP
000FC0
001FC0
001F80
003F00
003E00
007C00
000000
003E00
03FFF8
0FFFF0
1FFFF0
1FFFE0
1FFFE0
3FFFE0
3FFFC0
3FFFC0
7FFF80
7FFF80
7FFF00
7F8180
3FC000
3FF000
1FFE00
1FFF80
0FFFC0
00FFE0
003FE0
000FE0
000FF0
701FF0
FFFFF0
FFFFF0
FFFFE0
FFFFE0
FFFFE0
7FFF80
1FFE00
0FFC00
ENDCHAR
STARTCHAR 015C
ENCODING 348
SWIDTH 495 0
DWIDTH 22 0
BBX 21 38 1 0
BITMAP
003C00
00FE00
01FF00
03FF80
07E7C0
07C3C0
000100
003E00
03FFF8
0FFFF0
1FFFF0
1FFFE0
1FFFE0
3FFFE0
3FFFC0
3FFFC0
7FFF80
7FFF80
7FFF00
7F8180
3FC000
3FF000
1FFE00
1FFF80
0FFFC0
00FFE0
003FE0
000FE0
000FF0
701FF0
FFFFF0
FFFFF0
FFFFE0
FFFFE0
FFFFE0
7FFF80
1FFE00
0FFC00
ENDCHAR
STARTCHAR 015D
ENCODING 349
SWIDTH 495 0
DWIDTH 22 0
BBX 21 38 1 0
BITMAP
003C00
00FE00
01FF00
03FF80
07E7C0
07C3C0
000100
003E00
03FFF8
0FFFF0
1FFFF0
1FFFE0
1FFFE0
3FFFE0
3FFFC0
3FFFC0
7FFF80
7FFF80
7FFF00
7F8180
3FC000
3FF000
1FFE00
1FFF80
0FFFC0
00FFE0
003FE0
000FE0
000FF0
701FF0
FFFFF0
FFFFF0
FFFFE0
FFFFE0
FFFFE0
7FFF80
1FFE00
0FFC00
ENDCHAR
STARTCHAR 015E
ENCODING 350
SWIDTH 495 0
DWIDTH 22 0
BBX 21 38 1 -7
BITMAP
003E00
03FFF8
0FFFF0
1FFFF0
1FFFE0
1FFFE0
3FFFE0
3FFFC0
3FFFC0
7FFF80
7FFF80
7FFF00
7F8180
3FC000
3FF000
1FFE00
1FFF80
0FFFC0
00FFE0
003FE0
000FE0
000FF0
701FF0
FFFFF0
FFFFF0
FFFFE0
FFFFE0
FFFFE0
7FFF80
3FFE00
0FFC00
01F000
01F800
007E00
083E00
1FFE00
1FFE00
0FFC00
ENDCHAR
STARTCHAR 015F
ENCODING 351
SWIDTH 495 0
DWIDTH 22 0
BBX 21 38 1 -7
BITMAP
003E00
03FFF8
0FFFF0
1FFFF0
1FFFE0
1FFFE0
3FFFE0
3FFFC0
3FFFC0
7FFF80
7FFF80
7FFF00
7F8180
3FC000
3FF000
1FFE00
1FFF80
0FFFC0
00FFE0
003FE0
000FE0
000FF0
701FF0
FFFFF0
FFFFF0
FFFFE0
FFFFE0
FFFFE0
7FFF80
3FFE00
0FFC00
01F000
01F800
007E00
083E00
1FFE00
1FFE00
0FFC00
ENDCHAR
STARTCHAR 0160
ENCODING 352
SWIDTH 495 0
DWIDTH 22 0
BBX 21 38 1 0
BITMAP
0787C0
07CFC0
03FFC0
01FF80
00FE00
007C00
003000
003E00
03FFF8
0FFFF0
1FFFF0
1FFFE0
1FFFE0
3FFFE0
3FFFC0
3FFFC0
7FFF80
7FFF80
7FFF00
7F8180
3FC000
3FF000
1FFE00
1FFF80
0FFFC0
00FFE0
003FE0
000FE0
000FF0
701FF0
FFFFF0
FFFFF0
FFFFE0
FFFFE0
FFFFE0
7FFF80
1FFE00
0FFC00
ENDCHAR
STARTCHAR 0161
ENCODING 353
SWIDTH 495 0
DWIDTH 22 0
BBX 21 38 1 0
BITMAP
0787C0
07CFC0
03FFC0
01FF80
00FE00
007C00
003000
003E00
03FFF8
0FFFF0
1FFFF0
1FFFE0
1FFFE0
3FFFE0
3FFFC0
3FFFC0
7FFF80
7FFF80
7FFF00
7F8180
3FC000
3FF000
1FFE00
1FFF80
0FFFC0
00FFE0
003FE0
000FE0
000FF0
701FF0
FFFFF0
FFFFF0
FFFFE0
FFFFE0
FFFFE0
7FFF80
1FFE00
0FFC00
ENDCHAR
STARTCHAR 0162
ENCODING 354
SWIDTH 562 0
DWIDTH 25 0
BBX 24 37 1 -7
BITMAP
1FFFF8
FFFFFE
FFFFFE
FFFFFE
FFFFFF
FFFFFF
FFFFFF
FFFFFF
FFFFE0
FC7F80
C07F00
007F00
007F00
007F00
007E00
007E00
007E00
007F00
007E00
007E00
007E00
007E00
007E00
007E00
007F00
007E00
007E00
00FE00
007E00
007E00
003E00
001F80
000FC0
0007E0
01FFE0
03FFC0
00FFC0
ENDCHAR
STARTCHAR 0163
ENCODING 355
SWIDTH 562 0
DWIDTH 25 0
BBX 24 37 1 -7
BITMAP
1FFFF8
FFFFFE
FFFFFE
FFFFFE
FFFFFF
FFFFFF
FFFFFF
FFFFFF
FFFFE0
FC7F80
C07F00
007F00
007F00
007F00
007E00
007E00
007E00
007F00
007E00
007E00
007E00
007E00
007E00
007E00
007F00
007E00
007E00
00FE00
007E00
007E00
003E00
001F80
000FC0
0007E0
01FFE0
03FFC0
00FFC0
ENDCHAR
STARTCHAR 0164
ENCODING 356
SWIDTH 562 0
DWIDTH 25 0
BBX 24 38 1 0
BITMAP
03C3E0
07E7E0
03FFC0
01FF80
00FF00
003E00
000800
000000
1FFFF8
FFFFFE
FFFFFE
FFFFFE
FFFFFF
FFFFFF
FFFFFF
FFFFFF
FFFFE0
FC7F80
C07F00
007F00
007F00
007F00
007E00
007E00
007E00
007F00
007E00
007E00
007E00
007E00
007E00
007E00
007F00
007E00
007E00
00FE00
007E00
007E00
ENDCHAR
STARTCHAR 0165
ENCODING 357
SWIDTH 562 0
DWIDTH 25 0
BBX 24 38 1 0
BITMAP
03C3E0
07E7E0
03FFC0
01FF80
00FF00
003E00
000800
000000
1FFFF8
FFFFFE
FFFFFE
FFFFFE
FFFFFF
FFFFFF
FFFFFF
FFFFFF
FFFFE0
FC7F80
C07F00
007F00
007F00
007F00
007E00
007E00
007E00
007F00
007E00
007E00
007E00
007E00
007E00
007E00
007F00
007E00
007E00
00FE00
007E00
007E00
ENDCHAR
STARTCHAR 0166
ENCODING 358
SWIDTH 562 0
DWIDTH 25 0
BBX 24 30 1 0
BITMAP
1FFFF8
FFFFFE
FFFFFE
FFFFFE
FFFFFF
FFFFFF
FFFFFF
FFFFFF
FFFFE0
FC7F80
C07F00
007F00
007F00
007FF8
1FFFFC
1FFFFC
1FFFFC
1FFFFC
1FFFFC
007E00
007E00
007E00
007E00
007E00
007F00
007E00
007E00
00FE00
007E00
007E00
ENDCHAR
STARTCHAR 0167
ENCODING 359
SWIDTH 562 0
DWIDTH 25 0
BBX 24 30 1 0
BITMAP
1FFFF8
FFFFFE
FFFFFE
FFFFFE
FFFFFF
FFFFFF
FFFFFF
FFFFFF
FFFFE0
FC7F80
C07F00
007F00
007F00
007FF8
1FFFFC
1FFFFC
1FFFFC
1FFFFC
1FFFFC
007E00
007E00
007E00
007E00
007E00
007F00
007E00
007E00
00FE00
007E00
007E00
ENDCHAR
STARTCHAR 0168
ENCODING 360
SWIDTH 540 0
DWIDTH 24 0
BBX 23 37 1 1
BITMAP
0071F0
00F9F0
01FFF0
01FFF0
01FFE0
01EFC0
01C000
000000
1F80FC
3F81FE
3F81FE
3F00FC
7F00FC
7F00FC
7F00FC
7F01FC
7F01FC
FF01FC
FF01FC
FF01FC
FF01FE
FF01FE
FF83FE
FF83FE
FFC3FC
FFFFFC
FFFFFC
FFFFF8
FFFFF8
7FFFF8
7FFFF0
3FFFF0
3FFFE0
1FFFC0
1FFF80
07FF00
01FE00
ENDCHAR
STARTCHAR 0169
ENCODING 361
SWIDTH 540 0
DWIDTH 24 0
BBX 23 37 1 1
BITMAP
0071F0
00F9F0
01FFF0
01FFF0
01FFE0
01EFC0
01C000
000000
1F80FC
3F81FE
3F81FE
3F00FC
7F00FC
7F00FC
7F00FC
7F01FC
7F01FC
FF01FC
FF01FC
FF01FC
FF01FE
FF01FE
FF83FE
FF83FE
FFC3FC
FFFFFC
FFFFFC
FFFFF8
FFFFF8
7FFFF8
7FFFF0
3FFFF0
3FFFE0
1FFFC0
1FFF80
07FF00
01FE00
ENDCHAR
STARTCHAR 016A
ENCODING 362
SWIDTH 540 0
DWIDTH 24 0
BBX 23 35 1 1
BITMAP
03FFE0
03FFE0
03FFE0
03FFE0
000000
000000
1F80FC
3F81FE
3F81FE
3F00FC
7F00FC
7F00FC
7F00FC
7F01FC
7F01FC
FF01FC
FF01FC
FF01FC
FF01FE
FF01FE
FF83FE
FF83FE
FFC3FC
FFFFFC
FFFFFC
FFFFF8
FFFFF8
7FFFF8
7FFFF0
3FFFF0
3FFFE0
1FFFC0
1FFF80
07FF00
01FE00
ENDCHAR
STARTCHAR 016B
ENCODING 363
SWIDTH 540 0
DWIDTH 24 0
BBX 23 35 1 1
BITMAP
03FFE0
03FFE0
03FFE0
03FFE0
000000
000000
1F80FC
3F81FE
3F81FE
3F00FC
7F00FC
7F00FC
7F00FC
7F01FC
7F01FC
FF01FC
FF01FC
FF01FC
FF01FE
FF01FE
FF83FE
FF83FE
FFC3FC
FFFFFC
FFFFFC
FFFFF8
FFFFF8
7FFFF8
7FFFF0
3FFFF0
3FFFE0
1FFFC0
1FFF80
07FF00
01FE00
ENDCHAR
STARTCHAR 016C
ENCODING 364
SWIDTH 540 0
DWIDTH 24 0
BBX 23 37 1 1
BITMAP
01E0F0
01F0F0
01FFE0
00FFE0
007FC0
003F80
000600
000000
1F80FC
3F81FE
3F81FE
3F00FC
7F00FC
7F00FC
7F00FC
7F01FC
7F01FC
FF01FC
FF01FC
FF01FC
FF01FE
FF01FE
FF83FE
FF83FE
FFC3FC
FFFFFC
FFFFFC
FFFFF8
FFFFF8
7FFFF8
7FFFF0
3FFFF0
3FFFE0
1FFFC0
1FFF80
07FF00
01FE00
ENDCHAR
STARTCHAR 016D
ENCODING 365
SWIDTH 540 0
DWIDTH 24 0
BBX 23 37 1 1
BITMAP
01E0F0
01F0F0
01FFE0
00FFE0
007FC0
003F80
000600
000000
1F80FC
3F81FE
3F81FE
3F00FC
7F00FC
7F00FC
7F00FC
7F01FC
7F01FC
FF01FC
FF01FC
FF01FC
FF01FE
FF01FE
FF83FE
FF83FE
FFC3FC
FFFFFC
FFFFFC
FFFFF8
FFFFF8
7FFFF8
7FFFF0
3FFFF0
3FFFE0
1FFFC0
1FFF80
07FF00
01FE00
ENDCHAR
STARTCHAR 016E
ENCODING 366
SWIDTH 540 0
DWIDTH 24 0
BBX 23 40 1 1
BITMAP
000C00
007F00
00FFC0
01F7E0
03E3E0
03C1E0
03E1E0
03E3E0
01FFC0
00FF80
003E00
1F80FC
3F81FE
3F81FE
3F00FC
7F00FC
7F00FC
7F00FC
7F01FC
7F01FC
FF01FC
FF01FC
FF01FC
FF01FE
FF01FE
FF83FE
FF83FE
FFC3FC
FFFFFC
FFFFFC
FFFFF8
FFFFF8
7FFFF8
7FFFF0
3FFFF0
3FFFE0
1FFFC0
1FFF80
07FF00
01FE00
ENDCHAR
STARTCHAR 016F
ENCODING 367
SWIDTH 540 0
DWIDTH 24 0
BBX 23 40 1 1
BITMAP
000C00
007F00
00FFC0
01F7E0
03E3E0
03C1E0
03E1E0
03E3E0
01FFC0
00FF80
003E00
1F80FC
3F81FE
3F81FE
3F00FC
7F00FC
7F00FC
7F00FC
7F01FC
7F01FC
FF01FC
FF01FC
FF01FC
FF01FE
FF01FE
FF83FE
FF83FE
FFC3FC
FFFFFC
FFFFFC
FFFFF8
FFFFF8
7FFFF8
7FFFF0
3FFFF0
3FFFE0
1FFFC0
1FFF80
07FF00
01FE00
ENDCHAR
STARTCHAR 0170
ENCODING 368
SWIDTH 540 0
DWIDTH 24 0
BBX 23 37 1 1
BITMAP
007F7E
007E7E
00FCFC
00F9F8
01F1F0
01E1E0
002000
000000
1F80FC
3F81FE
3F81FE
3F00FC
7F00FC
7F00FC
7F00FC
7F01FC
7F01FC
FF01FC
FF01FC
FF01FC
FF01FE
FF01FE
FF83FE
FF83FE
FFC3FC
FFFFFC
FFFFFC
FFFFF8
FFFFF8
7FFFF8
7FFFF0
3FFFF0
3FFFE0
1FFFC0
1FFF80
07FF00
01FE00
ENDCHAR
STARTCHAR 0171
ENCODING 369
SWIDTH 540 0
DWIDTH 24 0
BBX 23 37 1 1
BITMAP
007F7E
007E7E
00FCFC
00F9F8
01F1F0
01E1E0
002000
000000
1F80FC
3F81FE
3F81FE
3F00FC
7F00FC
7F00FC
7F00FC
7F01FC
7F01FC
FF01FC
FF01FC
FF01FC
FF01FE
FF01FE
FF83FE
FF83FE
FFC3FC
FFFFFC
FFFFFC
FFFFF8
FFFFF8
7FFFF8
7FFFF0
3FFFF0
3FFFE0
1FFFC0
1FFF80
07FF00
01FE00
ENDCHAR
STARTCHAR 0172
ENCODING 370
SWIDTH 540 0
DWIDTH 24 0
BBX 23 37 1 -6
BITMAP
1F80FC
3F81FE
3F81FE
3F00FC
7F00FC
7F00FC
7F00FC
7F01FC
7F01FC
FF01FC
FF01FC
FF01FC
FF01FE
FF01FE
FF83FE
FF83FE
FFC3FC
FFFFFC
FFFFFC
FFFFF8
FFFFF8
7FFFF8
7FFFF0
3FFFF0
3FFFE0
1FFFC0
1FFF80
07FF00
01FE00
00E000
01E000
01E000
03E000
03E180
03FFC0
03FFC0
01FF80
ENDCHAR
STARTCHAR 0173
ENCODING 371
SWIDTH 540 0
DWIDTH 24 0
BBX 23 37 1 -6
BITMAP
1F80FC
3F81FE
3F81FE
3F00FC
7F00FC
7F00FC
7F00FC
7F01FC
7F01FC
FF01FC
FF01FC
FF01FC
FF01FE
FF01FE
FF83FE
FF83FE
FFC3FC
FFFFFC
FFFFFC
FFFFF8
FFFFF8
7FFFF8
7FFFF0
3FFFF0
3FFFE0
1FFFC0
1FFF80
07FF00
01FE00
00E000
01E000
01E000
03E000
03E180
03FFC0
03FFC0
01FF80
ENDCHAR
STARTCHAR 0174
ENCODING 372
SWIDTH 720 0
DWIDTH 32 0
BBX 31 39 1 0
BITMAP
00030000
000F8000
001FE000
003FF000
007FF800
00FCF800
00F83000
00200000
00000080
7C0001F4
FF0381FE
FF0383FC
FF83C3FC
FF83C3F8
FF83C7F8
FFC3C7F8
7FC3E7F8
7FE3EFF0
7FE7EFF0
3FF7FFF0
3FF7FFF0
3FFFFFF0
1FFFFFF0
1FFFFFF0
0FFFFFE0
0FFFFFE0
07FFFFE0
07FF7FE0
03FF7FE0
03FF3FC0
01FE3FC0
01FE3FC0
00FC1FC0
00FC1FC0
007C1FC0
007C0FC0
00380F80
00180000
00180000
ENDCHAR
STARTCHAR 0175
ENCODING 373
SWIDTH 720 0
DWIDTH 32 0
BBX 31 39 1 0
BITMAP
00030000
000F8000
001FE000
003FF000
007FF800
00FCF800
00F83000
00200000
00000080
7C0001F4
FF0381FE
FF0383FC
FF83C3FC
FF83C3F8
FF83C7F8
FFC3C7F8
7FC3E7F8
7FE3EFF0
7FE7EFF0
3FF7FFF0
3FF7FFF0
3FFFFFF0
1FFFFFF0
1FFFFFF0
0FFFFFE0
0FFFFFE0
07FFFFE0
07FF7FE0
03FF7FE0
03FF3FC0
01FE3FC0
01FE3FC0
00FC1FC0
00FC1FC0
007C1FC0
007C0FC0
00380F80
00180000
00180000
ENDCHAR
STARTCHAR 0176
ENCODING 374
SWIDTH 607 0
DWIDTH 27 0
BBX 26 39 1 0
BITMAP
00180000
003E0000
00FF0000
01FFC000
01FFE000
03F3E000
03E18000
01000000
00000000
00003FC0
0E003F80
FF007F00
FF007F00
FF80FF00
7F80FE00
7FC1FE00
3FC1FC00
3FE3FC00
1FE3F800
1FF7F800
0FF7F000
0FFFF000
07FFE000
07FFE000
03FFC000
03FFC000
01FF8000
01FF8000
00FF0000
00FF0000
007F0000
007F0000
007F0000
007F0000
007F0000
007F8000
007F8000
007F8000
003F0000
ENDCHAR
STARTCHAR 0177
ENCODING 375
SWIDTH 607 0
DWIDTH 27 0
BBX 26 39 1 0
BITMAP
00180000
003E0000
00FF0000
01FFC000
01FFE000
03F3E000
03E18000
01000000
00000000
00003FC0
0E003F80
FF007F00
FF007F00
FF80FF00
7F80FE00
7FC1FE00
3FC1FC00
3FE3FC00
1FE3F800
1FF7F800
0FF7F000
0FFFF000
07FFE000
07FFE000
03FFC000
03FFC000
01FF8000
01FF8000
00FF0000
00FF0000
007F0000
007F0000
007F0000
007F0000
007F0000
007F8000
007F8000
007F8000
003F0000
ENDCHAR
STARTCHAR 0178
ENCODING 376
SWIDTH 607 0
DWIDTH 27 0
BBX 26 36 1 0
BITMAP
00C1C000
01E3E000
01E3E000
01E3C000
00E08000
00000000
00003FC0
0E003F80
FF007F00
FF007F00
FF80FF00
7F80FE00
7FC1FE00
3FC1FC00
3FE3FC00
1FE3F800
1FF7F800
0FF7F000
0FFFF000
07FFE000
07FFE000
03FFC000
03FFC000
01FF8000
01FF8000
00FF0000
00FF0000
007F0000
007F0000
007F0000
007F0000
007F0000
007F8000
007F8000
007F8000
003F0000
ENDCHAR
STARTCHAR 0179
ENCODING 377
SWIDTH 585 0
DWIDTH 26 0
BBX 25 38 1 0
BITMAP
001FC000
001F8000
003F0000
003E0000
007C0000
00780000
00080000
001E0000
03FFF800
3FFFF800
7FFFF000
7FFFE000
FFFFE000
FFFFC000
FFFFC000
FE3F8000
003F8000
003F0000
007F0000
007E0000
00FE0000
00FE0000
00FE0000
01FC0000
01FC0000
01FC0000
03FC0000
03FC0000
03F80000
07F00000
07FFFF80
07FFFF80
0FFFFF80
0FFFFF00
0FFFFF00
09FFFE00
003FF800
0003C000
ENDCHAR
STARTCHAR 017A
ENCODING 378
SWIDTH 585 0
DWIDTH 26 0
BBX 25 38 1 0
BITMAP
001FC000
001F8000
003F0000
003E0000
007C0000
00780000
00080000
001E0000
03FFF800
3FFFF800
7FFFF000
7FFFE000
FFFFE000
FFFFC000
FFFFC000
FE3F8000
003F8000
003F0000
007F0000
007E0000
00FE0000
00FE0000
00FE0000
01FC0000
01FC0000
01FC0000
03FC0000
03FC0000
03F80000
07F00000
07FFFF80
07FFFF80
0FFFFF80
0FFFFF00
0FFFFF00
09FFFE00
003FF800
0003C000
ENDCHAR
STARTCHAR 017B
ENCODING 379
SWIDTH 585 0
DWIDTH 26 0
BBX 25 36 1 0
BITMAP
00700000
00F80000
00F80000
00F00000
00300000
001E0000
03FFF800
3FFFF800
7FFFF000
7FFFE000
FFFFE000
FFFFC000
FFFFC000
FE3F8000
003F8000
003F0000
007F0000
007E0000
00FE0000
00FE0000
00FE0000
01FC0000
01FC0000
01FC0000
03FC0000
03FC0000
03F80000
07F00000
07FFFF80
07FFFF80
0FFFFF80
0FFFFF00
0FFFFF00
09FFFE00
003FF800
0003C000
ENDCHAR
STARTCHAR 017C
ENCODING 380
SWIDTH 585 0
DWIDTH 26 0
BBX 25 36 1 0
BITMAP
00700000
00F80000
00F80000
00F00000
00300000
001E0000
03FFF800
3FFFF800
7FFFF000
7FFFE000
FFFFE000
FFFFC000
FFFFC000
FE3F8000
003F8000
003F0000
007F0000
007E0000
00FE0000
00FE0000
00FE0000
01FC0000
01FC0000
01FC0000
03FC0000
03FC0000
03F80000
07F00000
07FFFF80
07FFFF80
0FFFFF80
0FFFFF00
0FFFFF00
09FFFE00
003FF800
0003C000
ENDCHAR
STARTCHAR 017D
ENCODING 381
SWIDTH 585 0
DWIDTH 26 0
BBX 25 38 1 0
BITMAP
0F878000
0FCFC000
07FF8000
03FF0000
01FE0000
00780000
00200000
001E0000
03FFF800
3FFFF800
7FFFF000
7FFFE000
FFFFE000
FFFFC000
FFFFC000
FE3F8000
003F8000
003F0000
007F0000
007E0000
00FE0000
00FE0000
00FE0000
01FC0000
01FC0000
01FC0000
03FC0000
03FC0000
03F80000
07F00000
07FFFF80
07FFFF80
0FFFFF80
0FFFFF00
0FFFFF00
09FFFE00
003FF800
0003C000
ENDCHAR
STARTCHAR 017E
ENCODING 382
SWIDTH 585 0
DWIDTH 26 0
BBX 25 38 1 0
BITMAP
0F878000
0FCFC000
07FF8000
03FF0000
01FE0000
00780000
00200000
001E0000
03FFF800
3FFFF800
7FFFF000
7FFFE000
FFFFE000
FFFFC000
FFFFC000
FE3F8000
003F8000
003F0000
007F0000
007E0000
00FE0000
00FE0000
00FE0000
01FC0000
01FC0000
01FC0000
03FC0000
03FC0000
03F80000
07F00000
07FFFF80
07FFFF80
0FFFFF80
0FFFFF00
0FFFFF00
09FFFE00
003FF800
0003C000
ENDCHAR
STARTCHAR 017F
ENCODING 383
SWIDTH 427 0
DWIDTH 19 0
BBX 18 37 1 -6
BITMAP
03F000
0FFF00
1FFF80
3FFF80
7FFF80
FFFFC0
FF0FC0
FF0780
FE0000
FE0000
FE0000
FE0000
FE0000
FE0000
FE0000
FF0000
7F0000
7F0000
7F0000
7F0000
7F0000
7F0000
7F0000
7F0000
7F0000
7F0000
7F0000
7F0000
7F0000
7F0000
7F0000
7F0000
7F0000
7F0000
7F0000
3F0000
3F0000
ENDCHAR
STARTCHAR 0180
ENCODING 384
SWIDTH 517 0
DWIDTH 23 0
BBX 21 31 1 0
BITMAP
0C0000
7FF800
FFFE00
FFFF00
FFFF00
FFFF80
FFFF80
FF3FC0
FF0FC0
7F0FC0
7F0F80
7F0F80
7F9F80
7FFF00
7FFE00
7FFF80
3FFFE0
3FFFE0
3FFFF0
3FD3F8
7FF3F8
FFFBF8
FFFBF8
FFFBF8
FFEFF8
1FFFF8
1FFFF0
1FFFE0
1FFFC0
1FFE00
030000
ENDCHAR
STARTCHAR 0181
ENCODING 385
SWIDTH 675 0
DWIDTH 30 0
BBX 28 31 1 0
BITMAP
00180000
07FFF000
1FFFFC00
3FFFFE00
7FFFFE00
7FFFFF00
7FFFFF00
FFFE7F80
FFFE1F80
FCFE1F80
F8FE1F00
F8FE1F00
F8FF3F00
F8FFFE00
7EFFFC00
7EFFFF00
7E7FFFC0
3E7FFFC0
3E7FFFE0
1E7F87F0
007F87F0
007F87F0
007F8FF0
007FDFF0
007FFFF0
003FFFF0
003FFFE0
003FFFC0
003FFF80
003FFC00
00160000
ENDCHAR
STARTCHAR 0186
ENCODING 390
SWIDTH 472 0
DWIDTH 21 0
BBX 20 30 1 0
BITMAP
0FE000
3FFC00
7FFF00
FFFF80
FFFFC0
FFFFC0
FFFFE0
FFFFE0
01FFF0
007FF0
003FF0
001FF0
001FF0
001FF0
001FF0
001FF0
603FF0
FFFFF0
FFFFF0
FFFFF0
FFFFE0
FFFFE0
FFFFE0
FFFFC0
FFFFC0
7FFF80
3FFF80
1FFF00
0FFC00
010000
ENDCHAR
STARTCHAR 0187
ENCODING 391
SWIDTH 472 0
DWIDTH 21 0
BBX 20 38 1 0
BITMAP
0007F0
000FF0
001FF0
003FF0
007FF0
007FE0
007F80
007F80
007F80
03FFC0
0FFFE0
1FFFF0
3FFFF0
7FFFF0
7FFFF0
7FFFF0
FFF800
FFE000
FFC000
FF8000
FF8000
FF8000
FF8000
FF8000
FFC060
FFFFF0
FFFFF0
FFFFF0
FFFFF0
7FFFF0
7FFFF0
3FFFF0
3FFFF0
1FFFE0
1FFFC0
0FFF80
03FE00
000800
ENDCHAR
STARTCHAR 0188
ENCODING 392
SWIDTH 472 0
DWIDTH 21 0
BBX 20 38 1 0
BITMAP
0007F0
000FF0
001FF0
003FF0
007FF0
007FE0
007F80
007F80
007F80
03FFC0
0FFFE0
1FFFF0
3FFFF0
7FFFF0
7FFFF0
7FFFF0
FFF800
FFE000
FFC000
FF8000
FF8000
FF8000
FF8000
FF8000
FFC060
FFFFF0
FFFFF0
FFFFF0
FFFFF0
7FFFF0
7FFFF0
3FFFF0
3FFFF0
1FFFE0
1FFFC0
0FFF80
03FE00
000800
ENDCHAR
STARTCHAR 0189
ENCODING 393
SWIDTH 472 0
DWIDTH 21 0
BBX 21 30 0 0
BITMAP
1FF000
3FFC00
3FFF00
3FFF80
3FFFC0
3FFFE0
3FFFE0
3FFFF0
3FE7F0
3FC1F8
3FF9F8
FFF9F8
FFF9F8
FFFDF8
FFFDF8
FFE3F8
FFE7F0
1FEFF0
0FFFE0
0FFFE0
0FFFC0
0FFFC0
0FFF80
07FF00
07FF00
07FE00
07F800
03F000
03C000
030000
ENDCHAR
STARTCHAR 018A
ENCODING 394
SWIDTH 630 0
DWIDTH 28 0
BBX 27 30 1 0
BITMAP
07FF8000
1FFFF000
3FFFF800
7FFFFC00
7FFFFE00
7FFFFF00
FFFFFF80
FFFFFF80
FCFF1FC0
F8FF0FC0
F8FF07C0
F8FF07E0
F8FF07E0
7EFF0FE0
7EFF0FC0
7EFF1FC0
3E7F1F80
3E7F3F80
1E7FFF80
007FFF00
007FFF00
003FFE00
003FFC00
003FFC00
003FF800
003FF000
001FE000
001F8000
001E0000
00080000
ENDCHAR
STARTCHAR 018F
ENCODING 399
SWIDTH 472 0
DWIDTH 21 0
BBX 20 30 1 0
BITMAP
001000
1FF800
3FFC00
7FFE00
FFFF00
FFFF80
FFFF80
7CFFC0
001FC0
0007C0
0007E0
0007E0
7FFFE0
FFFFE0
FFFFE0
FFFFE0
FFFFF0
FFFFF0
FF07F0
FF0FF0
FF0FF0
FFFFF0
FFFFF0
7FFFF0
7FFFF0
7FFFF0
3FFFE0
1FFFC0
0FFF80
03FF00
ENDCHAR
STARTCHAR 0190
ENCODING 400
SWIDTH 472 0
DWIDTH 21 0
BBX 20 31 1 0
BITMAP
03F800
0FFE00
1FFF80
3FFFC0
7FFFC0
FFFFC0
FFC040
FF8000
FF0000
FF0000
FF0000
FF0000
7F8000
7FFE00
3FFF00
1FFF00
1FFF00
3FFC00
3FC000
3F8000
3F8000
7F8000
7F8000
7FC0F0
7FFFF0
3FFFF0
3FFFF0
1FFFE0
0FFFE0
07FFC0
00FE00
ENDCHAR
STARTCHAR 0191
ENCODING 401
SWIDTH 495 0
DWIDTH 22 0
BBX 25 37 -3 -6
BITMAP
001FFE00
07FFFF00
0FFFFF00
0FFFFF00
0FFFFF00
0FFFFF80
0FFFF780
0FF80000
0FF00000
0FF00000
0FF00000
0FF30000
0FFF8000
0FFF8000
0FFF8000
0FFF8000
0FFF8000
0FFD8000
0FF00000
0FF00000
0FF00000
0FF00000
0FF00000
0FF00000
0FF00000
0FF00000
0FF00000
0FF00000
0FF00000
0FF00000
1FE00000
FFE00000
FFE00000
FFC00000
FF800000
FF000000
78000000
ENDCHAR
STARTCHAR 0192
ENCODING 402
SWIDTH 495 0
DWIDTH 22 0
BBX 25 37 -3 -6
BITMAP
001FFE00
07FFFF00
0FFFFF00
0FFFFF00
0FFFFF00
0FFFFF80
0FFFF780
0FF80000
0FF00000
0FF00000
0FF00000
0FF30000
0FFF8000
0FFF8000
0FFF8000
0FFF8000
0FFF8000
0FFD8000
0FF00000
0FF00000
0FF00000
0FF00000
0FF00000
0FF00000
0FF00000
0FF00000
0FF00000
0FF00000
0FF00000
0FF00000
1FE00000
FFE00000
FFE00000
FFC00000
FF800000
FF000000
78000000
ENDCHAR
STARTCHAR 0193
ENCODING 403
SWIDTH 495 0
DWIDTH 22 0
BBX 21 38 1 0
BITMAP
0003F8
0007F8
001FF8
003FF8
003FF8
003FF0
003FC0
007F80
01FF80
03FFC0
03FFE0
07FFF0
0FFFF0
1FFFF0
1FF3E0
1F8000
3F0000
3F0000
3E0000
7E0000
7E00F8
7E1FF0
7E1FF0
FE1FF0
FE1FF0
FE1FF0
FE1FF0
FE1FF0
FFBFF0
FFFFF0
FFFFF0
FFFFF0
FFFFE0
7FFFC0
3FFF00
1FFC00
0FF000
040000
ENDCHAR
STARTCHAR 0194
ENCODING 404
SWIDTH 607 0
DWIDTH 27 0
BBX 25 36 1 -6
BITMAP
FE000000
FE003800
FE003F80
7F007F80
7F007F80
7F00FF80
3F00FF00
3F80FF00
3F81FE00
1F81FE00
1FC1FC00
1FC3FC00
0FE3F800
0FE7F800
07F7F800
07F7F000
03FFF000
01FFE000
01FFE000
00FFC000
00FF8000
00FF8000
01FFC000
03FFC000
03FFC000
03E7C000
07E3C000
07C3C000
07C3E000
07C3C000
03E7C000
03FFC000
01FF8000
00FF0000
007E0000
00100000
ENDCHAR
STARTCHAR 0197
ENCODING 407
SWIDTH 360 0
DWIDTH 16 0
BBX 15 30 1 0
BITMAP
0FF0
0FFC
0FF8
0FF8
0FF8
0FF8
1FF8
1FF8
1FF8
1FF0
1FF0
1FF0
1FFE
FFFC
FFFC
FFFC
FFFC
FFFC
3FF0
3FF0
3FF0
3FF0
3FF0
3FF0
3FF0
3FE0
3FE0
3FF0
7FE0
7C00
ENDCHAR
STARTCHAR 0198
ENCODING 408
SWIDTH 607 0
DWIDTH 27 0
BBX 25 31 1 0
BITMAP
00007000
FFF0FC00
7FF1FE00
7FF1FF00
FFF3FF00
FFF7FF80
FFF7FF80
FFF7DF80
FFFFCF80
FFFF8F80
FFFF8F80
FFFF8F80
FFFF3F00
FFFF3F00
FFFE3F00
FFFE3E00
FFFC3C00
FFFE0000
FFFF0000
FFFF8000
FFFFC000
FFFFE000
FFFFF000
FFE7F000
FFE7F800
FFE3FC00
FFE3FC00
FFE1FE00
FFF0FE00
FFE0E000
03C0C000
ENDCHAR
STARTCHAR 0199
ENCODING 409
SWIDTH 607 0
DWIDTH 27 0
BBX 25 31 1 0
BITMAP
00007000
FFF0FC00
7FF1FE00
7FF1FF00
FFF3FF00
FFF7FF80
FFF7FF80
FFF7DF80
FFFFCF80
FFFF8F80
FFFF8F80
FFFF8F80
FFFF3F00
FFFF3F00
FFFE3F00
FFFE3E00
FFFC3C00
FFFE0000
FFFF0000
FFFF8000
FFFFC000
FFFFE000
FFFFF000
FFE7F000
FFE7F800
FFE3FC00
FFE3FC00
FFE1FE00
FFF0FE00
FFE0E000
03C0C000
ENDCHAR
STARTCHAR 019D
ENCODING 413
SWIDTH 562 0
DWIDTH 25 0
BBX 28 36 -3 -6
BITMAP
00600380
01FE0FE0
03FF1FF0
03FE1FE0
03FE1FE0
03FF1FE0
03FF1FE0
03FF1FE0
03FF3FE0
07FF1FE0
07FF9FE0
07FF9FC0
07FF9FC0
07FF9FC0
07FFFFC0
07FFFFC0
07FFFFC0
07FBFFC0
07FBFFC0
07FBFFC0
0FF9FFC0
0FF9FFC0
0FF9FFC0
0FF8FFC0
0FF8FFC0
0FF0FF80
0FF07F80
0FF07FC0
0FF07F80
1FF00000
FFE00000
FFE00000
FFC00000
FF800000
FF000000
78000000
ENDCHAR
STARTCHAR 01A0
ENCODING 416
SWIDTH 540 0
DWIDTH 24 0
BBX 23 32 1 0
BITMAP
00001C
03C03E
07F03E
07FC1E
0FFE1E
0FFF9E
1FFF9E
1FFFDE
3FFFFE
3FFFFE
7FFFFC
7FFFFC
7FFFF8
FF87F8
FF07FC
FF03FC
FF03FC
FF03FC
FF07FC
FF87FC
FFEFFC
FFFFFC
7FFFFC
7FFFF8
7FFFF8
3FFFF8
3FFFF8
1FFFF0
1FFFF0
0FFFE0
03FFC0
00FF00
ENDCHAR
STARTCHAR 01A1
ENCODING 417
SWIDTH 540 0
DWIDTH 24 0
BBX 23 32 1 0
BITMAP
00001C
03C03E
07F03E
07FC1E
0FFE1E
0FFF9E
1FFF9E
1FFFDE
3FFFFE
3FFFFE
7FFFFC
7FFFFC
7FFFF8
FF87F8
FF07FC
FF03FC
FF03FC
FF03FC
FF07FC
FF87FC
FFEFFC
FFFFFC
7FFFFC
7FFFF8
7FFFF8
3FFFF8
3FFFF8
1FFFF0
1FFFF0
0FFFE0
03FFC0
00FF00
ENDCHAR
STARTCHAR 01AF
ENCODING 431
SWIDTH 607 0
DWIDTH 27 0
BBX 25 32 1 0
BITMAP
00000380
00000F80
0C03C780
FE0FC780
FE0FE780
FC07E380
FC07E380
FC07E380
FC07FF80
FC07FF80
FC07FF80
FE07FF00
FE07FE00
FE07FC00
FE07F800
FE07F800
FE07F800
FE0FF800
FF0FF800
FF7FF800
7FFFF800
7FFFF000
7FFFF000
7FFFF000
3FFFF000
3FFFE000
1FFFE000
0FFFC000
0FFFC000
07FF8000
03FE0000
00380000
ENDCHAR
STARTCHAR 01B0
ENCODING 432
SWIDTH 607 0
DWIDTH 27 0
BBX 25 32 1 0
BITMAP
00000380
00000F80
0C03C780
FE0FC780
FE0FE780
FC07E380
FC07E380
FC07E380
FC07FF80
FC07FF80
FC07FF80
FE07FF00
FE07FE00
FE07FC00
FE07F800
FE07F800
FE07F800
FE0FF800
FF0FF800
FF7FF800
7FFFF800
7FFFF000
7FFFF000
7FFFF000
3FFFF000
3FFFE000
1FFFE000
0FFFC000
0FFFC000
07FF8000
03FE0000
00380000
ENDCHAR
STARTCHAR 01B1
ENCODING 433
SWIDTH 607 0
DWIDTH 27 0
BBX 26 31 1 0
BITMAP
FFE1FFC0
FFE1FFC0
FFE1FFC0
FFE1FFC0
FFE1FFC0
FFE1FFC0
FFE1FF80
1FC0FC00
1FC07E00
3F807F00
3F003F00
7F003F00
7F001F80
7E001F80
FE001F80
FE001F80
FE003F80
FE003F80
FF003F80
FF007F80
FF807F80
FFC1FF80
7FFFFF00
7FFFFF00
7FFFFE00
3FFFFE00
3FFFFC00
1FFFF800
1FFFF000
07FFE000
03FF0000
ENDCHAR
STARTCHAR 01B2
ENCODING 434
SWIDTH 562 0
DWIDTH 25 0
BBX 23 30 1 1
BITMAP
000F00
F83F80
FC7FC0
FC3FE0
FC1FF0
FC0FF0
FE07F8
FE03F8
FE03FC
FE01FC
FE01FE
FF01FE
FF01FE
FF01FE
FF01FE
FF81FE
FF81FE
7FC3FE
7FC7FE
7FFFFE
3FFFFE
3FFFFE
3FFFFC
1FFFFC
1FFFFC
0FFFF8
07FFF0
03FFF0
01FFE0
00FF00
ENDCHAR
STARTCHAR 01B3
ENCODING 435
SWIDTH 675 0
DWIDTH 30 0
BBX 28 30 1 0
BITMAP
00003F00
0E007FC0
FF007FC0
FF00FFE0
FF80FFE0
7F81FFF0
7FC1FFF0
3FC1FFF0
3FE3FDF0
1FE3F9F0
1FF7F9F0
0FF7F1F0
0FFFF3F0
07FFE7E0
07FFE7E0
03FFC7E0
03FFC7C0
01FF87C0
01FF8000
00FF0000
00FF0000
007F0000
007F0000
007F0000
007F0000
007F0000
007F8000
007F8000
007F8000
003F0000
ENDCHAR
STARTCHAR 01B4
ENCODING 436
SWIDTH 675 0
DWIDTH 30 0
BBX 28 30 1 0
BITMAP
00003F00
0E007FC0
FF007FC0
FF00FFE0
FF80FFE0
7F81FFF0
7FC1FFF0
3FC1FFF0
3FE3FDF0
1FE3F9F0
1FF7F9F0
0FF7F1F0
0FFFF3F0
07FFE7E0
07FFE7E0
03FFC7E0
03FFC7C0
01FF87C0
01FF8000
00FF0000
00FF0000
007F0000
007F0000
007F0000
007F0000
007F0000
007F8000
007F8000
007F8000
003F0000
ENDCHAR
STARTCHAR 01B5
ENCODING 437
SWIDTH 585 0
DWIDTH 26 0
BBX 25 31 1 0
BITMAP
001E0000
03FFF800
3FFFF800
7FFFF000
7FFFE000
FFFFE000
FFFFC000
FFFFC000
FE3F8000
003F8000
003F0000
007F0000
007FF800
3FFFF800
3FFFF800
3FFFF800
3FFFF800
3FFFFC00
3FFC0000
03FC0000
03FC0000
03F80000
07F00000
07FFFF80
07FFFF80
0FFFFF80
0FFFFF00
0FFFFF00
09FFFE00
003FF800
0003C000
ENDCHAR
STARTCHAR 01B6
ENCODING 438
SWIDTH 585 0
DWIDTH 26 0
BBX 25 31 1 0
BITMAP
001E0000
03FFF800
3FFFF800
7FFFF000
7FFFE000
FFFFE000
FFFFC000
FFFFC000
FE3F8000
003F8000
003F0000
007F0000
007FF800
3FFFF800
3FFFF800
3FFFF800
3FFFF800
3FFFFC00
3FFC0000
03FC0000
03FC0000
03F80000
07F00000
07FFFF80
07FFFF80
0FFFFF80
0FFFFF00
0FFFFF00
09FFFE00
003FF800
0003C000
ENDCHAR
STARTCHAR 01B7
ENCODING 439
SWIDTH 495 0
DWIDTH 22 0
BBX 20 31 1 -1
BITMAP
3FFF80
7FFFC0
7FFFC0
7FFFC0
3FFF80
000F80
003F00
007E00
00FC00
01FC00
07FE00
0FFF80
1FFFC0
3FFFE0
3FFFE0
071FE0
0007F0
0003F0
0003F0
0001F0
0001F0
F003F0
FE07F0
FFFFF0
FFFFF0
FFFFE0
FFFFE0
7FFFC0
0FFF80
07FE00
007000
ENDCHAR
STARTCHAR 01BB
ENCODING 443
SWIDTH 495 0
DWIDTH 22 0
BBX 21 31 1 0
BITMAP
038000
0FF000
1FFC00
3FFF00
7FFF00
FFFF00
FFFF00
FFFF00
7C3F00
383F00
103F00
003F00
1FFFF0
3FFFF8
3FFFF8
3FFFF8
3FFFC0
3FFC00
01FCB8
01FFF8
03FFF8
07FFF8
07FFF0
0FFFF0
0FFFF0
1FFFF0
7FFFE0
7FFFE0
7FFF80
0FFC00
004000
ENDCHAR
STARTCHAR 01C0
ENCODING 448
SWIDTH 180 0
DWIDTH 8 0
BBX 7 30 1 0
BITMAP
FC
FC
FC
FC
FC
FC
FC
FC
FE
FE
FC
FC
FE
FE
FE
FC
FC
FC
FE
FE
FE
FE
FE
FE
FE
FE
FE
FE
FE
FC
ENDCHAR
STARTCHAR 01C1
ENCODING 449
SWIDTH 292 0
DWIDTH 13 0
BBX 12 31 1 0
BITMAP
0070
F9F0
F9F0
F9F0
F9F0
F9F0
F9F0
F9F0
F9F0
F9F0
F9F0
F9F0
F9F0
F9F0
F9F0
F9F0
F9F0
F9F0
F9F0
F9F0
F9F0
F9F0
F9F0
F9F0
F9F0
F9F0
F9F0
F9F0
F9F0
F9F0
F8B0
ENDCHAR
STARTCHAR 01C2
ENCODING 450
SWIDTH 315 0
DWIDTH 14 0
BBX 13 30 1 0
BITMAP
1FC0
1FC0
1FC0
1FC0
1FC0
1FC0
1FC0
FFF8
FFF8
FFF8
FFF8
FFF8
FF80
1FC0
1FC0
1FC0
1FC0
1FC0
FFF8
FFF8
FFF8
FFF8
FFF8
FFF8
1FC0
1FC0
1FC0
1FC0
1F80
1F80
ENDCHAR
STARTCHAR 01C3
ENCODING 451
SWIDTH 202 0
DWIDTH 9 0
BBX 8 31 1 0
BITMAP
FF
FF
FF
FF
FF
FF
FF
FF
FF
FF
FF
FF
FE
FE
FE
FE
FE
FE
FE
FC
30
00
00
3C
FE
FE
FE
FE
FE
7E
38
ENDCHAR
STARTCHAR 01CA
ENCODING 458
SWIDTH 720 0
DWIDTH 32 0
BBX 31 30 1 0
BITMAP
080600FC
3F1F80FE
3F1F81FE
3F1F81FE
7F1F81FE
7F1F81FE
7F1F81FE
7F3F01FE
7FBF01FE
7FBF01FE
7FBF01FE
7FBF01FE
7FBF01FE
7FFF01FE
7FFF01FE
FFFF01FE
FFFF01FE
FFFF00FE
FFFF00FE
FFFF00FE
FEFF3CFE
FEFF7EFE
FCFE3EFC
FCFF7EFC
FC7E3FFC
FC7E3FF8
FC7E3FF8
FC7E1FF0
FC7E0FE0
C00003C0
ENDCHAR
STARTCHAR 01CB
ENCODING 459
SWIDTH 720 0
DWIDTH 32 0
BBX 31 30 1 0
BITMAP
080600FC
3F1F80FE
3F1F81FE
3F1F81FE
7F1F81FE
7F1F81FE
7F1F81FE
7F3F01FE
7FBF01FE
7FBF01FE
7FBF01FE
7FBF01FE
7FBF01FE
7FFF01FE
7FFF01FE
FFFF01FE
FFFF01FE
FFFF00FE
FFFF00FE
FFFF00FE
FEFF3CFE
FEFF7EFE
FCFE3EFC
FCFF7EFC
FC7E3FFC
FC7E3FF8
FC7E3FF8
FC7E1FF0
FC7E0FE0
C00003C0
ENDCHAR
STARTCHAR 01CC
ENCODING 460
SWIDTH 720 0
DWIDTH 32 0
BBX 31 30 1 0
BITMAP
080600FC
3F1F80FE
3F1F81FE
3F1F81FE
7F1F81FE
7F1F81FE
7F1F81FE
7F3F01FE
7FBF01FE
7FBF01FE
7FBF01FE
7FBF01FE
7FBF01FE
7FFF01FE
7FFF01FE
FFFF01FE
FFFF01FE
FFFF00FE
FFFF00FE
FFFF00FE
FEFF3CFE
FEFF7EFE
FCFE3EFC
FCFF7EFC
FC7E3FFC
FC7E3FF8
FC7E3FF8
FC7E1FF0
FC7E0FE0
C00003C0
ENDCHAR
STARTCHAR 01CD
ENCODING 461
SWIDTH 630 0
DWIDTH 28 0
BBX 26 39 1 -1
BITMAP
01F0F000
01FBF000
00FFF000
007FE000
003FC000
001F0000
00040000
00000000
000F0000
000F8000
001F8000
001F8000
003FC000
003FC000
003FC000
007FC000
007FC000
007FE000
00FFE000
00FFE000
01FFF000
01FFF000
01FFF000
03FFF800
03EFF800
07C7F800
0787FC00
0F83FC00
0FBFFC00
1FFFFE00
1FFFFE00
1FFFFE00
3FC3FF00
3F83FF00
7F83FF80
7F01FF80
FF01FFC0
FF01FFC0
FC008000
ENDCHAR
STARTCHAR 01CE
ENCODING 462
SWIDTH 630 0
DWIDTH 28 0
BBX 26 39 1 -1
BITMAP
01F0F000
01FBF000
00FFF000
007FE000
003FC000
001F0000
00040000
00000000
000F0000
000F8000
001F8000
001F8000
003FC000
003FC000
003FC000
007FC000
007FC000
007FE000
00FFE000
00FFE000
01FFF000
01FFF000
01FFF000
03FFF800
03EFF800
07C7F800
0787FC00
0F83FC00
0FBFFC00
1FFFFE00
1FFFFE00
1FFFFE00
3FC3FF00
3F83FF00
7F83FF80
7F01FF80
FF01FFC0
FF01FFC0
FC008000
ENDCHAR
STARTCHAR 01CF
ENCODING 463
SWIDTH 315 0
DWIDTH 14 0
BBX 15 38 1 0
BITMAP
3C3E
3E7E
1FFE
0FFC
07F0
03E0
0180
0000
0FF0
1FF8
1FF8
1FF0
1FF0
1FF0
1FF0
1FF0
3FF0
3FF0
3FF0
3FF0
3FF0
3FF0
3FE0
3FE0
3FE0
3FE0
3FE0
3FE0
3FE0
3FF0
3FF0
7FF0
7FE0
7FE0
7FE0
7FE0
FFC0
F800
ENDCHAR
STARTCHAR 01D0
ENCODING 464
SWIDTH 315 0
DWIDTH 14 0
BBX 15 38 1 0
BITMAP
3C3E
3E7E
1FFE
0FFC
07F0
03E0
0180
0000
0FF0
1FF8
1FF8
1FF0
1FF0
1FF0
1FF0
1FF0
3FF0
3FF0
3FF0
3FF0
3FF0
3FF0
3FE0
3FE0
3FE0
3FE0
3FE0
3FE0
3FE0
3FF0
3FF0
7FF0
7FE0
7FE0
7FE0
7FE0
FFC0
F800
ENDCHAR
STARTCHAR 01D1
ENCODING 465
SWIDTH 517 0
DWIDTH 23 0
BBX 22 39 1 0
BITMAP
002000
F87800
FEF800
7FF800
3FE000
1FC000
078000
000000
03C000
07F000
07FC00
0FFE00
0FFF80
1FFF80
1FFFC0
3FFFE0
3FFFE0
7FFFF0
7FFFF8
7FFFF8
FF87F8
FF07FC
FF03FC
FF03FC
FF03FC
FF07FC
FF87FC
FFEFFC
FFFFFC
7FFFFC
7FFFF8
7FFFF8
3FFFF8
3FFFF8
1FFFF0
1FFFF0
0FFFE0
03FFC0
00FF00
ENDCHAR
STARTCHAR 01D2
ENCODING 466
SWIDTH 517 0
DWIDTH 23 0
BBX 22 39 1 0
BITMAP
002000
F87800
FEF800
7FF800
3FE000
1FC000
078000
000000
03C000
07F000
07FC00
0FFE00
0FFF80
1FFF80
1FFFC0
3FFFE0
3FFFE0
7FFFF0
7FFFF8
7FFFF8
FF87F8
FF07FC
FF03FC
FF03FC
FF03FC
FF07FC
FF87FC
FFEFFC
FFFFFC
7FFFFC
7FFFF8
7FFFF8
3FFFF8
3FFFF8
1FFFF0
1FFFF0
0FFFE0
03FFC0
00FF00
ENDCHAR
STARTCHAR 01D3
ENCODING 467
SWIDTH 540 0
DWIDTH 24 0
BBX 23 37 1 1
BITMAP
01E1F0
01F3F0
01FFE0
00FFC0
003F80
001F00
000C00
000000
1F80FC
3F81FE
3F81FE
3F00FC
7F00FC
7F00FC
7F00FC
7F01FC
7F01FC
FF01FC
FF01FC
FF01FC
FF01FE
FF01FE
FF83FE
FF83FE
FFC3FC
FFFFFC
FFFFFC
FFFFF8
FFFFF8
7FFFF8
7FFFF0
3FFFF0
3FFFE0
1FFFC0
1FFF80
07FF00
01FE00
ENDCHAR
STARTCHAR 01D4
ENCODING 468
SWIDTH 540 0
DWIDTH 24 0
BBX 23 37 1 1
BITMAP
01E1F0
01F3F0
01FFE0
00FFC0
003F80
001F00
000C00
000000
1F80FC
3F81FE
3F81FE
3F00FC
7F00FC
7F00FC
7F00FC
7F01FC
7F01FC
FF01FC
FF01FC
FF01FC
FF01FE
FF01FE
FF83FE
FF83FE
FFC3FC
FFFFFC
FFFFFC
FFFFF8
FFFFF8
7FFFF8
7FFFF0
3FFFF0
3FFFE0
1FFFC0
1FFF80
07FF00
01FE00
ENDCHAR
STARTCHAR 01D5
ENCODING 469
SWIDTH 540 0
DWIDTH 24 0
BBX 23 39 1 1
BITMAP
01FFF0
01FFF0
03FFF0
000000
000000
01E1C0
01E3E0
01E3E0
00C1C0
000000
1F80FC
3F81FE
3F81FE
3F00FC
7F00FC
7F00FC
7F00FC
7F01FC
7F01FC
FF01FC
FF01FC
FF01FC
FF01FE
FF01FE
FF83FE
FF83FE
FFC3FC
FFFFFC
FFFFFC
FFFFF8
FFFFF8
7FFFF8
7FFFF0
3FFFF0
3FFFE0
1FFFC0
1FFF80
07FF00
01FE00
ENDCHAR
STARTCHAR 01D6
ENCODING 470
SWIDTH 540 0
DWIDTH 24 0
BBX 23 39 1 1
BITMAP
01FFF0
01FFF0
03FFF0
000000
000000
01E1C0
01E3E0
01E3E0
00C1C0
000000
1F80FC
3F81FE
3F81FE
3F00FC
7F00FC
7F00FC
7F00FC
7F01FC
7F01FC
FF01FC
FF01FC
FF01FC
FF01FE
FF01FE
FF83FE
FF83FE
FFC3FC
FFFFFC
FFFFFC
FFFFF8
FFFFF8
7FFFF8
7FFFF0
3FFFF0
3FFFE0
1FFFC0
1FFF80
07FF00
01FE00
ENDCHAR
STARTCHAR 01D7
ENCODING 471
SWIDTH 540 0
DWIDTH 24 0
BBX 23 39 1 1
BITMAP
0003F0
0007E0
000F80
001F00
000200
01E1C0
01E3E0
01E3E0
00C1C0
000000
1F80FC
3F81FE
3F81FE
3F00FC
7F00FC
7F00FC
7F00FC
7F01FC
7F01FC
FF01FC
FF01FC
FF01FC
FF01FE
FF01FE
FF83FE
FF83FE
FFC3FC
FFFFFC
FFFFFC
FFFFF8
FFFFF8
7FFFF8
7FFFF0
3FFFF0
3FFFE0
1FFFC0
1FFF80
07FF00
01FE00
ENDCHAR
STARTCHAR 01D8
ENCODING 472
SWIDTH 540 0
DWIDTH 24 0
BBX 23 39 1 1
BITMAP
0003F0
0007E0
000F80
001F00
000200
01E1C0
01E3E0
01E3E0
00C1C0
000000
1F80FC
3F81FE
3F81FE
3F00FC
7F00FC
7F00FC
7F00FC
7F01FC
7F01FC
FF01FC
FF01FC
FF01FC
FF01FE
FF01FE
FF83FE
FF83FE
FFC3FC
FFFFFC
FFFFFC
FFFFF8
FFFFF8
7FFFF8
7FFFF0
3FFFF0
3FFFE0
1FFFC0
1FFF80
07FF00
01FE00
ENDCHAR
STARTCHAR 01D9
ENCODING 473
SWIDTH 540 0
DWIDTH 24 0
BBX 23 39 1 1
BITMAP
01E1F0
01FFE0
00FFC0
003F00
000C00
01E1C0
01E3E0
01E3E0
00C1C0
000000
1F80FC
3F81FE
3F81FE
3F00FC
7F00FC
7F00FC
7F00FC
7F01FC
7F01FC
FF01FC
FF01FC
FF01FC
FF01FE
FF01FE
FF83FE
FF83FE
FFC3FC
FFFFFC
FFFFFC
FFFFF8
FFFFF8
7FFFF8
7FFFF0
3FFFF0
3FFFE0
1FFFC0
1FFF80
07FF00
01FE00
ENDCHAR
STARTCHAR 01DA
ENCODING 474
SWIDTH 540 0
DWIDTH 24 0
BBX 23 39 1 1
BITMAP
01E1F0
01FFE0
00FFC0
003F00
000C00
01E1C0
01E3E0
01E3E0
00C1C0
000000
1F80FC
3F81FE
3F81FE
3F00FC
7F00FC
7F00FC
7F00FC
7F01FC
7F01FC
FF01FC
FF01FC
FF01FC
FF01FE
FF01FE
FF83FE
FF83FE
FFC3FC
FFFFFC
FFFFFC
FFFFF8
FFFFF8
7FFFF8
7FFFF0
3FFFF0
3FFFE0
1FFFC0
1FFF80
07FF00
01FE00
ENDCHAR
STARTCHAR 01DB
ENCODING 475
SWIDTH 540 0
DWIDTH 24 0
BBX 23 39 1 1
BITMAP
03F000
01F800
007C00
003E00
001000
01E1C0
01E3E0
01E3E0
00C1C0
000000
1F80FC
3F81FE
3F81FE
3F00FC
7F00FC
7F00FC
7F00FC
7F01FC
7F01FC
FF01FC
FF01FC
FF01FC
FF01FE
FF01FE
FF83FE
FF83FE
FFC3FC
FFFFFC
FFFFFC
FFFFF8
FFFFF8
7FFFF8
7FFFF0
3FFFF0
3FFFE0
1FFFC0
1FFF80
07FF00
01FE00
ENDCHAR
STARTCHAR 01DC
ENCODING 476
SWIDTH 540 0
DWIDTH 24 0
BBX 23 39 1 1
BITMAP
03F000
01F800
007C00
003E00
001000
01E1C0
01E3E0
01E3E0
00C1C0
000000
1F80FC
3F81FE
3F81FE
3F00FC
7F00FC
7F00FC
7F00FC
7F01FC
7F01FC
FF01FC
FF01FC
FF01FC
FF01FE
FF01FE
FF83FE
FF83FE
FFC3FC
FFFFFC
FFFFFC
FFFFF8
FFFFF8
7FFFF8
7FFFF0
3FFFF0
3FFFE0
1FFFC0
1FFF80
07FF00
01FE00
ENDCHAR
STARTCHAR 01DE
ENCODING 478
SWIDTH 630 0
DWIDTH 28 0
BBX 26 41 1 -1
BITMAP
00FFF800
00FFF800
00FFF800
00000000
00004000
0078F000
00F8F000
00F8F000
00706000
00000000
000F0000
000F8000
001F8000
001F8000
003FC000
003FC000
003FC000
007FC000
007FC000
007FE000
00FFE000
00FFE000
01FFF000
01FFF000
01FFF000
03FFF800
03EFF800
07C7F800
0787FC00
0F83FC00
0FBFFC00
1FFFFE00
1FFFFE00
1FFFFE00
3FC3FF00
3F83FF00
7F83FF80
7F01FF80
FF01FFC0
FF01FFC0
FC008000
ENDCHAR
STARTCHAR 01DF
ENCODING 479
SWIDTH 630 0
DWIDTH 28 0
BBX 26 41 1 -1
BITMAP
00FFF800
00FFF800
00FFF800
00000000
00004000
0078F000
00F8F000
00F8F000
00706000
00000000
000F0000
000F8000
001F8000
001F8000
003FC000
003FC000
003FC000
007FC000
007FC000
007FE000
00FFE000
00FFE000
01FFF000
01FFF000
01FFF000
03FFF800
03EFF800
07C7F800
0787FC00
0F83FC00
0FBFFC00
1FFFFE00
1FFFFE00
1FFFFE00
3FC3FF00
3F83FF00
7F83FF80
7F01FF80
FF01FFC0
FF01FFC0
FC008000
ENDCHAR
STARTCHAR 01E0
ENCODING 480
SWIDTH 630 0
DWIDTH 28 0
BBX 26 41 1 -1
BITMAP
00FFF800
00FFF800
00FFF800
00000000
00000000
000F0000
000F8000
000F0000
00070000
00000000
000F0000
000F8000
001F8000
001F8000
003FC000
003FC000
003FC000
007FC000
007FC000
007FE000
00FFE000
00FFE000
01FFF000
01FFF000
01FFF000
03FFF800
03EFF800
07C7F800
0787FC00
0F83FC00
0FBFFC00
1FFFFE00
1FFFFE00
1FFFFE00
3FC3FF00
3F83FF00
7F83FF80
7F01FF80
FF01FFC0
FF01FFC0
FC008000
ENDCHAR
STARTCHAR 01E1
ENCODING 481
SWIDTH 630 0
DWIDTH 28 0
BBX 26 41 1 -1
BITMAP
00FFF800
00FFF800
00FFF800
00000000
00000000
000F0000
000F8000
000F0000
00070000
00000000
000F0000
000F8000
001F8000
001F8000
003FC000
003FC000
003FC000
007FC000
007FC000
007FE000
00FFE000
00FFE000
01FFF000
01FFF000
01FFF000
03FFF800
03EFF800
07C7F800
0787FC00
0F83FC00
0FBFFC00
1FFFFE00
1FFFFE00
1FFFFE00
3FC3FF00
3F83FF00
7F83FF80
7F01FF80
FF01FFC0
FF01FFC0
FC008000
ENDCHAR
STARTCHAR 01E2
ENCODING 482
SWIDTH 720 0
DWIDTH 32 0
BBX 31 37 1 -1
BITMAP
0007FF80
000FFF80
000FFF80
000FFF80
00000000
0000FE00
000FFFE0
000FFFE0
001FFFC0
001FFFC0
003FFFC0
003FFFC0
003FFFC0
007FFFC0
007FFF80
007FF000
00FFF000
00FFF000
01FFFFC0
01FFFF80
03FFFF80
03FFFFC0
03C7FF40
07C7F800
0787F808
0F83FFFC
0FFFFFFC
1FFFFFFC
1FFFFFFC
3FFFFFFE
3FC3FFFE
3F83FFFE
7F03FFFE
7F01FFF8
FF01FF80
FF01F800
F0000000
ENDCHAR
STARTCHAR 01E3
ENCODING 483
SWIDTH 720 0
DWIDTH 32 0
BBX 31 37 1 -1
BITMAP
0007FF80
000FFF80
000FFF80
000FFF80
00000000
0000FE00
000FFFE0
000FFFE0
001FFFC0
001FFFC0
003FFFC0
003FFFC0
003FFFC0
007FFFC0
007FFF80
007FF000
00FFF000
00FFF000
01FFFFC0
01FFFF80
03FFFF80
03FFFFC0
03C7FF40
07C7F800
0787F808
0F83FFFC
0FFFFFFC
1FFFFFFC
1FFFFFFC
3FFFFFFE
3FC3FFFE
3F83FFFE
7F03FFFE
7F01FFF8
FF01FF80
FF01F800
F0000000
ENDCHAR
STARTCHAR 01E4
ENCODING 484
SWIDTH 540 0
DWIDTH 24 0
BBX 23 31 1 0
BITMAP
001000
003FE0
00FFF0
00FFF8
01FFFC
03FFFC
03FFFC
07FCF8
07E000
0FC000
0FF000
FFF000
FFF000
FFF03E
FFF7FE
FFF7FE
1F87FE
3F87FE
3F87FE
3F83FE
3F83FC
3FEFFC
3FFFFC
3FFFFC
3FFFFC
3FFFF8
1FFFF0
0FFFC0
07FF00
03FC00
010000
ENDCHAR
STARTCHAR 01E5
ENCODING 485
SWIDTH 540 0
DWIDTH 24 0
BBX 23 31 1 0
BITMAP
001000
003FE0
00FFF0
00FFF8
01FFFC
03FFFC
03FFFC
07FCF8
07E000
0FC000
0FF000
FFF000
FFF000
FFF03E
FFF7FE
FFF7FE
1F87FE
3F87FE
3F87FE
3F83FE
3F83FC
3FEFFC
3FFFFC
3FFFFC
3FFFFC
3FFFF8
1FFFF0
0FFFC0
07FF00
03FC00
010000
ENDCHAR
STARTCHAR 01E6
ENCODING 486
SWIDTH 495 0
DWIDTH 22 0
BBX 21 38 1 0
BITMAP
0787C0
0FCFC0
07FF80
03FF00
01FE00
007C00
002000
004000
01FF00
03FFC0
03FFE0
07FFF0
0FFFF0
1FFFF0
1FF3E0
1F8000
3F0000
3F0000
3E0000
7E0000
7E00F8
7E1FF0
7E1FF0
FE1FF0
FE1FF0
FE1FF0
FE1FF0
FE1FF0
FFBFF0
FFFFF0
FFFFF0
FFFFF0
FFFFE0
7FFFC0
3FFF00
1FFC00
0FF000
040000
ENDCHAR
STARTCHAR 01E7
ENCODING 487
SWIDTH 495 0
DWIDTH 22 0
BBX 21 38 1 0
BITMAP
0787C0
0FCFC0
07FF80
03FF00
01FE00
007C00
002000
004000
01FF00
03FFC0
03FFE0
07FFF0
0FFFF0
1FFFF0
1FF3E0
1F8000
3F0000
3F0000
3E0000
7E0000
7E00F8
7E1FF0
7E1FF0
FE1FF0
FE1FF0
FE1FF0
FE1FF0
FE1FF0
FFBFF0
FFFFF0
FFFFF0
FFFFF0
FFFFE0
7FFFC0
3FFF00
1FFC00
0FF000
040000
ENDCHAR
STARTCHAR 01E8
ENCODING 488
SWIDTH 540 0
DWIDTH 24 0
BBX 23 38 1 0
BITMAP
01F0F0
01F9F8
00FFF0
007FE0
003FC0
000F00
000400
000060
FFF0E0
7FF1F0
7FF1FE
FFF3FC
FFF7FC
FFF7F8
FFF7F0
FFFFF0
FFFFE0
FFFFC0
FFFF80
FFFF80
FFFF00
FFFF00
FFFE00
FFFC00
FFFE00
FFFF00
FFFF80
FFFFC0
FFFFE0
FFFFF0
FFE7F0
FFE7F8
FFE3FC
FFE3FC
FFE1FE
FFF0FE
FFE0E0
03C0C0
ENDCHAR
STARTCHAR 01E9
ENCODING 489
SWIDTH 540 0
DWIDTH 24 0
BBX 23 38 1 0
BITMAP
01F0F0
01F9F8
00FFF0
007FE0
003FC0
000F00
000400
000060
FFF0E0
7FF1F0
7FF1FE
FFF3FC
FFF7FC
FFF7F8
FFF7F0
FFFFF0
FFFFE0
FFFFC0
FFFF80
FFFF80
FFFF00
FFFF00
FFFE00
FFFC00
FFFE00
FFFF00
FFFF80
FFFFC0
FFFFE0
FFFFF0
FFE7F0
FFE7F8
FFE3FC
FFE3FC
FFE1FE
FFF0FE
FFE0E0
03C0C0
ENDCHAR
STARTCHAR 01EA
ENCODING 490
SWIDTH 517 0
DWIDTH 23 0
BBX 22 38 1 -7
BITMAP
03C000
07F000
07FC00
0FFE00
0FFF80
1FFF80
1FFFC0
3FFFE0
3FFFE0
7FFFF0
7FFFF8
7FFFF8
FF87F8
FF07FC
FF03FC
FF03FC
FF03FC
FF07FC
FF87FC
FFEFFC
FFFFFC
7FFFFC
7FFFF8
7FFFF8
3FFFF8
3FFFF8
1FFFF0
1FFFF0
0FFFE0
03FFC0
00FF00
007800
007800
00F800
00F870
00FFF0
007FF0
003FF0
ENDCHAR
STARTCHAR 01EB
ENCODING 491
SWIDTH 517 0
DWIDTH 23 0
BBX 22 38 1 -7
BITMAP
03C000
07F000
07FC00
0FFE00
0FFF80
1FFF80
1FFFC0
3FFFE0
3FFFE0
7FFFF0
7FFFF8
7FFFF8
FF87F8
FF07FC
FF03FC
FF03FC
FF03FC
FF07FC
FF87FC
FFEFFC
FFFFFC
7FFFFC
7FFFF8
7FFFF8
3FFFF8
3FFFF8
1FFFF0
1FFFF0
0FFFE0
03FFC0
00FF00
007800
007800
00F800
00F870
00FFF0
007FF0
003FF0
ENDCHAR
STARTCHAR 01EC
ENCODING 492
SWIDTH 517 0
DWIDTH 23 0
BBX 22 43 1 -7
BITMAP
7FFC00
7FFC00
7FFC00
7FFC00
000000
03C000
07F000
07FC00
0FFE00
0FFF80
1FFF80
1FFFC0
3FFFE0
3FFFE0
7FFFF0
7FFFF8
7FFFF8
FF87F8
FF07FC
FF03FC
FF03FC
FF03FC
FF07FC
FF87FC
FFEFFC
FFFFFC
7FFFFC
7FFFF8
7FFFF8
3FFFF8
3FFFF8
1FFFF0
1FFFF0
0FFFE0
03FFC0
00FF00
007800
007800
00F800
00F870
00FFF0
007FF0
003FF0
ENDCHAR
STARTCHAR 01ED
ENCODING 493
SWIDTH 517 0
DWIDTH 23 0
BBX 22 43 1 -7
BITMAP
7FFC00
7FFC00
7FFC00
7FFC00
000000
03C000
07F000
07FC00
0FFE00
0FFF80
1FFF80
1FFFC0
3FFFE0
3FFFE0
7FFFF0
7FFFF8
7FFFF8
FF87F8
FF07FC
FF03FC
FF03FC
FF03FC
FF07FC
FF87FC
FFEFFC
FFFFFC
7FFFFC
7FFFF8
7FFFF8
3FFFF8
3FFFF8
1FFFF0
1FFFF0
0FFFE0
03FFC0
00FF00
007800
007800
00F800
00F870
00FFF0
007FF0
003FF0
ENDCHAR
STARTCHAR 01EE
ENCODING 494
SWIDTH 495 0
DWIDTH 22 0
BBX 20 39 1 -1
BITMAP
1E1E00
1F3F00
1FFE00
0FFC00
07F800
03F000
00C000
000000
3FFF80
7FFFC0
7FFFC0
7FFFC0
3FFF80
000F80
003F00
007E00
00FC00
01FC00
07FE00
0FFF80
1FFFC0
3FFFE0
3FFFE0
071FE0
0007F0
0003F0
0003F0
0001F0
0001F0
F003F0
FE07F0
FFFFF0
FFFFF0
FFFFE0
FFFFE0
7FFFC0
0FFF80
07FE00
007000
ENDCHAR
STARTCHAR 01EF
ENCODING 495
SWIDTH 495 0
DWIDTH 22 0
BBX 20 39 1 -1
BITMAP
1E1E00
1F3F00
1FFE00
0FFC00
07F800
03F000
00C000
000000
3FFF80
7FFFC0
7FFFC0
7FFFC0
3FFF80
000F80
003F00
007E00
00FC00
01FC00
07FE00
0FFF80
1FFFC0
3FFFE0
3FFFE0
071FE0
0007F0
0003F0
0003F0
0001F0
0001F0
F003F0
FE07F0
FFFFF0
FFFFF0
FFFFE0
FFFFE0
7FFFC0
0FFF80
07FE00
007000
ENDCHAR
STARTCHAR 01F0
ENCODING 496
SWIDTH 450 0
DWIDTH 20 0
BBX 20 38 1 0
BITMAP
01E1F0
03F3F0
01FFE0
00FFC0
007F80
001E00
000800
000000
007FC0
00FFC0
00FFC0
00FFC0
00FFC0
00FFC0
01FFC0
01FFC0
01FFC0
01FFC0
01FFE0
01FFE0
01FFE0
01FFE0
01FFE0
00FFE0
00FFE0
00FFE0
007FE0
007FC0
7C7FC0
FE7FC0
FF7FC0
FF7F80
FFFF80
FFFF00
7FFF00
3FFE00
1FF800
03F000
ENDCHAR
STARTCHAR 01F4
ENCODING 500
SWIDTH 495 0
DWIDTH 22 0
BBX 21 38 1 0
BITMAP
000FC0
001F80
003F00
003E00
007C00
007C00
000800
004000
01FF00
03FFC0
03FFE0
07FFF0
0FFFF0
1FFFF0
1FF3E0
1F8000
3F0000
3F0000
3E0000
7E0000
7E00F8
7E1FF0
7E1FF0
FE1FF0
FE1FF0
FE1FF0
FE1FF0
FE1FF0
FFBFF0
FFFFF0
FFFFF0
FFFFF0
FFFFE0
7FFFC0
3FFF00
1FFC00
0FF000
040000
ENDCHAR
STARTCHAR 01F5
ENCODING 501
SWIDTH 495 0
DWIDTH 22 0
BBX 21 38 1 0
BITMAP
000FC0
001F80
003F00
003E00
007C00
007C00
000800
004000
01FF00
03FFC0
03FFE0
07FFF0
0FFFF0
1FFFF0
1FF3E0
1F8000
3F0000
3F0000
3E0000
7E0000
7E00F8
7E1FF0
7E1FF0
FE1FF0
FE1FF0
FE1FF0
FE1FF0
FE1FF0
FFBFF0
FFFFF0
FFFFF0
FFFFF0
FFFFE0
7FFFC0
3FFF00
1FFC00
0FF000
040000
ENDCHAR
STARTCHAR 01F8
ENCODING 504
SWIDTH 562 0
DWIDTH 25 0
BBX 24 38 1 0
BITMAP
03F000
01F800
00FC00
007C00
003E00
003E00
001000
000000
060038
1FE0FE
3FF1FF
3FE1FE
3FE1FE
3FF1FE
3FF1FE
3FF1FE
3FF3FE
7FF1FE
7FF9FE
7FF9FC
7FF9FC
7FF9FC
7FFFFC
7FFFFC
7FFFFC
7FBFFC
7FBFFC
7FBFFC
FF9FFC
FF9FFC
FF9FFC
FF8FFC
FF8FFC
FF8FF8
FF87F8
FF87FC
FF87F8
F00000
ENDCHAR
STARTCHAR 01F9
ENCODING 505
SWIDTH 562 0
DWIDTH 25 0
BBX 24 38 1 0
BITMAP
03F000
01F800
00FC00
007C00
003E00
003E00
001000
000000
060038
1FE0FE
3FF1FF
3FE1FE
3FE1FE
3FF1FE
3FF1FE
3FF1FE
3FF3FE
7FF1FE
7FF9FE
7FF9FC
7FF9FC
7FF9FC
7FFFFC
7FFFFC
7FFFFC
7FBFFC
7FBFFC
7FBFFC
FF9FFC
FF9FFC
FF9FFC
FF8FFC
FF8FFC
FF8FF8
FF87F8
FF87FC
FF87F8
F00000
ENDCHAR
STARTCHAR 01FE
ENCODING 510
SWIDTH 517 0
DWIDTH 23 0
BBX 24 38 0 -1
BITMAP
003F00
007E00
007C00
00FC00
00F800
01F000
002040
01E07F
03F8FF
03FEFE
07FFFC
07FFFC
0FFFF8
0FFFF8
1FFFF0
1FFFF0
3FFFF8
3FFFFC
3FFFFC
7F3FFC
7F7FFE
7E7EFE
7EFEFE
7EFCFE
7FF9FE
7FF9FE
7FF3FE
7FFFFE
3FFFFE
3FFFFC
3FFFFC
1FFFFC
1FFFFC
3FFFF8
7FFFF8
7FFFF0
FDFFE0
B87F80
ENDCHAR
STARTCHAR 01FF
ENCODING 511
SWIDTH 517 0
DWIDTH 23 0
BBX 24 38 0 -1
BITMAP
003F00
007E00
007C00
00FC00
00F800
01F000
002040
01E07F
03F8FF
03FEFE
07FFFC
07FFFC
0FFFF8
0FFFF8
1FFFF0
1FFFF0
3FFFF8
3FFFFC
3FFFFC
7F3FFC
7F7FFE
7E7EFE
7EFEFE
7EFCFE
7FF9FE
7FF9FE
7FF3FE
7FFFFE
3FFFFE
3FFFFC
3FFFFC
1FFFFC
1FFFFC
3FFFF8
7FFFF8
7FFFF0
FDFFE0
B87F80
ENDCHAR
STARTCHAR 0218
ENCODING 536
SWIDTH 495 0
DWIDTH 22 0
BBX 21 38 1 -7
BITMAP
003E00
03FFF8
0FFFF0
1FFFF0
1FFFE0
1FFFE0
3FFFE0
3FFFC0
3FFFC0
7FFF80
7FFF80
7FFF00
7F8180
3FC000
3FF000
1FFE00
1FFF80
0FFFC0
00FFE0
003FE0
000FE0
000FF0
701FF0
FFFFF0
FFFFF0
FFFFE0
FFFFE0
FFFFE0
7FFF80
1FFE00
0FFC00
000000
03F000
03F000
03F000
07E000
07E000
03C000
ENDCHAR
STARTCHAR 0219
ENCODING 537
SWIDTH 495 0
DWIDTH 22 0
BBX 21 38 1 -7
BITMAP
003E00
03FFF8
0FFFF0
1FFFF0
1FFFE0
1FFFE0
3FFFE0
3FFFC0
3FFFC0
7FFF80
7FFF80
7FFF00
7F8180
3FC000
3FF000
1FFE00
1FFF80
0FFFC0
00FFE0
003FE0
000FE0
000FF0
701FF0
FFFFF0
FFFFF0
FFFFE0
FFFFE0
FFFFE0
7FFF80
1FFE00
0FFC00
000000
03F000
03F000
03F000
07E000
07E000
03C000
ENDCHAR
STARTCHAR 021A
ENCODING 538
SWIDTH 562 0
DWIDTH 25 0
BBX 24 37 1 -7
BITMAP
1FFFF8
FFFFFE
FFFFFE
FFFFFE
FFFFFF
FFFFFF
FFFFFF
FFFFFF
FFFFE0
FC7F80
C07F00
007F00
007F00
007F00
007E00
007E00
007E00
007F00
007E00
007E00
007E00
007E00
007E00
007E00
007F00
007E00
007E00
00FE00
007E00
007E00
000000
007E00
007E00
007E00
00FC00
00F800
00F800
ENDCHAR
STARTCHAR 021B
ENCODING 539
SWIDTH 562 0
DWIDTH 25 0
BBX 24 37 1 -7
BITMAP
1FFFF8
FFFFFE
FFFFFE
FFFFFE
FFFFFF
FFFFFF
FFFFFF
FFFFFF
FFFFE0
FC7F80
C07F00
007F00
007F00
007F00
007E00
007E00
007E00
007F00
007E00
007E00
007E00
007E00
007E00
007E00
007F00
007E00
007E00
00FE00
007E00
007E00
000000
007E00
007E00
007E00
00FC00
00F800
00F800
ENDCHAR
STARTCHAR 021E
ENCODING 542
SWIDTH 562 0
DWIDTH 25 0
BBX 23 37 1 1
BITMAP
00F0F8
00FDF8
007FF8
003FF0
001FE0
000F80
000200
000000
07F000
1FF0FE
3FE0FE
3FE1FE
1FF1FE
1FF1FE
1FE1FE
3FE1FE
3FE1FE
3FE1FE
3FE1FE
3FFFFE
3FFFFE
3FFFFC
3FFFFC
3FFFFC
3FFFFE
7FFFFE
7FFFFE
7FFFFE
7FE3FE
7FE3FE
7FE3FE
7FC3FC
7FC3FC
7FE3FC
7FE3FC
FFE3FC
FFC7C0
ENDCHAR
STARTCHAR 021F
ENCODING 543
SWIDTH 562 0
DWIDTH 25 0
BBX 23 37 1 1
BITMAP
00F0F8
00FDF8
007FF8
003FF0
001FE0
000F80
000200
000000
07F000
1FF0FE
3FE0FE
3FE1FE
1FF1FE
1FF1FE
1FE1FE
3FE1FE
3FE1FE
3FE1FE
3FE1FE
3FFFFE
3FFFFE
3FFFFC
3FFFFC
3FFFFC
3FFFFE
7FFFFE
7FFFFE
7FFFFE
7FE3FE
7FE3FE
7FE3FE
7FC3FC
7FC3FC
7FE3FC
7FE3FC
FFE3FC
FFC7C0
ENDCHAR
STARTCHAR 0224
ENCODING 548
SWIDTH 585 0
DWIDTH 26 0
BBX 25 37 1 -6
BITMAP
001E0000
03FFF800
3FFFF800
7FFFF000
7FFFE000
FFFFE000
FFFFC000
FFFFC000
FE3F8000
003F8000
003F0000
007F0000
007E0000
00FE0000
00FE0000
00FE0000
01FC0000
01FC0000
01FC0000
03FC0000
03FC0000
03F80000
07F00000
07FFFF80
07FFFF80
0FFFFF80
0FFFFF80
0FFFFF80
0FFFFF80
00007F80
0000FF80
0007FF00
0007FF00
0007FF00
0007FC00
0007F800
0003E000
ENDCHAR
STARTCHAR 0225
ENCODING 549
SWIDTH 585 0
DWIDTH 26 0
BBX 25 37 1 -6
BITMAP
001E0000
03FFF800
3FFFF800
7FFFF000
7FFFE000
FFFFE000
FFFFC000
FFFFC000
FE3F8000
003F8000
003F0000
007F0000
007E0000
00FE0000
00FE0000
00FE0000
01FC0000
01FC0000
01FC0000
03FC0000
03FC0000
03F80000
07F00000
07FFFF80
07FFFF80
0FFFFF80
0FFFFF80
0FFFFF80
0FFFFF80
00007F80
0000FF80
0007FF00
0007FF00
0007FF00
0007FC00
0007F800
0003E000
ENDCHAR
STARTCHAR 0226
ENCODING 550
SWIDTH 630 0
DWIDTH 28 0
BBX 26 37 1 -1
BITMAP
00060000
000F0000
000F0000
000F0000
00060000
00000000
000F0000
000F8000
001F8000
001F8000
003FC000
003FC000
003FC000
007FC000
007FC000
007FE000
00FFE000
00FFE000
01FFF000
01FFF000
01FFF000
03FFF800
03EFF800
07C7F800
0787FC00
0F83FC00
0FBFFC00
1FFFFE00
1FFFFE00
1FFFFE00
3FC3FF00
3F83FF00
7F83FF80
7F01FF80
FF01FFC0
FF01FFC0
FC008000
ENDCHAR
STARTCHAR 0227
ENCODING 551
SWIDTH 630 0
DWIDTH 28 0
BBX 26 37 1 -1
BITMAP
00060000
000F0000
000F0000
000F0000
00060000
00000000
000F0000
000F8000
001F8000
001F8000
003FC000
003FC000
003FC000
007FC000
007FC000
007FE000
00FFE000
00FFE000
01FFF000
01FFF000
01FFF000
03FFF800
03EFF800
07C7F800
0787FC00
0F83FC00
0FBFFC00
1FFFFE00
1FFFFE00
1FFFFE00
3FC3FF00
3F83FF00
7F83FF80
7F01FF80
FF01FFC0
FF01FFC0
FC008000
ENDCHAR
STARTCHAR 0228
ENCODING 552
SWIDTH 495 0
DWIDTH 22 0
BBX 20 38 1 -7
BITMAP
0FF800
7FFF00
FFFF00
FFFE00
FFFE00
7FFE00
7FFE00
7FFE00
7FFE00
7FE400
3F8000
3F8000
3F8400
3FFE00
3FFC00
3FFE00
1FFE00
1FF000
1FC000
1FE0C0
1FFFE0
0FFFE0
0FFFE0
0FFFF0
0FFFF0
0FFFF0
0FFFF0
0FFFF0
0FFF80
0FFC00
07BE00
003E00
001F80
000FC0
0007E0
01FFE0
03FFC0
00FFC0
ENDCHAR
STARTCHAR 0229
ENCODING 553
SWIDTH 495 0
DWIDTH 22 0
BBX 20 38 1 -7
BITMAP
0FF800
7FFF00
FFFF00
FFFE00
FFFE00
7FFE00
7FFE00
7FFE00
7FFE00
7FE400
3F8000
3F8000
3F8400
3FFE00
3FFC00
3FFE00
1FFE00
1FF000
1FC000
1FE0C0
1FFFE0
0FFFE0
0FFFE0
0FFFF0
0FFFF0
0FFFF0
0FFFF0
0FFFF0
0FFF80
0FFC00
07BE00
003E00
001F80
000FC0
0007E0
01FFE0
03FFC0
00FFC0
ENDCHAR
STARTCHAR 022A
ENCODING 554
SWIDTH 517 0
DWIDTH 23 0
BBX 22 40 1 0
BITMAP
3FFC00
7FFE00
7FFC00
000000
000000
3C3800
3C7C00
3C7C00
183800
03C000
07F000
07FC00
0FFE00
0FFF80
1FFF80
1FFFC0
3FFFE0
3FFFE0
7FFFF0
7FFFF8
7FFFF8
FF87F8
FF07FC
FF03FC
FF03FC
FF03FC
FF07FC
FF87FC
FFEFFC
FFFFFC
7FFFFC
7FFFF8
7FFFF8
3FFFF8
3FFFF8
1FFFF0
1FFFF0
0FFFE0
03FFC0
00FF00
ENDCHAR
STARTCHAR 022B
ENCODING 555
SWIDTH 517 0
DWIDTH 23 0
BBX 22 40 1 0
BITMAP
3FFC00
7FFE00
7FFC00
000000
000000
3C3800
3C7C00
3C7C00
183800
03C000
07F000
07FC00
0FFE00
0FFF80
1FFF80
1FFFC0
3FFFE0
3FFFE0
7FFFF0
7FFFF8
7FFFF8
FF87F8
FF07FC
FF03FC
FF03FC
FF03FC
FF07FC
FF87FC
FFEFFC
FFFFFC
7FFFFC
7FFFF8
7FFFF8
3FFFF8
3FFFF8
1FFFF0
1FFFF0
0FFFE0
03FFC0
00FF00
ENDCHAR
STARTCHAR 022C
ENCODING 556
SWIDTH 517 0
DWIDTH 23 0
BBX 22 40 1 0
BITMAP
7FFC00
7FFC00
7FFC00
000000
1C3C00
3FFC00
7FFC00
7BF800
786000
03C000
07F000
07FC00
0FFE00
0FFF80
1FFF80
1FFFC0
3FFFE0
3FFFE0
7FFFF0
7FFFF8
7FFFF8
FF87F8
FF07FC
FF03FC
FF03FC
FF03FC
FF07FC
FF87FC
FFEFFC
FFFFFC
7FFFFC
7FFFF8
7FFFF8
3FFFF8
3FFFF8
1FFFF0
1FFFF0
0FFFE0
03FFC0
00FF00
ENDCHAR
STARTCHAR 022D
ENCODING 557
SWIDTH 517 0
DWIDTH 23 0
BBX 22 40 1 0
BITMAP
7FFC00
7FFC00
7FFC00
000000
1C3C00
3FFC00
7FFC00
7BF800
786000
03C000
07F000
07FC00
0FFE00
0FFF80
1FFF80
1FFFC0
3FFFE0
3FFFE0
7FFFF0
7FFFF8
7FFFF8
FF87F8
FF07FC
FF03FC
FF03FC
FF03FC
FF07FC
FF87FC
FFEFFC
FFFFFC
7FFFFC
7FFFF8
7FFFF8
3FFFF8
3FFFF8
1FFFF0
1FFFF0
0FFFE0
03FFC0
00FF00
ENDCHAR
STARTCHAR 022E
ENCODING 558
SWIDTH 517 0
DWIDTH 23 0
BBX 22 37 1 0
BITMAP
020000
078000
07C000
078000
078000
000000
03C000
07F000
07FC00
0FFE00
0FFF80
1FFF80
1FFFC0
3FFFE0
3FFFE0
7FFFF0
7FFFF8
7FFFF8
FF87F8
FF07FC
FF03FC
FF03FC
FF03FC
FF07FC
FF87FC
FFEFFC
FFFFFC
7FFFFC
7FFFF8
7FFFF8
3FFFF8
3FFFF8
1FFFF0
1FFFF0
0FFFE0
03FFC0
00FF00
ENDCHAR
STARTCHAR 022F
ENCODING 559
SWIDTH 517 0
DWIDTH 23 0
BBX 22 37 1 0
BITMAP
020000
078000
07C000
078000
078000
000000
03C000
07F000
07FC00
0FFE00
0FFF80
1FFF80
1FFFC0
3FFFE0
3FFFE0
7FFFF0
7FFFF8
7FFFF8
FF87F8
FF07FC
FF03FC
FF03FC
FF03FC
FF07FC
FF87FC
FFEFFC
FFFFFC
7FFFFC
7FFFF8
7FFFF8
3FFFF8
3FFFF8
1FFFF0
1FFFF0
0FFFE0
03FFC0
00FF00
ENDCHAR
STARTCHAR 0230
ENCODING 560
SWIDTH 517 0
DWIDTH 23 0
BBX 22 40 1 0
BITMAP
7FFC00
7FFC00
7FFC00
000000
03C000
03C000
07C000
03C000
000000
03C000
07F000
07FC00
0FFE00
0FFF80
1FFF80
1FFFC0
3FFFE0
3FFFE0
7FFFF0
7FFFF8
7FFFF8
FF87F8
FF07FC
FF03FC
FF03FC
FF03FC
FF07FC
FF87FC
FFEFFC
FFFFFC
7FFFFC
7FFFF8
7FFFF8
3FFFF8
3FFFF8
1FFFF0
1FFFF0
0FFFE0
03FFC0
00FF00
ENDCHAR
STARTCHAR 0231
ENCODING 561
SWIDTH 517 0
DWIDTH 23 0
BBX 22 40 1 0
BITMAP
7FFC00
7FFC00
7FFC00
000000
03C000
03C000
07C000
03C000
000000
03C000
07F000
07FC00
0FFE00
0FFF80
1FFF80
1FFFC0
3FFFE0
3FFFE0
7FFFF0
7FFFF8
7FFFF8
FF87F8
FF07FC
FF03FC
FF03FC
FF03FC
FF07FC
FF87FC
FFEFFC
FFFFFC
7FFFFC
7FFFF8
7FFFF8
3FFFF8
3FFFF8
1FFFF0
1FFFF0
0FFFE0
03FFC0
00FF00
ENDCHAR
STARTCHAR 0232
ENCODING 562
SWIDTH 607 0
DWIDTH 27 0
BBX 26 36 1 0
BITMAP
01FFE000
03FFE000
03FFE000
03FFE000
00000000
00000000
00003FC0
0E003F80
FF007F00
FF007F00
FF80FF00
7F80FE00
7FC1FE00
3FC1FC00
3FE3FC00
1FE3F800
1FF7F800
0FF7F000
0FFFF000
07FFE000
07FFE000
03FFC000
03FFC000
01FF8000
01FF8000
00FF0000
00FF0000
007F0000
007F0000
007F0000
007F0000
007F0000
007F8000
007F8000
007F8000
003F0000
ENDCHAR
STARTCHAR 0233
ENCODING 563
SWIDTH 607 0
DWIDTH 27 0
BBX 26 36 1 0
BITMAP
01FFE000
03FFE000
03FFE000
03FFE000
00000000
00000000
00003FC0
0E003F80
FF007F00
FF007F00
FF80FF00
7F80FE00
7FC1FE00
3FC1FC00
3FE3FC00
1FE3F800
1FF7F800
0FF7F000
0FFFF000
07FFE000
07FFE000
03FFC000
03FFC000
01FF8000
01FF8000
00FF0000
00FF0000
007F0000
007F0000
007F0000
007F0000
007F0000
007F8000
007F8000
007F8000
003F0000
ENDCHAR
STARTCHAR 0241
ENCODING 577
SWIDTH 450 0
DWIDTH 20 0
BBX 19 31 1 0
BITMAP
1FFC00
3FFF80
7FFFC0
7FFFC0
FFFFE0
FFFFE0
FF7FE0
FC1FE0
700FE0
000FE0
000FE0
000FE0
000FE0
001FE0
003FC0
00FFC0
03FF80
07FE00
07FC00
0FF800
0FF000
07F000
07E000
07E000
07E000
07E000
07E000
07E000
07E000
07E000
07E000
ENDCHAR
STARTCHAR 0242
ENCODING 578
SWIDTH 450 0
DWIDTH 20 0
BBX 19 31 1 0
BITMAP
1FFC00
3FFF80
7FFFC0
7FFFC0
FFFFE0
FFFFE0
FF7FE0
FC1FE0
700FE0
000FE0
000FE0
000FE0
000FE0
001FE0
003FC0
00FFC0
03FF80
07FE00
07FC00
0FF800
0FF000
07F000
07E000
07E000
07E000
07E000
07E000
07E000
07E000
07E000
07E000
ENDCHAR
STARTCHAR 0243
ENCODING 579
SWIDTH 517 0
DWIDTH 23 0
BBX 21 31 1 0
BITMAP
0C0000
7FF800
FFFE00
FFFF00
FFFF00
FFFF80
FFFF80
FF3FC0
FF0FC0
7F0FC0
7F0F80
7F0F80
7F9F80
7FFF00
7FFE00
7FFF80
3FFFE0
3FFFE0
3FFFF0
3FD3F8
7FF3F8
FFFBF8
FFFBF8
FFFBF8
FFEFF8
1FFFF8
1FFFF0
1FFFE0
1FFFC0
1FFE00
030000
ENDCHAR
STARTCHAR 0244
ENCODING 580
SWIDTH 562 0
DWIDTH 25 0
BBX 24 29 1 2
BITMAP
1F80FE
1FC0FE
1F80FE
3F80FE
3F807E
3F80FE
FFFFFF
FFFFFF
FFFFFF
FFFFFF
FFFFFF
FFFFFE
7F81FE
7F81FE
FF81FE
7FC1FE
7FE1FE
7FFFFE
7FFFFC
7FFFFC
7FFFFC
7FFFF8
3FFFF8
3FFFF0
1FFFF0
1FFFE0
0FFFC0
07FF80
01FF00
ENDCHAR
STARTCHAR 0253
ENCODING 595
SWIDTH 675 0
DWIDTH 30 0
BBX 28 31 1 0
BITMAP
00180000
07FFF000
1FFFFC00
3FFFFE00
7FFFFE00
7FFFFF00
7FFFFF00
FFFE7F80
FFFE1F80
FCFE1F80
F8FE1F00
F8FE1F00
F8FF3F00
F8FFFE00
7EFFFC00
7EFFFF00
7E7FFFC0
3E7FFFC0
3E7FFFE0
1E7F87F0
007F87F0
007F87F0
007F8FF0
007FDFF0
007FFFF0
003FFFF0
003FFFE0
003FFFC0
003FFF80
003FFC00
00160000
ENDCHAR
STARTCHAR 0254
ENCODING 596
SWIDTH 472 0
DWIDTH 21 0
BBX 20 30 1 0
BITMAP
0FE000
3FFC00
7FFF00
FFFF80
FFFFC0
FFFFC0
FFFFE0
FFFFE0
01FFF0
007FF0
003FF0
001FF0
001FF0
001FF0
001FF0
001FF0
603FF0
FFFFF0
FFFFF0
FFFFF0
FFFFE0
FFFFE0
FFFFE0
FFFFC0
FFFFC0
7FFF80
3FFF80
1FFF00
0FFC00
010000
ENDCHAR
STARTCHAR 0256
ENCODING 598
SWIDTH 472 0
DWIDTH 21 0
BBX 21 30 0 0
BITMAP
1FF000
3FFC00
3FFF00
3FFF80
3FFFC0
3FFFE0
3FFFE0
3FFFF0
3FE7F0
3FC1F8
3FF9F8
FFF9F8
FFF9F8
FFFDF8
FFFDF8
FFE3F8
FFE7F0
1FEFF0
0FFFE0
0FFFE0
0FFFC0
0FFFC0
0FFF80
07FF00
07FF00
07FE00
07F800
03F000
03C000
030000
ENDCHAR
STARTCHAR 0257
ENCODING 599
SWIDTH 630 0
DWIDTH 28 0
BBX 27 30 1 0
BITMAP
07FF8000
1FFFF000
3FFFF800
7FFFFC00
7FFFFE00
7FFFFF00
FFFFFF80
FFFFFF80
FCFF1FC0
F8FF0FC0
F8FF07C0
F8FF07E0
F8FF07E0
7EFF0FE0
7EFF0FC0
7EFF1FC0
3E7F1F80
3E7F3F80
1E7FFF80
007FFF00
007FFF00
003FFE00
003FFC00
003FFC00
003FF800
003FF000
001FE000
001F8000
001E0000
00080000
ENDCHAR
STARTCHAR 0259
ENCODING 601
SWIDTH 472 0
DWIDTH 21 0
BBX 20 30 1 0
BITMAP
001000
1FF800
3FFC00
7FFE00
FFFF00
FFFF80
FFFF80
7CFFC0
001FC0
0007C0
0007E0
0007E0
7FFFE0
FFFFE0
FFFFE0
FFFFE0
FFFFF0
FFFFF0
FF07F0
FF0FF0
FF0FF0
FFFFF0
FFFFF0
7FFFF0
7FFFF0
7FFFF0
3FFFE0
1FFFC0
0FFF80
03FF00
ENDCHAR
STARTCHAR 025B
ENCODING 603
SWIDTH 472 0
DWIDTH 21 0
BBX 20 31 1 0
BITMAP
03F800
0FFE00
1FFF80
3FFFC0
7FFFC0
FFFFC0
FFC040
FF8000
FF0000
FF0000
FF0000
FF0000
7F8000
7FFE00
3FFF00
1FFF00
1FFF00
3FFC00
3FC000
3F8000
3F8000
7F8000
7F8000
7FC0F0
7FFFF0
3FFFF0
3FFFF0
1FFFE0
0FFFE0
07FFC0
00FE00
ENDCHAR
STARTCHAR 0260
ENCODING 608
SWIDTH 495 0
DWIDTH 22 0
BBX 21 38 1 0
BITMAP
0003F8
0007F8
001FF8
003FF8
003FF8
003FF0
003FC0
007F80
01FF80
03FFC0
03FFE0
07FFF0
0FFFF0
1FFFF0
1FF3E0
1F8000
3F0000
3F0000
3E0000
7E0000
7E00F8
7E1FF0
7E1FF0
FE1FF0
FE1FF0
FE1FF0
FE1FF0
FE1FF0
FFBFF0
FFFFF0
FFFFF0
FFFFF0
FFFFE0
7FFFC0
3FFF00
1FFC00
0FF000
040000
ENDCHAR
STARTCHAR 0263
ENCODING 611
SWIDTH 607 0
DWIDTH 27 0
BBX 25 36 1 -6
BITMAP
FE000000
FE003800
FE003F80
7F007F80
7F007F80
7F00FF80
3F00FF00
3F80FF00
3F81FE00
1F81FE00
1FC1FC00
1FC3FC00
0FE3F800
0FE7F800
07F7F800
07F7F000
03FFF000
01FFE000
01FFE000
00FFC000
00FF8000
00FF8000
01FFC000
03FFC000
03FFC000
03E7C000
07E3C000
07C3C000
07C3E000
07C3C000
03E7C000
03FFC000
01FF8000
00FF0000
007E0000
00100000
ENDCHAR
STARTCHAR 0268
ENCODING 616
SWIDTH 360 0
DWIDTH 16 0
BBX 15 30 1 0
BITMAP
0FF0
0FFC
0FF8
0FF8
0FF8
0FF8
1FF8
1FF8
1FF8
1FF0
1FF0
1FF0
1FFE
FFFC
FFFC
FFFC
FFFC
FFFC
3FF0
3FF0
3FF0
3FF0
3FF0
3FF0
3FF0
3FE0
3FE0
3FF0
7FE0
7C00
ENDCHAR
STARTCHAR 0272
ENCODING 626
SWIDTH 562 0
DWIDTH 25 0
BBX 28 36 -3 -6
BITMAP
00600380
01FE0FE0
03FF1FF0
03FE1FE0
03FE1FE0
03FF1FE0
03FF1FE0
03FF1FE0
03FF3FE0
07FF1FE0
07FF9FE0
07FF9FC0
07FF9FC0
07FF9FC0
07FFFFC0
07FFFFC0
07FFFFC0
07FBFFC0
07FBFFC0
07FBFFC0
0FF9FFC0
0FF9FFC0
0FF9FFC0
0FF8FFC0
0FF8FFC0
0FF0FF80
0FF07F80
0FF07FC0
0FF07F80
1FF00000
FFE00000
FFE00000
FFC00000
FF800000
FF000000
78000000
ENDCHAR
STARTCHAR 0278
ENCODING 632
SWIDTH 652 0
DWIDTH 29 0
BBX 28 35 1 -2
BITMAP
003FC000
003FE000
003FE000
003FE000
07FFEF00
1FFFFF80
3FFFFFC0
7FFFFFC0
7FFFFFE0
7FFFFFE0
FFFFFFE0
FFFFFFE0
FFBFFFE0
FF3FDFF0
FF3FDFF0
FE3FDFF0
FE3F8FF0
FE3F8FF0
FF3F8FE0
FF3F9FE0
FF3F9FE0
FFFF9FE0
FFFFBFE0
FFFFFFC0
FFFFFFC0
7FFFFF80
7FFFFF80
7FFFFF00
3FFFFE00
3FFFFC00
0CFFF800
00FE0000
00FE0000
00FE0000
00FE0000
ENDCHAR
STARTCHAR 0289
ENCODING 649
SWIDTH 562 0
DWIDTH 25 0
BBX 24 29 1 2
BITMAP
1F80FE
1FC0FE
1F80FE
3F80FE
3F807E
3F80FE
FFFFFF
FFFFFF
FFFFFF
FFFFFF
FFFFFF
FFFFFE
7F81FE
7F81FE
FF81FE
7FC1FE
7FE1FE
7FFFFE
7FFFFC
7FFFFC
7FFFFC
7FFFF8
3FFFF8
3FFFF0
1FFFF0
1FFFE0
0FFFC0
07FF80
01FF00
ENDCHAR
STARTCHAR 028B
ENCODING 651
SWIDTH 562 0
DWIDTH 25 0
BBX 23 30 1 1
BITMAP
000F00
F83F80
FC7FC0
FC3FE0
FC1FF0
FC0FF0
FE07F8
FE03F8
FE03FC
FE01FC
FE01FE
FF01FE
FF01FE
FF01FE
FF01FE
FF81FE
FF81FE
7FC3FE
7FC7FE
7FFFFE
3FFFFE
3FFFFE
3FFFFC
1FFFFC
1FFFFC
0FFFF8
07FFF0
03FFF0
01FFE0
00FF00
ENDCHAR
STARTCHAR 0292
ENCODING 658
SWIDTH 495 0
DWIDTH 22 0
BBX 20 31 1 -1
BITMAP
3FFF80
7FFFC0
7FFFC0
7FFFC0
3FFF80
000F80
003F00
007E00
00FC00
01FC00
07FE00
0FFF80
1FFFC0
3FFFE0
3FFFE0
071FE0
0007F0
0003F0
0003F0
0001F0
0001F0
F003F0
FE07F0
FFFFF0
FFFFF0
FFFFE0
FFFFE0
7FFFC0
0FFF80
07FE00
007000
ENDCHAR
STARTCHAR 0294
ENCODING 660
SWIDTH 450 0
DWIDTH 20 0
BBX 19 31 1 0
BITMAP
1FFC00
3FFF80
7FFFC0
7FFFC0
FFFFE0
FFFFE0
FF7FE0
FC1FE0
700FE0
000FE0
000FE0
000FE0
000FE0
001FE0
003FC0
00FFC0
03FF80
07FE00
07FC00
0FF800
0FF000
07F000
07E000
07E000
07E000
07E000
07E000
07E000
07E000
07E000
07E000
ENDCHAR
STARTCHAR 0295
ENCODING 661
SWIDTH 450 0
DWIDTH 20 0
BBX 19 31 1 0
BITMAP
07FE00
3FFF80
7FFF80
FFFFC0
FFFFC0
FFFFE0
FFFFE0
FE07E0
FE0180
FE0000
FE0000
FE0000
FE0000
FF0000
FF8000
7FC000
3FF000
1FF800
0FFC00
03FC00
03FC00
01FC00
01FC00
01FC00
01FC00
01FC00
01FC00
01FC00
01FC00
01FC00
00FC00
ENDCHAR
STARTCHAR 0296
ENCODING 662
SWIDTH 450 0
DWIDTH 20 0
BBX 19 31 1 0
BITMAP
07E000
07E000
07E000
07E000
07E000
07E000
07E000
07E000
07E000
07F000
0FF000
07F800
07FC00
07FF00
01FF80
007FC0
003FC0
001FE0
000FE0
000FE0
000FE0
000FE0
700FE0
FC1FE0
FFFFE0
FFFFE0
FFFFE0
7FFFC0
7FFFC0
3FFF80
0FF800
ENDCHAR
STARTCHAR 02B9
ENCODING 697
SWIDTH 202 0
DWIDTH 9 0
BBX 8 16 1 16
BITMAP
1F
3F
3F
3E
3E
7E
7C
7C
7C
F8
F8
F8
F0
F0
F0
30
ENDCHAR
STARTCHAR 02BA
ENCODING 698
SWIDTH 382 0
DWIDTH 17 0
BBX 16 16 1 16
BITMAP
1F1F
3F1F
3F3F
3E3F
3E3E
7E3E
7C7E
7C7C
7C7C
F87C
F878
F8F8
F0F8
F0F0
F0F0
3030
ENDCHAR
STARTCHAR 02BB
ENCODING 699
SWIDTH 202 0
DWIDTH 9 0
BBX 8 16 1 16
BITMAP
1C
3E
3E
3F
7F
7E
7E
FE
FE
FE
FE
FE
FE
FE
FE
38
ENDCHAR
STARTCHAR 02BC
ENCODING 700
SWIDTH 202 0
DWIDTH 9 0
BBX 8 16 1 16
BITMAP
7E
7F
7F
7F
7F
7F
FE
FE
FE
FE
FC
FC
FC
F8
78
10
ENDCHAR
STARTCHAR 02BD
ENCODING 701
SWIDTH 202 0
DWIDTH 9 0
BBX 8 16 1 16
BITMAP
FC
FE
FE
FE
FE
FE
FE
FE
FE
7E
7F
7F
3F
3E
1C
08
ENDCHAR
STARTCHAR 02C6
ENCODING 710
SWIDTH 315 0
DWIDTH 14 0
BBX 13 6 1 31
BITMAP
0F80
1FC0
3FE0
7FF0
FDF8
F8F8
ENDCHAR
STARTCHAR 02C7
ENCODING 711
SWIDTH 315 0
DWIDTH 14 0
BBX 13 7 1 31
BITMAP
F0F8
F9F8
FFF0
7FE0
1FC0
0F80
0600
ENDCHAR
STARTCHAR 02C8
ENCODING 712
SWIDTH 112 0
DWIDTH 5 0
BBX 4 8 1 31
BITMAP
F0
F0
F0
F0
F0
E0
E0
E0
ENDCHAR
STARTCHAR 02C9
ENCODING 713
SWIDTH 315 0
DWIDTH 14 0
BBX 13 4 1 32
BITMAP
FFF8
FFF8
FFF8
FFF8
ENDCHAR
STARTCHAR 02CA
ENCODING 714
SWIDTH 225 0
DWIDTH 10 0
BBX 9 7 1 31
BITMAP
1F80
3F00
7E00
7C00
F800
F000
1000
ENDCHAR
STARTCHAR 02CB
ENCODING 715
SWIDTH 225 0
DWIDTH 10 0
BBX 9 6 1 31
BITMAP
FC00
FE00
7E00
3F00
1F00
0F80
ENDCHAR
STARTCHAR 02CC
ENCODING 716
SWIDTH 112 0
DWIDTH 5 0
BBX 4 7 1 -7
BITMAP
E0
E0
E0
F0
F0
F0
F0
ENDCHAR
STARTCHAR 02CD
ENCODING 717
SWIDTH 315 0
DWIDTH 14 0
BBX 13 4 1 -6
BITMAP
FFF8
FFF8
FFF8
FFF8
ENDCHAR
STARTCHAR 02D0
ENCODING 720
SWIDTH 202 0
DWIDTH 9 0
BBX 8 23 1 -1
BITMAP
FE
FF
FF
FE
FE
7C
3C
38
10
00
00
00
00
10
38
38
7C
7E
FE
FF
FF
FF
08
ENDCHAR
STARTCHAR 02D1
ENCODING 721
SWIDTH 202 0
DWIDTH 9 0
BBX 8 9 1 13
BITMAP
FE
FF
FF
FE
FE
7C
3C
38
10
ENDCHAR
STARTCHAR 02D8
ENCODING 728
SWIDTH 315 0
DWIDTH 14 0
BBX 13 7 1 31
BITMAP
E078
F0F8
FFF0
7FF0
7FE0
1FC0
0600
ENDCHAR
STARTCHAR 02D9
ENCODING 729
SWIDTH 135 0
DWIDTH 6 0
BBX 4 5 1 31
BITMAP
70
F0
F0
F0
70
ENDCHAR
STARTCHAR 02DA
ENCODING 730
SWIDTH 315 0
DWIDTH 14 0
BBX 13 11 1 27
BITMAP
1FC0
7FE0
FFF0
F8F8
F0F8
F0F8
F0F8
F8F0
7FF0
3FE0
1F80
ENDCHAR
STARTCHAR 02DB
ENCODING 731
SWIDTH 292 0
DWIDTH 13 0
BBX 11 10 1 -7
BITMAP
0800
1800
3800
7800
7800
F000
F060
FFE0
FFE0
7FE0
ENDCHAR
STARTCHAR 02DC
ENCODING 732
SWIDTH 315 0
DWIDTH 14 0
BBX 13 7 1 31
BITMAP
38F8
7CF8
FFF8
FFF8
FFF0
E7E0
E000
ENDCHAR
STARTCHAR 02DD
ENCODING 733
SWIDTH 405 0
DWIDTH 18 0
BBX 17 7 1 31
BITMAP
1FBF80
3F3F00
7E7E00
7CFC00
F8F800
F0F000
100000
ENDCHAR
STARTCHAR 0300
ENCODING 768
SWIDTH 0 0
DWIDTH 0 0
BBX 8 6 -18 31
BITMAP
FC
FE
7E
3F
1F
0F
ENDCHAR
STARTCHAR 0301
ENCODING 769
SWIDTH 0 0
DWIDTH 0 0
BBX 9 6 -13 31
BITMAP
1F80
3F80
3F00
7E00
7C00
F800
ENDCHAR
STARTCHAR 0302
ENCODING 770
SWIDTH 0 0
DWIDTH 0 0
BBX 13 7 -19 31
BITMAP
0780
1FC0
3FE0
7FF8
FCF8
F878
0020
ENDCHAR
STARTCHAR 0303
ENCODING 771
SWIDTH 0 0
DWIDTH 0 0
BBX 13 7 -19 31
BITMAP
3878
7E78
FFF8
FFF8
FFF0
F3E0
8000
ENDCHAR
STARTCHAR 0304
ENCODING 772
SWIDTH 0 0
DWIDTH 0 0
BBX 13 4 -19 32
BITMAP
FFF8
FFF8
FFF8
FFF8
ENDCHAR
STARTCHAR 0305
ENCODING 773
SWIDTH 0 0
DWIDTH 0 0
BBX 16 6 -20 31
BITMAP
FFFE
FFFF
FFFF
FFFF
FFFF
7FFE
ENDCHAR
STARTCHAR 0306
ENCODING 774
SWIDTH 0 0
DWIDTH 0 0
BBX 13 7 -19 31
BITMAP
F038
F878
7FF8
7FF0
3FF0
1FE0
0300
ENDCHAR
STARTCHAR 0307
ENCODING 775
SWIDTH 0 0
DWIDTH 0 0
BBX 5 5 -15 31
BITMAP
70
78
F8
F8
30
ENDCHAR
STARTCHAR 0308
ENCODING 776
SWIDTH 0 0
DWIDTH 0 0
BBX 12 5 -18 31
BITMAP
F0E0
F1F0
F1F0
F1F0
60E0
ENDCHAR
STARTCHAR 030A
ENCODING 778
SWIDTH 0 0
DWIDTH 0 0
BBX 13 11 -19 30
BITMAP
0200
1FC0
3FF0
7DF8
F878
F078
F878
F8F8
7FF0
3FE0
0F80
ENDCHAR
STARTCHAR 030B
ENCODING 779
SWIDTH 0 0
DWIDTH 0 0
BBX 16 6 -17 31
BITMAP
3F3F
3F7F
7E7E
FCFC
F8F8
F1F0
ENDCHAR
STARTCHAR 030C
ENCODING 780
SWIDTH 0 0
DWIDTH 0 0
BBX 13 7 -19 31
BITMAP
F878
FDF8
7FF8
3FF0
1FE0
0F80
0200
ENDCHAR
STARTCHAR 030D
ENCODING 781
SWIDTH 0 0
DWIDTH 0 0
BBX 4 8 -14 31
BITMAP
F0
F0
F0
F0
E0
E0
E0
E0
ENDCHAR
STARTCHAR 0311
ENCODING 785
SWIDTH 0 0
DWIDTH 0 0
BBX 13 7 -19 31
BITMAP
0FC0
3FE0
7FF0
7FF8
F8F8
F078
F038
ENDCHAR
STARTCHAR 0323
ENCODING 803
SWIDTH 0 0
DWIDTH 0 0
BBX 5 5 -15 -7
BITMAP
30
F8
F8
F8
70
ENDCHAR
STARTCHAR 0326
ENCODING 806
SWIDTH 0 0
DWIDTH 0 0
BBX 7 6 -17 -6
BITMAP
7E
7E
7E
7C
FC
78
ENDCHAR
STARTCHAR 0327
ENCODING 807
SWIDTH 0 0
DWIDTH 0 0
BBX 12 10 -19 -7
BITMAP
1F00
1F00
1F00
1F80
0FC0
03E0
41F0
FFF0
FFF0
7FE0
ENDCHAR
STARTCHAR 0328
ENCODING 808
SWIDTH 0 0
DWIDTH 0 0
BBX 12 10 -18 -6
BITMAP
0C00
1C00
1C00
3800
7800
7800
F870
FFF0
7FF0
3FF0
ENDCHAR
STARTCHAR 0329
ENCODING 809
SWIDTH 0 0
DWIDTH 0 0
BBX 4 7 -14 -7
BITMAP
E0
E0
E0
E0
F0
F0
F0
ENDCHAR
STARTCHAR 0331
ENCODING 817
SWIDTH 0 0
DWIDTH 0 0
BBX 13 4 -19 -6
BITMAP
FFF8
FFF8
FFF8
7FF8
ENDCHAR
STARTCHAR 0342
ENCODING 834
SWIDTH 0 0
DWIDTH 0 0
BBX 13 7 -19 31
BITMAP
3878
7E78
FFF8
FFF8
FFF0
F3E0
8000
ENDCHAR
STARTCHAR 0344
ENCODING 836
SWIDTH 0 0
DWIDTH 0 0
BBX 12 9 -18 31
BITMAP
03C0
0780
0780
0F00
0EC0
F1F0
F1F0
F1E0
7040
ENDCHAR
STARTCHAR 0345
ENCODING 837
SWIDTH 0 0
DWIDTH 0 0
BBX 8 7 -14 -7
BITMAP
E0
E0
E0
E0
FF
FF
7F
ENDCHAR
STARTCHAR 0374
ENCODING 884
SWIDTH 202 0
DWIDTH 9 0
BBX 8 7 1 25
BITMAP
3F
3E
7E
7C
78
F0
F0
ENDCHAR
STARTCHAR 0375
ENCODING 885
SWIDTH 202 0
DWIDTH 9 0
BBX 8 7 1 -7
BITMAP
0F
1E
1E
3E
7C
FC
F8
ENDCHAR
STARTCHAR 037A
ENCODING 890
SWIDTH 202 0
DWIDTH 9 0
BBX 8 7 1 -7
BITMAP
E0
E0
E0
E0
FF
FF
7F
ENDCHAR
STARTCHAR 037B
ENCODING 891
SWIDTH 472 0
DWIDTH 21 0
BBX 20 30 1 0
BITMAP
0FE000
3FFC00
7FFF00
FFFF80
FFFFC0
FFFFC0
FFFFE0
FFFFE0
01FFF0
007FF0
003FF0
001FF0
001FF0
001FF0
001FF0
001FF0
603FF0
FFFFF0
FFFFF0
FFFFF0
FFFFE0
FFFFE0
FFFFE0
FFFFC0
FFFFC0
7FFF80
3FFF80
1FFF00
0FFC00
010000
ENDCHAR
STARTCHAR 037E
ENCODING 894
SWIDTH 202 0
DWIDTH 9 0
BBX 8 29 1 -7
BITMAP
38
7E
FF
FF
FF
FF
FE
3C
00
00
00
00
00
00
3C
7E
7F
7F
7F
7F
FE
FE
FE
FE
FC
FC
FC
F8
70
ENDCHAR
STARTCHAR 037F
ENCODING 895
SWIDTH 450 0
DWIDTH 20 0
BBX 19 30 1 0
BITMAP
007FC0
00FFC0
00FFC0
00FFC0
00FFC0
00FFC0
01FFC0
01FFC0
01FFC0
01FFC0
01FFE0
01FFE0
01FFE0
01FFE0
01FFE0
00FFE0
00FFE0
00FFE0
007FE0
007FC0
7C7FC0
FE7FC0
FF7FC0
FF7F80
FFFF80
FFFF00
7FFF00
3FFE00
1FF800
03F000
ENDCHAR
STARTCHAR 0384
ENCODING 900
SWIDTH 157 0
DWIDTH 7 0
BBX 6 7 1 25
BITMAP
3C
7C
78
78
F0
E0
E0
ENDCHAR
STARTCHAR 0385
ENCODING 901
SWIDTH 292 0
DWIDTH 13 0
BBX 12 9 1 31
BITMAP
03C0
03C0
0780
0700
0E40
F1F0
F1F0
F1F0
7060
ENDCHAR
STARTCHAR 0386
ENCODING 902
SWIDTH 630 0
DWIDTH 28 0
BBX 26 33 1 -1
BITMAP
03C00000
03C00000
078F0000
078F8000
071F8000
0F1F8000
0E3FC000
003FC000
003FC000
007FC000
007FC000
007FE000
00FFE000
00FFE000
01FFF000
01FFF000
01FFF000
03FFF800
03EFF800
07C7F800
0787FC00
0F83FC00
0FBFFC00
1FFFFE00
1FFFFE00
1FFFFE00
3FC3FF00
3F83FF00
7F83FF80
7F01FF80
FF01FFC0
FF01FFC0
FC008000
ENDCHAR
STARTCHAR 0387
ENCODING 903
SWIDTH 202 0
DWIDTH 9 0
BBX 8 8 1 14
BITMAP
38
7E
FF
FF
FF
FF
FE
3C
ENDCHAR
STARTCHAR 0388
ENCODING 904
SWIDTH 585 0
DWIDTH 26 0
BBX 25 32 0 0
BITMAP
3C000000
3C7FE000
7FFFF800
7FFFF800
77FFF800
F3FFF000
E3FFF000
03FFF000
03FFF000
03FFF000
01FF0000
01FC0000
01FC0000
01FE1000
01FFF000
01FFF000
00FFF000
00FFF000
00FF8000
00FE0000
00FF0700
007FFF00
007FFF00
007FFF80
007FFF80
007FFF80
007FFF80
007FFF80
007FFF80
007FFE00
003FC000
003C0000
ENDCHAR
STARTCHAR 0389
ENCODING 905
SWIDTH 607 0
DWIDTH 27 0
BBX 26 31 0 1
BITMAP
3C000000
3C000000
7CFE0000
7BFE1FC0
77FC1FC0
F3FE1FC0
E3FE1FC0
03FE1FC0
03FC3FC0
03FC3FC0
07FC3FC0
07FE3FC0
07FE3FC0
07FFFFC0
07FFFFC0
07FFFFC0
07FFFF80
07FFFF80
07FFFFC0
07FFFFC0
0FFFFFC0
0FFFFFC0
0FFC7FC0
0FFC7FC0
0FFC7FC0
0FFC7F80
0FFC7F80
0FFC7F80
0FFC7F80
1FFC7F80
1FF8F800
ENDCHAR
STARTCHAR 038A
ENCODING 906
SWIDTH 360 0
DWIDTH 16 0
BBX 16 32 0 0
BITMAP
3C00
3C00
7DFE
7BFF
73FF
F3FE
E3FE
03FE
03FE
03FE
03FE
07FE
07FE
07FE
07FE
07FE
07FE
07FE
07FE
07FE
07FE
07FE
07FE
07FE
07FE
07FE
0FFC
0FFC
0FFC
0FFC
0FF8
1F00
ENDCHAR
STARTCHAR 038C
ENCODING 908
SWIDTH 540 0
DWIDTH 24 0
BBX 24 32 0 0
BITMAP
3C0000
3CF000
7DFC00
7BFE00
73FF80
F7FFC0
E7FFE0
0FFFF0
0FFFF8
1FFFF8
1FFFFC
1FFFFC
3FFFFE
3FE1FE
3FC1FE
7FC1FF
7FC1FF
7FC1FF
3FC1FF
3FE1FF
3FF3FF
3FFFFF
3FFFFE
1FFFFE
1FFFFE
1FFFFE
0FFFFC
0FFFFC
07FFFC
03FFF8
01FFE0
003FC0
ENDCHAR
STARTCHAR 038E
ENCODING 910
SWIDTH 675 0
DWIDTH 30 0
BBX 30 32 0 0
BITMAP
3C000000
3C000004
7C0003FC
78F003F8
77F003F8
FFF807F8
E7F807F0
07FC0FF0
03FC0FE0
03FE1FE0
01FE1FC0
01FF3FC0
00FF3F80
00FF7F80
007FFF00
007FFF00
003FFE00
003FFE00
001FFC00
001FFC00
000FF800
000FF800
0007F000
0007F000
0003F800
0003F800
0003F800
0003F800
0003F800
0003F800
0003F800
0003E000
ENDCHAR
STARTCHAR 038F
ENCODING 911
SWIDTH 630 0
DWIDTH 28 0
BBX 28 32 0 0
BITMAP
3C000000
3C7FE000
7DFFF800
7BFFFE00
77FFFE00
FFFFFF00
EFFFFF80
0FFFFFC0
1FFFFFC0
1FFFFFE0
1FF03FE0
1FE01FE0
1FC00FE0
1FC00FE0
1FC00FF0
1F8007F0
1F8007F0
1F8007F0
1FC007E0
0FC007E0
0FC00FE0
0FE00FC0
07E00FC0
07F01FC0
03F03F80
3FF83FF0
3FF87FF0
3FF87FF0
3FF87FF0
3FF87FF0
3FF87FF0
3FF87FF0
ENDCHAR
STARTCHAR 0390
ENCODING 912
SWIDTH 315 0
DWIDTH 14 0
BBX 15 40 1 0
BITMAP
0078
00F0
00E0
01E0
01D8
1E3E
3E3E
3E3C
1C18
0000
0FF0
1FF8
1FF8
1FF0
1FF0
1FF0
1FF0
1FF0
3FF0
3FF0
3FF0
3FF0
3FF0
3FF0
3FE0
3FE0
3FE0
3FE0
3FE0
3FE0
3FE0
3FF0
3FF0
7FF0
7FE0
7FE0
7FE0
7FE0
FFC0
F800
ENDCHAR
STARTCHAR 0391
ENCODING 913
SWIDTH 630 0
DWIDTH 28 0
BBX 26 31 1 -1
BITMAP
000F0000
000F8000
001F8000
001F8000
003FC000
003FC000
003FC000
007FC000
007FC000
007FE000
00FFE000
00FFE000
01FFF000
01FFF000
01FFF000
03FFF800
03EFF800
07C7F800
0787FC00
0F83FC00
0FBFFC00
1FFFFE00
1FFFFE00
1FFFFE00
3FC3FF00
3F83FF00
7F83FF80
7F01FF80
FF01FFC0
FF01FFC0
FC008000
ENDCHAR
STARTCHAR 0392
ENCODING 914
SWIDTH 517 0
DWIDTH 23 0
BBX 21 31 1 0
BITMAP
0C0000
7FF800
FFFE00
FFFF00
FFFF00
FFFF80
FFFF80
FF3FC0
FF0FC0
7F0FC0
7F0F80
7F0F80
7F9F80
7FFF00
7FFE00
7FFF80
3FFFE0
3FFFE0
3FFFF0
3FC3F8
3FC3F8
3FC3F8
3FC7F8
3FEFF8
3FFFF8
1FFFF8
1FFFF0
1FFFE0
1FFFC0
1FFE00
030000
ENDCHAR
STARTCHAR 0393
ENCODING 915
SWIDTH 495 0
DWIDTH 22 0
BBX 21 31 1 0
BITMAP
01FFE0
7FFFF0
FFFFF0
FFFFF0
FFFFF0
FFFFF8
FFFF78
FF8000
FF0000
FF0000
FF0000
FF0000
FF0000
FF0000
FF0000
FF0000
FF0000
FF0000
FF0000
FF0000
FF0000
FF0000
FF0000
FF0000
FF0000
FF0000
FF0000
FF0000
FF8000
7F8000
7C0000
ENDCHAR
STARTCHAR 0394
ENCODING 916
SWIDTH 585 0
DWIDTH 26 0
BBX 24 30 1 0
BITMAP
000F00
003FC0
003FC0
007FC0
007FC0
00FFE0
01FFE0
01FFE0
03FFE0
03FFF0
07FFF0
07FFF0
07FFF0
0FF7F8
0FF3F8
1FF3F8
1FE3FC
3FE3FC
3FE3FC
3FC3FE
7FC3FE
7FC3FE
7F83FF
FF81FF
FFFFFF
FFFFFF
FFFFFF
FFFFFF
FFFFFF
FFFFFF
ENDCHAR
STARTCHAR 0395
ENCODING 917
SWIDTH 495 0
DWIDTH 22 0
BBX 20 31 1 0
BITMAP
0FF800
7FFF00
FFFF00
FFFE00
FFFE00
7FFE00
7FFE00
7FFE00
7FFE00
7FE400
3F8000
3F8000
3F8400
3FFE00
3FFC00
3FFE00
1FFE00
1FF000
1FC000
1FE0C0
1FFFE0
0FFFE0
0FFFE0
0FFFF0
0FFFF0
0FFFF0
0FFFF0
0FFFF0
0FFF80
0FF800
078000
ENDCHAR
STARTCHAR 0396
ENCODING 918
SWIDTH 585 0
DWIDTH 26 0
BBX 25 31 1 0
BITMAP
001E0000
03FFF800
3FFFF800
7FFFF000
7FFFE000
FFFFE000
FFFFC000
FFFFC000
FE3F8000
003F8000
003F0000
007F0000
007E0000
00FE0000
00FE0000
00FE0000
01FC0000
01FC0000
01FC0000
03FC0000
03FC0000
03F80000
07F00000
07FFFF80
07FFFF80
0FFFFF80
0FFFFF00
0FFFFF00
09FFFE00
003FF800
0003C000
ENDCHAR
STARTCHAR 0397
ENCODING 919
SWIDTH 562 0
DWIDTH 25 0
BBX 23 29 1 1
BITMAP
07F000
1FF0FE
3FE0FE
3FE1FE
1FF1FE
1FF1FE
1FE1FE
3FE1FE
3FE1FE
3FE1FE
3FE1FE
3FFFFE
3FFFFE
3FFFFC
3FFFFC
3FFFFC
3FFFFE
7FFFFE
7FFFFE
7FFFFE
7FE3FE
7FE3FE
7FE3FE
7FC3FC
7FC3FC
7FE3FC
7FE3FC
FFE3FC
FFC7C0
ENDCHAR
STARTCHAR 0398
ENCODING 920
SWIDTH 517 0
DWIDTH 23 0
BBX 22 31 1 0
BITMAP
01F800
07FE00
0FFF80
3FFFC0
3FFFE0
7FFFF0
7FFFF0
7FFFF8
7FFFF8
FFFFF8
FFFFF8
FF8FFC
FF07FC
FF03FC
FFFFFC
FFFFFC
FFFFFC
FFFFFC
FF03FC
FF03FC
7FC7FC
7FFFF8
7FFFF8
3FFFF8
3FFFF0
1FFFF0
1FFFF0
0FFFE0
03FFE0
01FFC0
007F80
ENDCHAR
STARTCHAR 0399
ENCODING 921
SWIDTH 315 0
DWIDTH 14 0
BBX 13 30 1 0
BITMAP
0FF0
1FF8
1FF8
1FF0
1FF0
1FF0
1FF0
1FF0
3FF0
3FF0
3FF0
3FF0
3FF0
3FF0
3FE0
3FE0
3FE0
3FE0
3FE0
3FE0
3FE0
3FF0
3FF0
7FF0
7FE0
7FE0
7FE0
7FE0
FFC0
F800
ENDCHAR
STARTCHAR 039A
ENCODING 922
SWIDTH 540 0
DWIDTH 24 0
BBX 23 31 1 0
BITMAP
000060
FFF0E0
7FF1F0
7FF1FE
FFF3FC
FFF7FC
FFF7F8
FFF7F0
FFFFF0
FFFFE0
FFFFC0
FFFF80
FFFF80
FFFF00
FFFF00
FFFE00
FFFC00
FFFE00
FFFF00
FFFF80
FFFFC0
FFFFE0
FFFFF0
FFE7F0
FFE7F8
FFE3FC
FFE3FC
FFE1FE
FFF0FE
FFE0E0
03C0C0
ENDCHAR
STARTCHAR 039B
ENCODING 923
SWIDTH 585 0
DWIDTH 26 0
BBX 25 29 1 1
BITMAP
01C00000
07E00000
07E00000
07F00000
07F80000
0FF80000
0FFC0000
0FFE0000
0FFE0000
0FFF0000
1FFF8000
1FFF8000
1FFFC000
1FFFC000
3FDFE000
3FDFF000
3FDFF000
3FDFF800
3FCFF800
7F8FFC00
7F8FFC00
7F8FFE00
7F87FE00
FF87FE00
FF87FF00
FF87FF00
FF87FF00
FF803F80
FF000380
ENDCHAR
STARTCHAR 039C
ENCODING 924
SWIDTH 652 0
DWIDTH 29 0
BBX 27 30 1 0
BITMAP
0C000600
0E000F00
0F001F00
0F001F00
1F803F00
1FC03F00
1FC07F00
1FE07F00
1FE0FF80
1FF0FF80
3FF9FF80
3FFBFF80
3FFFFF80
3FFFFF80
3FFFFF80
3FFFFF80
3FFFFFC0
7FEF7FC0
7FE77FC0
7FC27FC0
7FC0FFC0
7FC0FFC0
7F80FFC0
7F80FFC0
FF80FFE0
FF00FFE0
FF00FFE0
FF00FFE0
FE00FFE0
FE000000
ENDCHAR
STARTCHAR 039D
ENCODING 925
SWIDTH 562 0
DWIDTH 25 0
BBX 24 30 1 0
BITMAP
060038
1FE0FE
3FF1FF
3FE1FE
3FE1FE
3FF1FE
3FF1FE
3FF1FE
3FF3FE
7FF1FE
7FF9FE
7FF9FC
7FF9FC
7FF9FC
7FFFFC
7FFFFC
7FFFFC
7FBFFC
7FBFFC
7FBFFC
FF9FFC
FF9FFC
FF9FFC
FF8FFC
FF8FFC
FF8FF8
FF87F8
FF87FC
FF87F8
F00000
ENDCHAR
STARTCHAR 039E
ENCODING 926
SWIDTH 472 0
DWIDTH 21 0
BBX 20 30 1 0
BITMAP
FFF200
FFFFF0
FFFFF0
FFFFF0
FFFFF0
FFFFF0
FFFFF0
0003C0
000000
000000
000000
3FFF80
3FFF80
3FFF80
3FFF80
3FFF80
3FFF80
1E0000
000000
000000
000000
000000
FFF000
FFFFF0
FFFFF0
FFFFF0
FFFFF0
FFFFF0
FFFFE0
000F00
ENDCHAR
STARTCHAR 039F
ENCODING 927
SWIDTH 517 0
DWIDTH 23 0
BBX 22 31 1 0
BITMAP
03C000
07F000
07FC00
0FFE00
0FFF80
1FFF80
1FFFC0
3FFFE0
3FFFE0
7FFFF0
7FFFF8
7FFFF8
FF87F8
FF07FC
FF03FC
FF03FC
FF03FC
FF07FC
FF87FC
FFEFFC
FFFFFC
7FFFFC
7FFFF8
7FFFF8
3FFFF8
3FFFF8
1FFFF0
1FFFF0
0FFFE0
03FFC0
00FF00
ENDCHAR
STARTCHAR 03A0
ENCODING 928
SWIDTH 540 0
DWIDTH 24 0
BBX 23 30 1 0
BITMAP
FFFFFC
FFFFFC
FFFFFC
FFFFFE
FFFFFE
FFFFFE
FFFFFC
FE79FC
FF01FC
FF01FC
FF01FC
FF01FC
FF01FC
FF01FC
FF01FC
FF01FC
FF01FC
FF01FC
FF01FC
7F81FC
7F81FC
7F81FC
7F81FC
7F81FC
7F81FC
7F81FC
7F81FC
7F81FE
7F81FE
200000
ENDCHAR
STARTCHAR 03A1
ENCODING 929
SWIDTH 495 0
DWIDTH 22 0
BBX 20 30 1 1
BITMAP
1FF800
7FFF00
7FFF80
7FFFC0
7FFFC0
7FFFE0
7F9FE0
7F83F0
7F83F0
7F83F0
7F83F0
7FC7F0
7FC7F0
7FFFF0
7FFFF0
FFFFE0
FFFFC0
FFFF80
FFE000
FFE000
FFE000
FFE000
FFE000
FFE000
FFE000
FFE000
FFE000
FFE000
FFE000
FFE000
ENDCHAR
STARTCHAR 03A3
ENCODING 931
SWIDTH 472 0
DWIDTH 21 0
BBX 20 30 1 0
BITMAP
FFFFE0
FFFFF0
FFFFF0
FFFFF0
FFFFF0
FFFFF0
FFFDE0
FF8000
7FE000
3FF000
0FF800
07FC00
03FF00
00FF00
007F00
007F00
00FF00
01FE00
03FC00
07F800
1FF000
3FE000
7FC000
FFFFF0
FFFFF0
FFFFF0
FFFFF0
FFFFF0
FFFFF0
03FFE0
ENDCHAR
STARTCHAR 03A4
ENCODING 932
SWIDTH 562 0
DWIDTH 25 0
BBX 24 30 1 0
BITMAP
1FFFF8
FFFFFE
FFFFFE
FFFFFE
FFFFFF
FFFFFF
FFFFFF
FFFFFF
FFFFE0
FC7F80
C07F00
007F00
007F00
007F00
007E00
007E00
007E00
007F00
007E00
007E00
007E00
007E00
007E00
007E00
007F00
007E00
007E00
00FE00
007E00
007E00
ENDCHAR
STARTCHAR 03A5
ENCODING 933
SWIDTH 607 0
DWIDTH 27 0
BBX 26 30 1 1
BITMAP
00003FC0
0E003F80
FF007F00
FF007F00
FF80FF00
7F80FE00
7FC1FE00
3FC1FC00
3FE3FC00
1FE3F800
1FF7F800
0FF7F000
0FFFF000
07FFE000
07FFE000
03FFC000
03FFC000
01FF8000
01FF8000
00FF0000
00FF0000
007F0000
007F0000
007F0000
007F0000
007F0000
007F8000
007F8000
007F8000
003F0000
ENDCHAR
STARTCHAR 03A6
ENCODING 934
SWIDTH 652 0
DWIDTH 29 0
BBX 28 35 1 -2
BITMAP
003FC000
003FE000
003FE000
003FE000
07FFEF00
1FFFFF80
3FFFFFC0
7FFFFFC0
7FFFFFE0
7FFFFFE0
FFFFFFE0
FFFFFFE0
FFBFFFE0
FF3FDFF0
FF3FDFF0
FE3FDFF0
FE3F8FF0
FE3F8FF0
FF3F8FE0
FF3F9FE0
FF3F9FE0
FFFF9FE0
FFFFBFE0
FFFFFFC0
FFFFFFC0
7FFFFF80
7FFFFF80
7FFFFF00
3FFFFE00
3FFFFC00
0CFFF800
00FE0000
00FE0000
00FE0000
00FE0000
ENDCHAR
STARTCHAR 03A7
ENCODING 935
SWIDTH 562 0
DWIDTH 25 0
BBX 24 29 1 1
BITMAP
00007F
7F00FF
FF00FF
FF81FE
FF81FE
FFC3FC
FFC3FC
7FE7FC
7FE7F8
3FF7F8
1FFFF0
0FFFF0
07FFF0
07FFE0
03FFC0
03FFC0
01FFC0
03FFC0
03FFC0
07FFE0
07FFE0
0FFFE0
0FE7F0
1FE7F0
1FE3F8
3FE1F8
3FE1F8
3FC0E0
7FC000
ENDCHAR
STARTCHAR 03A8
ENCODING 936
SWIDTH 720 0
DWIDTH 32 0
BBX 30 30 1 0
BITMAP
FC0000FC
FE0FC1FC
FE0FC1FC
FE0FE1FC
FE0FE1FC
FE0FE1FC
FE0FE1FC
FE0FE1FC
FE0FE1FC
FE0FE1FC
FE0FE3FC
FE1FE3FC
FE1FE3F8
FF1FE3F8
7F9FEFF8
7FFFFFF8
3FFFFFF0
3FFFFFF0
1FFFFFE0
1FFFFFE0
0FFFFFC0
03FFFF00
007FFC00
000FC000
000FE000
000FE000
000FE000
001FE000
001FE000
001FE000
ENDCHAR
STARTCHAR 03A9
ENCODING 937
SWIDTH 607 0
DWIDTH 27 0
BBX 26 31 1 0
BITMAP
03FF0000
07FFE000
1FFFF000
1FFFF800
3FFFFC00
3FFFFE00
7FFFFE00
7FFFFF00
7FFFFF00
FFC1FF80
FF807F80
FF007F80
FF003F80
FE003F80
FE003F80
FE001F80
FE001F80
7E001F80
7F001F80
7F003F00
3F003F00
3F807F00
1F807E00
1FC0FC00
FFE1FF80
FFE1FFC0
FFE1FFC0
FFE1FFC0
FFE1FFC0
FFE1FFC0
FFE1FFC0
ENDCHAR
STARTCHAR 03AA
ENCODING 938
SWIDTH 315 0
DWIDTH 14 0
BBX 15 36 1 0
BITMAP
1C3C
1E3E
3E3E
3E3C
0C18
0000
0FF0
1FF8
1FF8
1FF0
1FF0
1FF0
1FF0
1FF0
3FF0
3FF0
3FF0
3FF0
3FF0
3FF0
3FE0
3FE0
3FE0
3FE0
3FE0
3FE0
3FE0
3FF0
3FF0
7FF0
7FE0
7FE0
7FE0
7FE0
FFC0
F800
ENDCHAR
STARTCHAR 03AB
ENCODING 939
SWIDTH 607 0
DWIDTH 27 0
BBX 26 36 1 0
BITMAP
00C1C000
01E3E000
01E3E000
01E3C000
00E08000
00000000
00003FC0
0E003F80
FF007F00
FF007F00
FF80FF00
7F80FE00
7FC1FE00
3FC1FC00
3FE3FC00
1FE3F800
1FF7F800
0FF7F000
0FFFF000
07FFE000
07FFE000
03FFC000
03FFC000
01FF8000
01FF8000
00FF0000
00FF0000
007F0000
007F0000
007F0000
007F0000
007F0000
007F8000
007F8000
007F8000
003F0000
ENDCHAR
STARTCHAR 03AC
ENCODING 940
SWIDTH 630 0
DWIDTH 28 0
BBX 26 33 1 -1
BITMAP
03C00000
03C00000
078F0000
078F8000
071F8000
0F1F8000
0E3FC000
003FC000
003FC000
007FC000
007FC000
007FE000
00FFE000
00FFE000
01FFF000
01FFF000
01FFF000
03FFF800
03EFF800
07C7F800
0787FC00
0F83FC00
0FBFFC00
1FFFFE00
1FFFFE00
1FFFFE00
3FC3FF00
3F83FF00
7F83FF80
7F01FF80
FF01FFC0
FF01FFC0
FC008000
ENDCHAR
STARTCHAR 03AD
ENCODING 941
SWIDTH 585 0
DWIDTH 26 0
BBX 25 32 0 0
BITMAP
3C000000
3C7FE000
7FFFF800
7FFFF800
77FFF800
F3FFF000
E3FFF000
03FFF000
03FFF000
03FFF000
01FF0000
01FC0000
01FC0000
01FE1000
01FFF000
01FFF000
00FFF000
00FFF000
00FF8000
00FE0000
00FF0700
007FFF00
007FFF00
007FFF80
007FFF80
007FFF80
007FFF80
007FFF80
007FFF80
007FFE00
003FC000
003C0000
ENDCHAR
STARTCHAR 03AE
ENCODING 942
SWIDTH 607 0
DWIDTH 27 0
BBX 26 31 0 1
BITMAP
3C000000
3C000000
7CFE0000
7BFE1FC0
77FC1FC0
F3FE1FC0
E3FE1FC0
03FE1FC0
03FC3FC0
03FC3FC0
07FC3FC0
07FE3FC0
07FE3FC0
07FFFFC0
07FFFFC0
07FFFFC0
07FFFF80
07FFFF80
07FFFFC0
07FFFFC0
0FFFFFC0
0FFFFFC0
0FFC7FC0
0FFC7FC0
0FFC7FC0
0FFC7F80
0FFC7F80
0FFC7F80
0FFC7F80
1FFC7F80
1FF8F800
ENDCHAR
STARTCHAR 03AF
ENCODING 943
SWIDTH 360 0
DWIDTH 16 0
BBX 16 32 0 0
BITMAP
3C00
3C00
7DFE
7BFF
73FF
F3FE
E3FE
03FE
03FE
03FE
03FE
07FE
07FE
07FE
07FE
07FE
07FE
07FE
07FE
07FE
07FE
07FE
07FE
07FE
07FE
07FE
0FFC
0FFC
0FFC
0FFC
0FF8
1F00
ENDCHAR
STARTCHAR 03B0
ENCODING 944
SWIDTH 607 0
DWIDTH 27 0
BBX 26 40 1 0
BITMAP
00078000
00078000
000F0000
000E0000
001D8000
01E3E000
01E3E000
01E3E000
00E0C000
00000000
00003FC0
0E003F80
FF007F00
FF007F00
FF80FF00
7F80FE00
7FC1FE00
3FC1FC00
3FE3FC00
1FE3F800
1FF7F800
0FF7F000
0FFFF000
07FFE000
07FFE000
03FFC000
03FFC000
01FF8000
01FF8000
00FF0000
00FF0000
007F0000
007F0000
007F0000
007F0000
007F0000
007F8000
007F8000
007F8000
003F0000
ENDCHAR
STARTCHAR 03B1
ENCODING 945
SWIDTH 630 0
DWIDTH 28 0
BBX 26 31 1 -1
BITMAP
000F0000
000F8000
001F8000
001F8000
003FC000
003FC000
003FC000
007FC000
007FC000
007FE000
00FFE000
00FFE000
01FFF000
01FFF000
01FFF000
03FFF800
03EFF800
07C7F800
0787FC00
0F83FC00
0FBFFC00
1FFFFE00
1FFFFE00
1FFFFE00
3FC3FF00
3F83FF00
7F83FF80
7F01FF80
FF01FFC0
FF01FFC0
FC008000
ENDCHAR
STARTCHAR 03B2
ENCODING 946
SWIDTH 517 0
DWIDTH 23 0
BBX 21 31 1 0
BITMAP
0C0000
7FF800
FFFE00
FFFF00
FFFF00
FFFF80
FFFF80
FF3FC0
FF0FC0
7F0FC0
7F0F80
7F0F80
7F9F80
7FFF00
7FFE00
7FFF80
3FFFE0
3FFFE0
3FFFF0
3FC3F8
3FC3F8
3FC3F8
3FC7F8
3FEFF8
3FFFF8
1FFFF8
1FFFF0
1FFFE0
1FFFC0
1FFE00
030000
ENDCHAR
STARTCHAR 03B3
ENCODING 947
SWIDTH 495 0
DWIDTH 22 0
BBX 21 31 1 0
BITMAP
01FFE0
7FFFF0
FFFFF0
FFFFF0
FFFFF0
FFFFF8
FFFF78
FF8000
FF0000
FF0000
FF0000
FF0000
FF0000
FF0000
FF0000
FF0000
FF0000
FF0000
FF0000
FF0000
FF0000
FF0000
FF0000
FF0000
FF0000
FF0000
FF0000
FF0000
FF8000
7F8000
7C0000
ENDCHAR
STARTCHAR 03B4
ENCODING 948
SWIDTH 585 0
DWIDTH 26 0
BBX 24 30 1 0
BITMAP
000F00
003FC0
003FC0
007FC0
007FC0
00FFE0
01FFE0
01FFE0
03FFE0
03FFF0
07FFF0
07FFF0
07FFF0
0FF7F8
0FF3F8
1FF3F8
1FE3FC
3FE3FC
3FE3FC
3FC3FE
7FC3FE
7FC3FE
7F83FF
FF81FF
FFFFFF
FFFFFF
FFFFFF
FFFFFF
FFFFFF
FFFFFF
ENDCHAR
STARTCHAR 03B5
ENCODING 949
SWIDTH 495 0
DWIDTH 22 0
BBX 20 31 1 0
BITMAP
0FF800
7FFF00
FFFF00
FFFE00
FFFE00
7FFE00
7FFE00
7FFE00
7FFE00
7FE400
3F8000
3F8000
3F8400
3FFE00
3FFC00
3FFE00
1FFE00
1FF000
1FC000
1FE0C0
1FFFE0
0FFFE0
0FFFE0
0FFFF0
0FFFF0
0FFFF0
0FFFF0
0FFFF0
0FFF80
0FF800
078000
ENDCHAR
STARTCHAR 03B6
ENCODING 950
SWIDTH 585 0
DWIDTH 26 0
BBX 25 31 1 0
BITMAP
001E0000
03FFF800
3FFFF800
7FFFF000
7FFFE000
FFFFE000
FFFFC000
FFFFC000
FE3F8000
003F8000
003F0000
007F0000
007E0000
00FE0000
00FE0000
00FE0000
01FC0000
01FC0000
01FC0000
03FC0000
03FC0000
03F80000
07F00000
07FFFF80
07FFFF80
0FFFFF80
0FFFFF00
0FFFFF00
09FFFE00
003FF800
0003C000
ENDCHAR
STARTCHAR 03B7
ENCODING 951
SWIDTH 562 0
DWIDTH 25 0
BBX 23 29 1 1
BITMAP
07F000
1FF0FE
3FE0FE
3FE1FE
1FF1FE
1FF1FE
1FE1FE
3FE1FE
3FE1FE
3FE1FE
3FE1FE
3FFFFE
3FFFFE
3FFFFC
3FFFFC
3FFFFC
3FFFFE
7FFFFE
7FFFFE
7FFFFE
7FE3FE
7FE3FE
7FE3FE
7FC3FC
7FC3FC
7FE3FC
7FE3FC
FFE3FC
FFC7C0
ENDCHAR
STARTCHAR 03B8
ENCODING 952
SWIDTH 517 0
DWIDTH 23 0
BBX 22 31 1 0
BITMAP
01F800
07FE00
0FFF80
3FFFC0
3FFFE0
7FFFF0
7FFFF0
7FFFF8
7FFFF8
FFFFF8
FFFFF8
FF8FFC
FF07FC
FF03FC
FFFFFC
FFFFFC
FFFFFC
FFFFFC
FF03FC
FF03FC
7FC7FC
7FFFF8
7FFFF8
3FFFF8
3FFFF0
1FFFF0
1FFFF0
0FFFE0
03FFE0
01FFC0
007F80
ENDCHAR
STARTCHAR 03B9
ENCODING 953
SWIDTH 315 0
DWIDTH 14 0
BBX 13 30 1 0
BITMAP
0FF0
1FF8
1FF8
1FF0
1FF0
1FF0
1FF0
1FF0
3FF0
3FF0
3FF0
3FF0
3FF0
3FF0
3FE0
3FE0
3FE0
3FE0
3FE0
3FE0
3FE0
3FF0
3FF0
7FF0
7FE0
7FE0
7FE0
7FE0
FFC0
F800
ENDCHAR
STARTCHAR 03BA
ENCODING 954
SWIDTH 540 0
DWIDTH 24 0
BBX 23 31 1 0
BITMAP
000060
FFF0E0
7FF1F0
7FF1FE
FFF3FC
FFF7FC
FFF7F8
FFF7F0
FFFFF0
FFFFE0
FFFFC0
FFFF80
FFFF80
FFFF00
FFFF00
FFFE00
FFFC00
FFFE00
FFFF00
FFFF80
FFFFC0
FFFFE0
FFFFF0
FFE7F0
FFE7F8
FFE3FC
FFE3FC
FFE1FE
FFF0FE
FFE0E0
03C0C0
ENDCHAR
STARTCHAR 03BB
ENCODING 955
SWIDTH 585 0
DWIDTH 26 0
BBX 25 29 1 1
BITMAP
01C00000
07E00000
07E00000
07F00000
07F80000
0FF80000
0FFC0000
0FFE0000
0FFE0000
0FFF0000
1FFF8000
1FFF8000
1FFFC000
1FFFC000
3FDFE000
3FDFF000
3FDFF000
3FDFF800
3FCFF800
7F8FFC00
7F8FFC00
7F8FFE00
7F87FE00
FF87FE00
FF87FF00
FF87FF00
FF87FF00
FF803F80
FF000380
ENDCHAR
STARTCHAR 03BC
ENCODING 956
SWIDTH 652 0
DWIDTH 29 0
BBX 27 30 1 0
BITMAP
0C000600
0E000F00
0F001F00
0F001F00
1F803F00
1FC03F00
1FC07F00
1FE07F00
1FE0FF80
1FF0FF80
3FF9FF80
3FFBFF80
3FFFFF80
3FFFFF80
3FFFFF80
3FFFFF80
3FFFFFC0
7FEF7FC0
7FE77FC0
7FC27FC0
7FC0FFC0
7FC0FFC0
7F80FFC0
7F80FFC0
FF80FFE0
FF00FFE0
FF00FFE0
FF00FFE0
FE00FFE0
FE000000
ENDCHAR
STARTCHAR 03BD
ENCODING 957
SWIDTH 562 0
DWIDTH 25 0
BBX 24 30 1 0
BITMAP
060038
1FE0FE
3FF1FF
3FE1FE
3FE1FE
3FF1FE
3FF1FE
3FF1FE
3FF3FE
7FF1FE
7FF9FE
7FF9FC
7FF9FC
7FF9FC
7FFFFC
7FFFFC
7FFFFC
7FBFFC
7FBFFC
7FBFFC
FF9FFC
FF9FFC
FF9FFC
FF8FFC
FF8FFC
FF8FF8
FF87F8
FF87FC
FF87F8
F00000
ENDCHAR
STARTCHAR 03BE
ENCODING 958
SWIDTH 472 0
DWIDTH 21 0
BBX 20 30 1 0
BITMAP
FFF200
FFFFF0
FFFFF0
FFFFF0
FFFFF0
FFFFF0
FFFFF0
0003C0
000000
000000
000000
3FFF80
3FFF80
3FFF80
3FFF80
3FFF80
3FFF80
1E0000
000000
000000
000000
000000
FFF000
FFFFF0
FFFFF0
FFFFF0
FFFFF0
FFFFF0
FFFFE0
000F00
ENDCHAR
STARTCHAR 03BF
ENCODING 959
SWIDTH 517 0
DWIDTH 23 0
BBX 22 31 1 0
BITMAP
03C000
07F000
07FC00
0FFE00
0FFF80
1FFF80
1FFFC0
3FFFE0
3FFFE0
7FFFF0
7FFFF8
7FFFF8
FF87F8
FF07FC
FF03FC
FF03FC
FF03FC
FF07FC
FF87FC
FFEFFC
FFFFFC
7FFFFC
7FFFF8
7FFFF8
3FFFF8
3FFFF8
1FFFF0
1FFFF0
0FFFE0
03FFC0
00FF00
ENDCHAR
STARTCHAR 03C0
ENCODING 960
SWIDTH 540 0
DWIDTH 24 0
BBX 23 30 1 0
BITMAP
FFFFFC
FFFFFC
FFFFFC
FFFFFE
FFFFFE
FFFFFE
FFFFFC
FE79FC
FF01FC
FF01FC
FF01FC
FF01FC
FF01FC
FF01FC
FF01FC
FF01FC
FF01FC
FF01FC
FF01FC
7F81FC
7F81FC
7F81FC
7F81FC
7F81FC
7F81FC
7F81FC
7F81FC
7F81FE
7F81FE
200000
ENDCHAR
STARTCHAR 03C1
ENCODING 961
SWIDTH 495 0
DWIDTH 22 0
BBX 20 30 1 1
BITMAP
1FF800
7FFF00
7FFF80
7FFFC0
7FFFC0
7FFFE0
7F9FE0
7F83F0
7F83F0
7F83F0
7F83F0
7FC7F0
7FC7F0
7FFFF0
7FFFF0
FFFFE0
FFFFC0
FFFF80
FFE000
FFE000
FFE000
FFE000
FFE000
FFE000
FFE000
FFE000
FFE000
FFE000
FFE000
FFE000
ENDCHAR
STARTCHAR 03C2
ENCODING 962
SWIDTH 495 0
DWIDTH 22 0
BBX 21 36 1 -6
BITMAP
003E00
01FFC0
07FFE0
1FFFF0
3FFFF8
3FFFF8
7FFFF0
7FFFF0
FFFFF0
FF8000
FF0000
FE0000
FE0000
FC0000
FC0000
FE0000
FE0000
FF0000
FF8000
FFE000
7FFC00
7FFFC0
3FFFE0
3FFFF0
1FFFF0
0FFFF0
03FFF0
003FF0
000FF0
001FF0
003FF0
00FFE0
00FFE0
00FFC0
00FF80
007E00
ENDCHAR
STARTCHAR 03C3
ENCODING 963
SWIDTH 472 0
DWIDTH 21 0
BBX 20 30 1 0
BITMAP
FFFFE0
FFFFF0
FFFFF0
FFFFF0
FFFFF0
FFFFF0
FFFDE0
FF8000
7FE000
3FF000
0FF800
07FC00
03FF00
00FF00
007F00
007F00
00FF00
01FE00
03FC00
07F800
1FF000
3FE000
7FC000
FFFFF0
FFFFF0
FFFFF0
FFFFF0
FFFFF0
FFFFF0
03FFE0
ENDCHAR
STARTCHAR 03C4
ENCODING 964
SWIDTH 562 0
DWIDTH 25 0
BBX 24 30 1 0
BITMAP
1FFFF8
FFFFFE
FFFFFE
FFFFFE
FFFFFF
FFFFFF
FFFFFF
FFFFFF
FFFFE0
FC7F80
C07F00
007F00
007F00
007F00
007E00
007E00
007E00
007F00
007E00
007E00
007E00
007E00
007E00
007E00
007F00
007E00
007E00
00FE00
007E00
007E00
ENDCHAR
STARTCHAR 03C5
ENCODING 965
SWIDTH 607 0
DWIDTH 27 0
BBX 26 30 1 1
BITMAP
00003FC0
0E003F80
FF007F00
FF007F00
FF80FF00
7F80FE00
7FC1FE00
3FC1FC00
3FE3FC00
1FE3F800
1FF7F800
0FF7F000
0FFFF000
07FFE000
07FFE000
03FFC000
03FFC000
01FF8000
01FF8000
00FF0000
00FF0000
007F0000
007F0000
007F0000
007F0000
007F0000
007F8000
007F8000
007F8000
003F0000
ENDCHAR
STARTCHAR 03C6
ENCODING 966
SWIDTH 652 0
DWIDTH 29 0
BBX 28 35 1 -2
BITMAP
003FC000
003FE000
003FE000
003FE000
07FFEF00
1FFFFF80
3FFFFFC0
7FFFFFC0
7FFFFFE0
7FFFFFE0
FFFFFFE0
FFFFFFE0
FFBFFFE0
FF3FDFF0
FF3FDFF0
FE3FDFF0
FE3F8FF0
FE3F8FF0
FF3F8FE0
FF3F9FE0
FF3F9FE0
FFFF9FE0
FFFFBFE0
FFFFFFC0
FFFFFFC0
7FFFFF80
7FFFFF80
7FFFFF00
3FFFFE00
3FFFFC00
0CFFF800
00FE0000
00FE0000
00FE0000
00FE0000
ENDCHAR
STARTCHAR 03C7
ENCODING 967
SWIDTH 562 0
DWIDTH 25 0
BBX 24 29 1 1
BITMAP
00007F
7F00FF
FF00FF
FF81FE
FF81FE
FFC3FC
FFC3FC
7FE7FC
7FE7F8
3FF7F8
1FFFF0
0FFFF0
07FFF0
07FFE0
03FFC0
03FFC0
01FFC0
03FFC0
03FFC0
07FFE0
07FFE0
0FFFE0
0FE7F0
1FE7F0
1FE3F8
3FE1F8
3FE1F8
3FC0E0
7FC000
ENDCHAR
STARTCHAR 03C8
ENCODING 968
SWIDTH 720 0
DWIDTH 32 0
BBX 30 30 1 0
BITMAP
FC0000FC
FE0FC1FC
FE0FC1FC
FE0FE1FC
FE0FE1FC
FE0FE1FC
FE0FE1FC
FE0FE1FC
FE0FE1FC
FE0FE1FC
FE0FE3FC
FE1FE3FC
FE1FE3F8
FF1FE3F8
7F9FEFF8
7FFFFFF8
3FFFFFF0
3FFFFFF0
1FFFFFE0
1FFFFFE0
0FFFFFC0
03FFFF00
007FFC00
000FC000
000FE000
000FE000
000FE000
001FE000
001FE000
001FE000
ENDCHAR
STARTCHAR 03C9
ENCODING 969
SWIDTH 607 0
DWIDTH 27 0
BBX 26 31 1 0
BITMAP
03FF0000
07FFE000
1FFFF000
1FFFF800
3FFFFC00
3FFFFE00
7FFFFE00
7FFFFF00
7FFFFF00
FFC1FF80
FF807F80
FF007F80
FF003F80
FE003F80
FE003F80
FE001F80
FE001F80
7E001F80
7F001F80
7F003F00
3F003F00
3F807F00
1F807E00
1FC0FC00
FFE1FF80
FFE1FFC0
FFE1FFC0
FFE1FFC0
FFE1FFC0
FFE1FFC0
FFE1FFC0
ENDCHAR
STARTCHAR 03CA
ENCODING 970
SWIDTH 315 0
DWIDTH 14 0
BBX 15 36 1 0
BITMAP
1C3C
1E3E
3E3E
3E3C
0C18
0000
0FF0
1FF8
1FF8
1FF0
1FF0
1FF0
1FF0
1FF0
3FF0
3FF0
3FF0
3FF0
3FF0
3FF0
3FE0
3FE0
3FE0
3FE0
3FE0
3FE0
3FE0
3FF0
3FF0
7FF0
7FE0
7FE0
7FE0
7FE0
FFC0
F800
ENDCHAR
STARTCHAR 03CB
ENCODING 971
SWIDTH 607 0
DWIDTH 27 0
BBX 26 36 1 0
BITMAP
00C1C000
01E3E000
01E3E000
01E3C000
00E08000
00000000
00003FC0
0E003F80
FF007F00
FF007F00
FF80FF00
7F80FE00
7FC1FE00
3FC1FC00
3FE3FC00
1FE3F800
1FF7F800
0FF7F000
0FFFF000
07FFE000
07FFE000
03FFC000
03FFC000
01FF8000
01FF8000
00FF0000
00FF0000
007F0000
007F0000
007F0000
007F0000
007F0000
007F8000
007F8000
007F8000
003F0000
ENDCHAR
STARTCHAR 03CC
ENCODING 972
SWIDTH 540 0
DWIDTH 24 0
BBX 24 32 0 0
BITMAP
3C0000
3CF000
7DFC00
7BFE00
73FF80
F7FFC0
E7FFE0
0FFFF0
0FFFF8
1FFFF8
1FFFFC
1FFFFC
3FFFFE
3FE1FE
3FC1FE
7FC1FF
7FC1FF
7FC1FF
3FC1FF
3FE1FF
3FF3FF
3FFFFF
3FFFFE
1FFFFE
1FFFFE
1FFFFE
0FFFFC
0FFFFC
07FFFC
03FFF8
01FFE0
003FC0
ENDCHAR
STARTCHAR 03CD
ENCODING 973
SWIDTH 675 0
DWIDTH 30 0
BBX 30 32 0 0
BITMAP
3C000000
3C000004
7C0003FC
78F003F8
77F003F8
FFF807F8
E7F807F0
07FC0FF0
03FC0FE0
03FE1FE0
01FE1FC0
01FF3FC0
00FF3F80
00FF7F80
007FFF00
007FFF00
003FFE00
003FFE00
001FFC00
001FFC00
000FF800
000FF800
0007F000
0007F000
0003F800
0003F800
0003F800
0003F800
0003F800
0003F800
0003F800
0003E000
ENDCHAR
STARTCHAR 03CE
ENCODING 974
SWIDTH 630 0
DWIDTH 28 0
BBX 28 32 0 0
BITMAP
3C000000
3C7FE000
7DFFF800
7BFFFE00
77FFFE00
FFFFFF00
EFFFFF80
0FFFFFC0
1FFFFFC0
1FFFFFE0
1FF03FE0
1FE01FE0
1FC00FE0
1FC00FE0
1FC00FF0
1F8007F0
1F8007F0
1F8007F0
1FC007E0
0FC007E0
0FC00FE0
0FE00FC0
07E00FC0
07F01FC0
03F03F80
3FF83FF0
3FF87FF0
3FF87FF0
3FF87FF0
3FF87FF0
3FF87FF0
3FF87FF0
ENDCHAR
STARTCHAR 03D2
ENCODING 978
SWIDTH 630 0
DWIDTH 28 0
BBX 27 30 1 0
BITMAP
F0000F00
FE003F80
FF003FC0
FF807FE0
FFC0FFE0
FFC0FFE0
FFE1FFE0
07E3FFE0
07F3FFC0
07F3FFC0
03F7E000
03F7E000
01F7C000
01F7C000
01FF8000
01FF8000
01FF8000
00FF0000
00FF0000
00FF0000
00FF0000
00FF0000
00FF0000
00FF0000
00FF0000
00FF0000
00FF0000
00FF0000
00FF0000
007E0000
ENDCHAR
STARTCHAR 03D3
ENCODING 979
SWIDTH 720 0
DWIDTH 32 0
BBX 32 32 0 0
BITMAP
3C000000
3C000000
7BC00078
7BF800FC
F3FC01FE
F3FE03FF
63FE03FF
03FF07FF
03FF0FFF
003F8FFE
001F8FFE
001F9FFC
000FDF00
000FDF00
000FFF00
0007FE00
0007FE00
0007FC00
0007FC00
0007FC00
0007F800
0003F800
0003F800
0003F800
0003F800
0003F800
0003F800
0003F800
0003F800
0003F800
0003F800
0003F800
ENDCHAR
STARTCHAR 03D4
ENCODING 980
SWIDTH 630 0
DWIDTH 28 0
BBX 27 36 1 0
BITMAP
00C1C000
01E3E000
01E3E000
01E3C000
00E08000
00000000
F0000F00
FE003F80
FF003FC0
FF807FE0
FFC0FFE0
FFC0FFE0
FFE1FFE0
07E3FFE0
07F3FFC0
07F3FFC0
03F7E000
03F7E000
01F7C000
01F7C000
01FF8000
01FF8000
01FF8000
00FF0000
00FF0000
00FF0000
00FF0000
00FF0000
00FF0000
00FF0000
00FF0000
00FF0000
00FF0000
00FF0000
00FF0000
007E0000
ENDCHAR
STARTCHAR 03D5
ENCODING 981
SWIDTH 652 0
DWIDTH 29 0
BBX 28 35 1 -2
BITMAP
003FC000
003FE000
003FE000
003FE000
07FFEF00
1FFFFF80
3FFFFFC0
7FFFFFC0
7FFFFFE0
7FFFFFE0
FFFFFFE0
FFFFFFE0
FFBFFFE0
FF3FDFF0
FF3FDFF0
FE3FDFF0
FE3F8FF0
FE3F8FF0
FF3F8FE0
FF3F9FE0
FF3F9FE0
FFFF9FE0
FFFFBFE0
FFFFFFC0
FFFFFFC0
7FFFFF80
7FFFFF80
7FFFFF00
3FFFFE00
3FFFFC00
0CFFF800
00FE0000
00FE0000
00FE0000
00FE0000
ENDCHAR
STARTCHAR 03D8
ENCODING 984
SWIDTH 517 0
DWIDTH 23 0
BBX 22 37 1 -6
BITMAP
007F80
01FFC0
03FFE0
07FFE0
0FFFF0
1FFFF0
3FFFF0
3FFFF8
3FFFF8
7FFFF8
7FDFF8
7F87FC
FF03FC
FF03FC
FF01FC
FF01FC
FF03FC
FF03FC
FF03FC
FF87FC
FFFFFC
FFFFF8
7FFFF8
7FFFF8
7FFFF0
7FFFF0
3FFFE0
3FFFE0
1FFF80
07FF00
03FC00
00FC00
00FC00
00FC00
00FC00
00FC00
00F000
ENDCHAR
STARTCHAR 03D9
ENCODING 985
SWIDTH 517 0
DWIDTH 23 0
BBX 22 37 1 -6
BITMAP
007F80
01FFC0
03FFE0
07FFE0
0FFFF0
1FFFF0
3FFFF0
3FFFF8
3FFFF8
7FFFF8
7FDFF8
7F87FC
FF03FC
FF03FC
FF01FC
FF01FC
FF03FC
FF03FC
FF03FC
FF87FC
FFFFFC
FFFFF8
7FFFF8
7FFFF8
7FFFF0
7FFFF0
3FFFE0
3FFFE0
1FFF80
07FF00
03FC00
00FC00
00FC00
00FC00
00FC00
00FC00
00F000
ENDCHAR
STARTCHAR 03DA
ENCODING 986
SWIDTH 495 0
DWIDTH 22 0
BBX 21 37 1 -6
BITMAP
003FE0
01FFF8
07FFF8
1FFFF8
1FFFF0
3FFFF0
7FFFF0
7FFFF0
FFFC00
FF8000
FF0000
FE0000
FE0000
FE0000
FE0000
FC0000
FC0000
FE0000
FE0000
FF0000
FF8000
FFE000
7FFC00
7FFFC0
3FFFE0
3FFFF0
1FFFF0
07FFF0
03FFF0
000FF0
000FF0
003FE0
00FFE0
00FFE0
00FFC0
00FF80
007E00
ENDCHAR
STARTCHAR 03DB
ENCODING 987
SWIDTH 495 0
DWIDTH 22 0
BBX 21 37 1 -6
BITMAP
003FE0
01FFF8
07FFF8
1FFFF8
1FFFF0
3FFFF0
7FFFF0
7FFFF0
FFFC00
FF8000
FF0000
FE0000
FE0000
FE0000
FE0000
FC0000
FC0000
FE0000
FE0000
FF0000
FF8000
FFE000
7FFC00
7FFFC0
3FFFE0
3FFFF0
1FFFF0
07FFF0
03FFF0
000FF0
000FF0
003FE0
00FFE0
00FFE0
00FFC0
00FF80
007E00
ENDCHAR
STARTCHAR 03F2
ENCODING 1010
SWIDTH 472 0
DWIDTH 21 0
BBX 20 30 1 0
BITMAP
007F00
03FFC0
0FFFE0
1FFFF0
3FFFF0
7FFFF0
7FFFF0
7FFFF0
FFF800
FFE000
FFC000
FF8000
FF8000
FF8000
FF8000
FF8000
FFC060
FFFFF0
FFFFF0
FFFFF0
FFFFF0
7FFFF0
7FFFF0
3FFFF0
3FFFF0
1FFFE0
1FFFC0
0FFF80
03FE00
000800
ENDCHAR
STARTCHAR 03F3
ENCODING 1011
SWIDTH 450 0
DWIDTH 20 0
BBX 19 30 1 0
BITMAP
007FC0
00FFC0
00FFC0
00FFC0
00FFC0
00FFC0
01FFC0
01FFC0
01FFC0
01FFC0
01FFE0
01FFE0
01FFE0
01FFE0
01FFE0
00FFE0
00FFE0
00FFE0
007FE0
007FC0
7C7FC0
FE7FC0
FF7FC0
FF7F80
FFFF80
FFFF00
7FFF00
3FFE00
1FF800
03F000
ENDCHAR
STARTCHAR 03F4
ENCODING 1012
SWIDTH 517 0
DWIDTH 23 0
BBX 22 31 1 0
BITMAP
07F800
0FFE00
1FFF00
1FFF80
3FFFC0
3FFFE0
3FFFE0
7FFFF0
7FFFF0
7FFFF8
FFDFF8
FF07F8
FF03FC
FFFFFC
FFFFFC
FFFFFC
FFFFFC
FF83FC
FF83FC
FFC7FC
FFFFFC
7FFFFC
7FFFF8
7FFFF8
3FFFF8
3FFFF8
1FFFF0
1FFFF0
07FFE0
03FF80
007E00
ENDCHAR
STARTCHAR 03F7
ENCODING 1015
SWIDTH 495 0
DWIDTH 22 0
BBX 21 31 1 0
BITMAP
FC0000
FE0000
FF0000
FF0000
FF8000
FFFC00
FFFF00
FFFF80
FFFFC0
FFFFC0
FFFFE0
FF0FE0
FF07E0
FF03F0
FF03F0
FF03F0
7F07F0
7F07F0
7F87F0
7F8FF0
7FFFF8
7FFFF0
7FFFE0
7FFFC0
7FFF80
7FC000
7FC000
7FC000
7FC000
7FC000
3FC000
ENDCHAR
STARTCHAR 03F8
ENCODING 1016
SWIDTH 495 0
DWIDTH 22 0
BBX 21 31 1 0
BITMAP
FC0000
FE0000
FF0000
FF0000
FF8000
FFFC00
FFFF00
FFFF80
FFFFC0
FFFFC0
FFFFE0
FF0FE0
FF07E0
FF03F0
FF03F0
FF03F0
7F07F0
7F07F0
7F87F0
7F8FF0
7FFFF8
7FFFF0
7FFFE0
7FFFC0
7FFF80
7FC000
7FC000
7FC000
7FC000
7FC000
3FC000
ENDCHAR
STARTCHAR 03F9
ENCODING 1017
SWIDTH 472 0
DWIDTH 21 0
BBX 20 30 1 0
BITMAP
007F00
03FFC0
0FFFE0
1FFFF0
3FFFF0
7FFFF0
7FFFF0
7FFFF0
FFF800
FFE000
FFC000
FF8000
FF8000
FF8000
FF8000
FF8000
FFC060
FFFFF0
FFFFF0
FFFFF0
FFFFF0
7FFFF0
7FFFF0
3FFFF0
3FFFF0
1FFFE0
1FFFC0
0FFF80
03FE00
000800
ENDCHAR
STARTCHAR 03FA
ENCODING 1018
SWIDTH 607 0
DWIDTH 27 0
BBX 26 30 1 0
BITMAP
30003800
78007C00
7E00FC00
7F03FC00
7F87FC00
7FFFFC00
7FFFFE00
7FFFFE00
FFFFFE00
FFFFFE00
FFFBFE00
FFB9FE00
FF91FF00
FF81FF00
FF80FF00
FF80FF00
FF80FF00
FF80FF00
FF80FF00
FF807F80
FF807F80
FF807F80
FF807F80
FF807F80
FF803F80
FFC03FC0
FF803FC0
FF803FC0
FF803FC0
18000000
ENDCHAR
STARTCHAR 03FB
ENCODING 1019
SWIDTH 607 0
DWIDTH 27 0
BBX 26 30 1 0
BITMAP
30003800
78007C00
7E00FC00
7F03FC00
7F87FC00
7FFFFC00
7FFFFE00
7FFFFE00
FFFFFE00
FFFFFE00
FFFBFE00
FFB9FE00
FF91FF00
FF81FF00
FF80FF00
FF80FF00
FF80FF00
FF80FF00
FF80FF00
FF807F80
FF807F80
FF807F80
FF807F80
FF807F80
FF803F80
FFC03FC0
FF803FC0
FF803FC0
FF803FC0
18000000
ENDCHAR
STARTCHAR 03FD
ENCODING 1021
SWIDTH 472 0
DWIDTH 21 0
BBX 20 30 1 0
BITMAP
0FE000
3FFC00
7FFF00
FFFF80
FFFFC0
FFFFC0
FFFFE0
FFFFE0
01FFF0
007FF0
003FF0
001FF0
001FF0
001FF0
001FF0
001FF0
603FF0
FFFFF0
FFFFF0
FFFFF0
FFFFE0
FFFFE0
FFFFE0
FFFFC0
FFFFC0
7FFF80
3FFF80
1FFF00
0FFC00
010000
ENDCHAR
STARTCHAR 0400
ENCODING 1024
SWIDTH 495 0
DWIDTH 22 0
BBX 20 39 1 0
BITMAP
180000
FC0000
FE0000
7F0000
1F0000
0F8000
0F8000
000000
0FF800
7FFF00
FFFF00
FFFE00
FFFE00
7FFE00
7FFE00
7FFE00
7FFE00
7FE400
3F8000
3F8000
3F8400
3FFE00
3FFC00
3FFE00
1FFE00
1FF000
1FC000
1FE0C0
1FFFE0
0FFFE0
0FFFE0
0FFFF0
0FFFF0
0FFFF0
0FFFF0
0FFFF0
0FFF80
0FF800
078000
ENDCHAR
STARTCHAR 0401
ENCODING 1025
SWIDTH 495 0
DWIDTH 22 0
BBX 20 37 1 0
BITMAP
00E000
70F000
F8F000
F8F000
F86000
700000
0FF800
7FFF00
FFFF00
FFFE00
FFFE00
7FFE00
7FFE00
7FFE00
7FFE00
7FE400
3F8000
3F8000
3F8400
3FFE00
3FFC00
3FFE00
1FFE00
1FF000
1FC000
1FE0C0
1FFFE0
0FFFE0
0FFFE0
0FFFF0
0FFFF0
0FFFF0
0FFFF0
0FFFF0
0FFF80
0FF800
078000
ENDCHAR
STARTCHAR 0402
ENCODING 1026
SWIDTH 675 0
DWIDTH 30 0
BBX 29 36 1 -5
BITMAP
02242000
FFFFFF00
FFFFFF00
FFFFFF00
FFFFFF00
FFFFFF00
FFFFFF00
41FF0000
00FF0000
00FF0000
00FF3C00
00FFFF00
00FFFF80
00FFFFC0
00FFFFE0
007FFFE0
007FFFF0
007F0FF0
007F07F0
007F07F0
007F07F8
007F07F0
007F03F0
007F03F0
007F03F0
007E03F0
007E03F0
007E03F0
007F03F0
007F03F0
001F0FF0
00003FF0
00003FF0
00003FF0
00003FE0
00003F80
ENDCHAR
STARTCHAR 0403
ENCODING 1027
SWIDTH 495 0
DWIDTH 22 0
BBX 21 38 1 0
BITMAP
003F00
007F00
007E00
00FC00
00F800
01F000
000000
01FFE0
7FFFF0
FFFFF0
FFFFF0
FFFFF0
FFFFF8
FFFF78
FF8000
FF0000
FF0000
FF0000
FF0000
FF0000
FF0000
FF0000
FF0000
FF0000
FF0000
FF0000
FF0000
FF0000
FF0000
FF0000
FF0000
FF0000
FF0000
FF0000
FF0000
FF8000
7F8000
7C0000
ENDCHAR
STARTCHAR 0404
ENCODING 1028
SWIDTH 495 0
DWIDTH 22 0
BBX 21 31 1 0
BITMAP
000800
01FF00
07FFC0
0FFFE0
1FFFF0
1FFFF0
3FFFF0
7FFFF0
7FFFF0
7FFFF0
FFFFF0
FF81F0
FF0020
FE1800
FFFF80
FFFF80
FFFF80
FFFF80
FFFF80
FE0E00
FF0000
FFC070
FFFFF0
7FFFF0
7FFFF0
3FFFF8
1FFFF8
0FFFF0
07FFE0
00FF80
001800
ENDCHAR
STARTCHAR 0405
ENCODING 1029
SWIDTH 495 0
DWIDTH 22 0
BBX 21 31 1 0
BITMAP
003E00
03FFF8
0FFFF0
1FFFF0
1FFFE0
1FFFE0
3FFFE0
3FFFC0
3FFFC0
7FFF80
7FFF80
7FFF00
7F8180
3FC000
3FF000
1FFE00
1FFF80
0FFFC0
00FFE0
003FE0
000FE0
000FF0
701FF0
FFFFF0
FFFFF0
FFFFE0
FFFFE0
FFFFE0
7FFF80
1FFE00
0FFC00
ENDCHAR
STARTCHAR 0406
ENCODING 1030
SWIDTH 315 0
DWIDTH 14 0
BBX 13 30 1 0
BITMAP
0FF0
1FF8
1FF8
1FF0
1FF0
1FF0
1FF0
1FF0
3FF0
3FF0
3FF0
3FF0
3FF0
3FF0
3FE0
3FE0
3FE0
3FE0
3FE0
3FE0
3FE0
3FF0
3FF0
7FF0
7FE0
7FE0
7FE0
7FE0
FFC0
F800
ENDCHAR
STARTCHAR 0407
ENCODING 1031
SWIDTH 315 0
DWIDTH 14 0
BBX 15 36 1 0
BITMAP
1C3C
1E3E
3E3E
3E3C
0C18
0000
0FF0
1FF8
1FF8
1FF0
1FF0
1FF0
1FF0
1FF0
3FF0
3FF0
3FF0
3FF0
3FF0
3FF0
3FE0
3FE0
3FE0
3FE0
3FE0
3FE0
3FE0
3FF0
3FF0
7FF0
7FE0
7FE0
7FE0
7FE0
FFC0
F800
ENDCHAR
STARTCHAR 0408
ENCODING 1032
SWIDTH 450 0
DWIDTH 20 0
BBX 19 30 1 0
BITMAP
007FC0
00FFC0
00FFC0
00FFC0
00FFC0
00FFC0
01FFC0
01FFC0
01FFC0
01FFC0
01FFE0
01FFE0
01FFE0
01FFE0
01FFE0
00FFE0
00FFE0
00FFE0
007FE0
007FC0
7C7FC0
FE7FC0
FF7FC0
FF7F80
FFFF80
FFFF00
7FFF00
3FFE00
1FF800
03F000
ENDCHAR
STARTCHAR 0409
ENCODING 1033
SWIDTH 720 0
DWIDTH 32 0
BBX 30 30 1 0
BITMAP
007FF000
01FFF800
01FFF800
01FFF800
01FFF800
03FFF800
03FFF800
03FFF800
07FFF800
07FFF000
07FBFE00
07FFFFC0
0FF7FFF0
0FF7FFF0
0FF7FFF8
1FE7FFF8
1FE7F1FC
1FE7F07C
3FC7F07C
3FC7F07C
3FC7F07C
7FC7F07C
7F87F0FC
FF87F1FC
FF87F3FC
FF87FFFC
FF87FFFC
FF87FFF8
FF07FFE0
00003FE0
ENDCHAR
STARTCHAR 040A
ENCODING 1034
SWIDTH 720 0
DWIDTH 32 0
BBX 30 30 1 0
BITMAP
07E3F000
3FE3F800
3FC3F800
3FC3F800
3FE3F800
3FC3F800
3FC3F800
3FC3F800
3FC7F800
3FC7F000
3FC3FE00
3FFFFFC0
3FFFFFF0
3FFFFFF0
3FFFFFF8
7FFFFFF8
7FFFF1FC
7FFFF07C
7FFFF07C
7FFFF07C
7FC7F07C
7FC7F07C
7FC7F0FC
7F87F1FC
7F87F3FC
7F87FFFC
FFC7FFFC
FF87FFF8
FF87FFE0
00003FE0
ENDCHAR
STARTCHAR 040B
ENCODING 1035
SWIDTH 675 0
DWIDTH 30 0
BBX 29 31 1 0
BITMAP
02242000
FFFFFF00
FFFFFF00
FFFFFF00
FFFFFF00
FFFFFF00
FFFFFF00
41FF0000
00FF0000
00FF0000
00FF3C00
00FFFF00
00FFFF80
00FFFFC0
00FFFFE0
007FFFE0
007FFFF0
007F0FF0
007F0FF0
007F07F0
007F07F8
007F07F0
007F07F0
007F07F0
007F07F0
007E07F0
007E07F0
007E07F0
007F07F0
007F07F0
001F07F0
ENDCHAR
STARTCHAR 040C
ENCODING 1036
SWIDTH 540 0
DWIDTH 24 0
BBX 23 38 1 0
BITMAP
0003F8
0003F0
0007E0
0007C0
000F80
000F00
000000
000060
FFF0E0
7FF1F0
7FF1FE
FFF3FC
FFF7FC
FFF7F8
FFF7F0
FFFFF0
FFFFE0
FFFFC0
FFFF80
FFFF80
FFFF00
FFFF00
FFFE00
FFFC00
FFFE00
FFFF00
FFFF80
FFFFC0
FFFFE0
FFFFF0
FFE7F0
FFE7F8
FFE3FC
FFE3FC
FFE1FE
FFF0FE
FFE0E0
03C0C0
ENDCHAR
STARTCHAR 040D
ENCODING 1037
SWIDTH 562 0
DWIDTH 25 0
BBX 23 38 1 0
BITMAP
1F8000
1FC000
0FC000
07E000
03E000
01F000
000000
000000
3C03E0
FF0FF0
FF0FF8
FF0FF8
FF0FF8
FF0FF8
FF0FF8
FF0FF8
FF0FF8
7F1FF8
7F1FFC
7F9FFC
7FBFFC
7FBFFC
7FFFFC
7FFFFC
7FFFFC
7FFFFC
7FFBFC
7FFBFC
3FF3FC
3FF1FC
3FE1FE
3FE1FE
3FE1FE
3FE1FE
3FE1FE
3FE1FE
3FC0FE
00000E
ENDCHAR
STARTCHAR 040E
ENCODING 1038
SWIDTH 495 0
DWIDTH 22 0
BBX 21 38 1 0
BITMAP
1E0780
0E0F00
0FFF00
0FFE00
07FE00
03F800
00E000
000000
FF0FF8
FF0FF0
FF8FF0
FF8FF0
7F8FF0
7F8FE0
3FCFE0
3FDFE0
1FDFE0
1FFFE0
0FFFC0
0FFFC0
07FFC0
07FFC0
03FFC0
03FFC0
01FF80
01FF80
01FF80
00FF80
00FF80
FFFF80
7FFF80
7FFF80
FFFF00
FFFF00
FFFE00
FFF800
FFE000
700000
ENDCHAR
STARTCHAR 040F
ENCODING 1039
SWIDTH 517 0
DWIDTH 23 0
BBX 22 35 1 -6
BITMAP
FE03F8
FE03F8
FE03F8
FE03F8
FF03F8
FE03F8
FF03F8
FF03F8
FF03F8
FF03F8
FE03F8
FE03F8
FE03F8
FE03F8
FE03FC
FE03FC
FE03FC
FE03FC
FE03FC
FE03FC
FE03FC
FFFFFC
FFFFFC
FFFFFC
FFFFFC
FFFFFC
FFFFFC
FFFFFC
00FC00
00FC00
00FC00
00FC00
00FC00
00FC00
00F000
ENDCHAR
STARTCHAR 0410
ENCODING 1040
SWIDTH 630 0
DWIDTH 28 0
BBX 26 31 1 -1
BITMAP
000F0000
000F8000
001F8000
001F8000
003FC000
003FC000
003FC000
007FC000
007FC000
007FE000
00FFE000
00FFE000
01FFF000
01FFF000
01FFF000
03FFF800
03EFF800
07C7F800
0787FC00
0F83FC00
0FBFFC00
1FFFFE00
1FFFFE00
1FFFFE00
3FC3FF00
3F83FF00
7F83FF80
7F01FF80
FF01FFC0
FF01FFC0
FC008000
ENDCHAR
STARTCHAR 0411
ENCODING 1041
SWIDTH 495 0
DWIDTH 22 0
BBX 20 30 1 0
BITMAP
FFFF80
7FFFF0
7FFFF0
7FFFF0
7FFFE0
7FFFE0
7FFFE0
7FFFF0
7F8000
7F8000
7F8000
7FFE00
7FFF80
7FFFE0
7FFFF0
7FFFF0
7FFFF0
7F8FF0
7F83F0
7F83F0
7F83F0
7F83F0
7FC7E0
7FCFE0
7FFFE0
7FFFC0
7FFF80
7FFF00
3FFE00
01E000
ENDCHAR
STARTCHAR 0412
ENCODING 1042
SWIDTH 517 0
DWIDTH 23 0
BBX 21 31 1 0
BITMAP
0C0000
7FF800
FFFE00
FFFF00
FFFF00
FFFF80
FFFF80
FF3FC0
FF0FC0
7F0FC0
7F0F80
7F0F80
7F9F80
7FFF00
7FFE00
7FFF80
3FFFE0
3FFFE0
3FFFF0
3FC3F8
3FC3F8
3FC3F8
3FC7F8
3FEFF8
3FFFF8
1FFFF8
1FFFF0
1FFFE0
1FFFC0
1FFE00
030000
ENDCHAR
STARTCHAR 0413
ENCODING 1043
SWIDTH 495 0
DWIDTH 22 0
BBX 21 31 1 0
BITMAP
01FFE0
7FFFF0
FFFFF0
FFFFF0
FFFFF0
FFFFF8
FFFF78
FF8000
FF0000
FF0000
FF0000
FF0000
FF0000
FF0000
FF0000
FF0000
FF0000
FF0000
FF0000
FF0000
FF0000
FF0000
FF0000
FF0000
FF0000
FF0000
FF0000
FF0000
FF8000
7F8000
7C0000
ENDCHAR
STARTCHAR 0414
ENCODING 1044
SWIDTH 585 0
DWIDTH 26 0
BBX 25 36 1 -6
BITMAP
000F0000
001F8000
003F8000
003FC000
007FC000
007FC000
00FFC000
00FFC000
01FFE000
01FFE000
01FFE000
03FFE000
03FFF000
07FFF000
07F3F000
07F3F000
0FF3F800
0FE3F800
0FE3F800
1FE3F800
1FE3FC00
1FC3FC00
1FC3FC00
3FC3FC00
FFFFFF00
FFFFFF80
FFFFFF80
FFFFFF80
FFFFFF80
FFFFFF80
FE003F00
7E003F00
7F007F00
7F007E00
7F00FE00
3F00FC00
ENDCHAR
STARTCHAR 0415
ENCODING 1045
SWIDTH 495 0
DWIDTH 22 0
BBX 20 31 1 0
BITMAP
0FF800
7FFF00
FFFF00
FFFE00
FFFE00
7FFE00
7FFE00
7FFE00
7FFE00
7FE400
3F8000
3F8000
3F8400
3FFE00
3FFC00
3FFE00
1FFE00
1FF000
1FC000
1FE0C0
1FFFE0
0FFFE0
0FFFE0
0FFFF0
0FFFF0
0FFFF0
0FFFF0
0FFFF0
0FFF80
0FF800
078000
ENDCHAR
STARTCHAR 0416
ENCODING 1046
SWIDTH 697 0
DWIDTH 31 0
BBX 30 29 1 2
BITMAP
000700F0
FF1F87F0
FF3F87F0
FFBF8FF0
FFBF8FF0
FF9F8FF0
7F9FDFE0
7FDFDFE0
3FDFDFE0
3FDFFFC0
1FFFFFC0
1FFFFFC0
0FFFFF80
0FFFFF00
07FFFF00
0FFFFF80
0FFFFF80
0FFFFFC0
1FFFFFE0
1FFFFFF0
3FFFFFF8
3FCFEFF8
7FCFEFFC
7FCFE7FC
FFCFE7FC
FFCFE7F8
FFCFE3F0
FF87E1C0
7F07E000
ENDCHAR
STARTCHAR 0417
ENCODING 1047
SWIDTH 472 0
DWIDTH 21 0
BBX 20 31 1 0
BITMAP
0FF000
7FFE00
FFFF00
FFFF80
FFFFC0
FFFFC0
FFFFC0
F03FE0
801FE0
001FE0
001FC0
001FC0
003FC0
03FF80
0FFF80
0FFF80
0FFFC0
07FFE0
001FE0
000FE0
000FF0
000FF0
303FF0
3FFFF0
3FFFF0
3FFFE0
3FFFE0
3FFFC0
3FFF80
1FFF00
07FC00
ENDCHAR
STARTCHAR 0418
ENCODING 1048
SWIDTH 562 0
DWIDTH 25 0
BBX 23 30 1 0
BITMAP
3C03E0
FF0FF0
FF0FF8
FF0FF8
FF0FF8
FF0FF8
FF0FF8
FF0FF8
FF0FF8
7F1FF8
7F1FFC
7F9FFC
7FBFFC
7FBFFC
7FFFFC
7FFFFC
7FFFFC
7FFFFC
7FFBFC
7FFBFC
3FF3FC
3FF1FC
3FE1FE
3FE1FE
3FE1FE
3FE1FE
3FE1FE
3FE1FE
3FC0FE
00000E
ENDCHAR
STARTCHAR 0419
ENCODING 1049
SWIDTH 562 0
DWIDTH 25 0
BBX 23 38 1 0
BITMAP
1E0780
0E0F00
0FFF00
0FFE00
07FE00
03F800
00E000
000000
3C03E0
FF0FF0
FF0FF8
FF0FF8
FF0FF8
FF0FF8
FF0FF8
FF0FF8
FF0FF8
7F1FF8
7F1FFC
7F9FFC
7FBFFC
7FBFFC
7FFFFC
7FFFFC
7FFFFC
7FFFFC
7FFBFC
7FFBFC
3FF3FC
3FF1FC
3FE1FE
3FE1FE
3FE1FE
3FE1FE
3FE1FE
3FE1FE
3FC0FE
00000E
ENDCHAR
STARTCHAR 041A
ENCODING 1050
SWIDTH 540 0
DWIDTH 24 0
BBX 23 31 1 0
BITMAP
000060
FFF0E0
7FF1F0
7FF1FE
FFF3FC
FFF7FC
FFF7F8
FFF7F0
FFFFF0
FFFFE0
FFFFC0
FFFF80
FFFF80
FFFF00
FFFF00
FFFE00
FFFC00
FFFE00
FFFF00
FFFF80
FFFFC0
FFFFE0
FFFFF0
FFE7F0
FFE7F8
FFE3FC
FFE3FC
FFE1FE
FFF0FE
FFE0E0
03C0C0
ENDCHAR
STARTCHAR 041B
ENCODING 1051
SWIDTH 585 0
DWIDTH 26 0
BBX 25 29 1 1
BITMAP
01C00000
07E00000
07E00000
07F00000
07F80000
0FF80000
0FFC0000
0FFE0000
0FFE0000
0FFF0000
1FFF8000
1FFF8000
1FFFC000
1FFFC000
3FDFE000
3FDFF000
3FDFF000
3FDFF800
3FCFF800
7F8FFC00
7F8FFC00
7F8FFE00
7F87FE00
FF87FE00
FF87FF00
FF87FF00
FF87FF00
FF803F80
FF000380
ENDCHAR
STARTCHAR 041C
ENCODING 1052
SWIDTH 652 0
DWIDTH 29 0
BBX 27 30 1 0
BITMAP
0C000600
0E000F00
0F001F00
0F001F00
1F803F00
1FC03F00
1FC07F00
1FE07F00
1FE0FF80
1FF0FF80
3FF9FF80
3FFBFF80
3FFFFF80
3FFFFF80
3FFFFF80
3FFFFF80
3FFFFFC0
7FEF7FC0
7FE77FC0
7FC27FC0
7FC0FFC0
7FC0FFC0
7F80FFC0
7F80FFC0
FF80FFE0
FF00FFE0
FF00FFE0
FF00FFE0
FE00FFE0
FE000000
ENDCHAR
STARTCHAR 041D
ENCODING 1053
SWIDTH 562 0
DWIDTH 25 0
BBX 23 29 1 1
BITMAP
07F000
1FF0FE
3FE0FE
3FE1FE
1FF1FE
1FF1FE
1FE1FE
3FE1FE
3FE1FE
3FE1FE
3FE1FE
3FFFFE
3FFFFE
3FFFFC
3FFFFC
3FFFFC
3FFFFE
7FFFFE
7FFFFE
7FFFFE
7FE3FE
7FE3FE
7FE3FE
7FC3FC
7FC3FC
7FE3FC
7FE3FC
FFE3FC
FFC7C0
ENDCHAR
STARTCHAR 041E
ENCODING 1054
SWIDTH 517 0
DWIDTH 23 0
BBX 22 31 1 0
BITMAP
03C000
07F000
07FC00
0FFE00
0FFF80
1FFF80
1FFFC0
3FFFE0
3FFFE0
7FFFF0
7FFFF8
7FFFF8
FF87F8
FF07FC
FF03FC
FF03FC
FF03FC
FF07FC
FF87FC
FFEFFC
FFFFFC
7FFFFC
7FFFF8
7FFFF8
3FFFF8
3FFFF8
1FFFF0
1FFFF0
0FFFE0
03FFC0
00FF00
ENDCHAR
STARTCHAR 041F
ENCODING 1055
SWIDTH 540 0
DWIDTH 24 0
BBX 23 30 1 0
BITMAP
FFFFFC
FFFFFC
FFFFFC
FFFFFE
FFFFFE
FFFFFE
FFFFFC
FE79FC
FF01FC
FF01FC
FF01FC
FF01FC
FF01FC
FF01FC
FF01FC
FF01FC
FF01FC
FF01FC
FF01FC
7F81FC
7F81FC
7F81FC
7F81FC
7F81FC
7F81FC
7F81FC
7F81FC
7F81FE
7F81FE
200000
ENDCHAR
STARTCHAR 0420
ENCODING 1056
SWIDTH 495 0
DWIDTH 22 0
BBX 20 30 1 1
BITMAP
1FF800
7FFF00
7FFF80
7FFFC0
7FFFC0
7FFFE0
7F9FE0
7F83F0
7F83F0
7F83F0
7F83F0
7FC7F0
7FC7F0
7FFFF0
7FFFF0
FFFFE0
FFFFC0
FFFF80
FFE000
FFE000
FFE000
FFE000
FFE000
FFE000
FFE000
FFE000
FFE000
FFE000
FFE000
FFE000
ENDCHAR
STARTCHAR 0421
ENCODING 1057
SWIDTH 472 0
DWIDTH 21 0
BBX 20 30 1 0
BITMAP
007F00
03FFC0
0FFFE0
1FFFF0
3FFFF0
7FFFF0
7FFFF0
7FFFF0
FFF800
FFE000
FFC000
FF8000
FF8000
FF8000
FF8000
FF8000
FFC060
FFFFF0
FFFFF0
FFFFF0
FFFFF0
7FFFF0
7FFFF0
3FFFF0
3FFFF0
1FFFE0
1FFFC0
0FFF80
03FE00
000800
ENDCHAR
STARTCHAR 0422
ENCODING 1058
SWIDTH 562 0
DWIDTH 25 0
BBX 24 30 1 0
BITMAP
1FFFF8
FFFFFE
FFFFFE
FFFFFE
FFFFFF
FFFFFF
FFFFFF
FFFFFF
FFFFE0
FC7F80
C07F00
007F00
007F00
007F00
007E00
007E00
007E00
007F00
007E00
007E00
007E00
007E00
007E00
007E00
007F00
007E00
007E00
00FE00
007E00
007E00
ENDCHAR
STARTCHAR 0423
ENCODING 1059
SWIDTH 495 0
DWIDTH 22 0
BBX 21 30 1 0
BITMAP
FF0FF8
FF0FF0
FF8FF0
FF8FF0
7F8FF0
7F8FE0
3FCFE0
3FDFE0
1FDFE0
1FFFE0
0FFFC0
0FFFC0
07FFC0
07FFC0
03FFC0
03FFC0
01FF80
01FF80
01FF80
00FF80
00FF80
FFFF80
7FFF80
7FFF80
FFFF00
FFFF00
FFFE00
FFF800
FFE000
700000
ENDCHAR
STARTCHAR 0424
ENCODING 1060
SWIDTH 652 0
DWIDTH 29 0
BBX 28 35 1 -2
BITMAP
003FC000
003FE000
003FE000
003FE000
07FFEF00
1FFFFF80
3FFFFFC0
7FFFFFC0
7FFFFFE0
7FFFFFE0
FFFFFFE0
FFFFFFE0
FFBFFFE0
FF3FDFF0
FF3FDFF0
FE3FDFF0
FE3F8FF0
FE3F8FF0
FF3F8FE0
FF3F9FE0
FF3F9FE0
FFFF9FE0
FFFFBFE0
FFFFFFC0
FFFFFFC0
7FFFFF80
7FFFFF80
7FFFFF00
3FFFFE00
3FFFFC00
0CFFF800
00FE0000
00FE0000
00FE0000
00FE0000
ENDCHAR
STARTCHAR 0425
ENCODING 1061
SWIDTH 562 0
DWIDTH 25 0
BBX 24 29 1 1
BITMAP
00007F
7F00FF
FF00FF
FF81FE
FF81FE
FFC3FC
FFC3FC
7FE7FC
7FE7F8
3FF7F8
1FFFF0
0FFFF0
07FFF0
07FFE0
03FFC0
03FFC0
01FFC0
03FFC0
03FFC0
07FFE0
07FFE0
0FFFE0
0FE7F0
1FE7F0
1FE3F8
3FE1F8
3FE1F8
3FC0E0
7FC000
ENDCHAR
STARTCHAR 0426
ENCODING 1062
SWIDTH 517 0
DWIDTH 23 0
BBX 22 35 1 -6
BITMAP
FF01FC
FF01FC
FF03FC
FF03FC
FF03FC
FF03FC
FF03FC
FF03FC
FF03FC
FF03FC
FF03FC
FF03FC
FF01FC
FF01FC
FF01FC
FF01FC
FF01FC
FF01FC
FF01FC
FF01FC
FF01FC
FFFFFC
FFFFFC
FFFFFC
FFFFFC
FFFFFC
FFFFFC
FFFFFC
0000FC
0000FC
0000FC
0001FC
0001FC
0001FC
000018
ENDCHAR
STARTCHAR 0427
ENCODING 1063
SWIDTH 517 0
DWIDTH 23 0
BBX 21 29 1 1
BITMAP
000020
FE0FE0
FE0FE0
FE0FE0
FE0FE0
FE07F0
FE07F0
FE07F0
FE07F0
FE07F0
FF07F0
FF07F0
FF07F0
FF0FF0
7FFFF0
7FFFF0
7FFFF0
3FFFF0
3FFFF0
0FFFF0
03F7F0
0007F0
0007F0
0007F8
0007F8
0007F8
0007F8
0003F8
0003F8
ENDCHAR
STARTCHAR 0428
ENCODING 1064
SWIDTH 720 0
DWIDTH 32 0
BBX 31 30 1 0
BITMAP
FC0000FC
FE07E1FC
FE0FE1FC
FE0FE1FC
FE0FE1FC
FE0FE1FC
FE0FE1FC
FE0FE1FC
FE0FE1FE
FE0FE1FE
FE0FE1FE
FF0FE1FE
FF0FE1FC
FF0FF1FC
7F0FF1FC
7F0FF1FC
7F0FF1FC
7F0FF1FE
7F0FF1FE
7F0FF1FE
7F0FF1FE
7FFFFFFE
7FFFFFFC
7FFFFFFE
7FFFFFFE
3FFFFFFE
3FFFFFFE
3FFFFFFC
3FFFFFFC
1FC00000
ENDCHAR
STARTCHAR 0429
ENCODING 1065
SWIDTH 720 0
DWIDTH 32 0
BBX 31 37 1 -6
BITMAP
00000080
7C0000F4
FF03C0FE
FF03C1FC
FF03E1FC
FF07E1FC
FF07E1FC
FF07E1FC
FF07E1FC
FF07E1FC
FF87E1FC
FF87E1FC
FF87E1FC
FF87E1FC
FF87E1FC
7F87E1FC
7F87E1FC
7F87E3FC
7F87E3FC
7F87E3FC
7FC7E3FC
7FC7E3FC
7FFFFFFC
7FFFFFFC
7FFFFFFC
7FFFFFFC
7FFFFFFC
3FFFFFFC
3FFFFFFC
3FFFFFFC
3FFFFDFC
000001F8
000003F8
000003F8
000003F8
000003F8
000003F8
ENDCHAR
STARTCHAR 042A
ENCODING 1066
SWIDTH 630 0
DWIDTH 28 0
BBX 26 30 1 1
BITMAP
0FE00000
FFE00000
FFF00000
FFF00000
FFF00000
FFF00000
FFF80000
FFF80000
FFF80000
03F80000
01FFC000
01FFFC00
01FFFE00
01FFFF00
01FFFF80
01FFFF80
01FE7F80
01FC1FC0
01FC1FC0
01FC0FC0
01FC0FC0
01FC0FC0
01FC0FC0
01FC0FC0
01FC3FC0
01FFFFC0
01FFFFC0
01FFFF80
01FFFE00
01FFF000
ENDCHAR
STARTCHAR 042B
ENCODING 1067
SWIDTH 652 0
DWIDTH 29 0
BBX 28 29 1 1
BITMAP
FE0003F0
FF0007F0
FF0007F0
FF0007F0
FF0007F0
FF0007F0
FF0007F0
FF0007F0
FF0007F0
FFC007F0
FFFE07F0
FFFF03F0
FFFF83F0
FFFFC3F0
FFFFE3F0
7F1FE3F0
7F07E7F0
7F03F7F0
7F03F3F0
7F03F3F0
7F03F3F0
7F07F3F0
7F87F3F0
7F8FF3F0
7FFFE3F0
7FFFE3F0
7FFFC3F0
7FFF83F0
7FFF03F0
ENDCHAR
STARTCHAR 042C
ENCODING 1068
SWIDTH 495 0
DWIDTH 22 0
BBX 20 31 1 0
BITMAP
FC0000
FE0000
FF0000
FF0000
FF0000
FF0000
FF0000
FF0000
FF0000
FF0000
FFC000
FFFE00
FFFF00
FFFF80
FFFFC0
FFFFC0
7F7FE0
7F07E0
7F03F0
7F03F0
7F03F0
7F03F0
7F07F0
7F87F0
7F8FF0
7FBFF0
7FFFF0
7FFFE0
7FFFC0
7FFF80
3FFE00
ENDCHAR
STARTCHAR 042D
ENCODING 1069
SWIDTH 495 0
DWIDTH 22 0
BBX 21 30 1 1
BITMAP
07FC00
3FFE00
7FFF00
7FFF80
FFFFC0
FFFFC0
FFFFE0
FFFFE0
FFFFF0
7FFFF0
780FF0
400FF0
01C7F8
0FFFF8
0FFFF8
0FFFF8
0FFFF8
0FFFF8
0707F8
000FF0
603FF0
FFFFF0
FFFFE0
FFFFE0
FFFFC0
FFFFC0
FFFF80
3FFE00
1FF800
018000
ENDCHAR
STARTCHAR 042E
ENCODING 1070
SWIDTH 675 0
DWIDTH 30 0
BBX 28 31 1 0
BITMAP
0000FC00
1F01FE00
1F83FF00
1FC3FF80
1FC3FF80
1FC7FFC0
3FC7FFC0
3FC7FFE0
3FC7FFE0
3FCFFFE0
3FCFFFF0
3FCFEFF0
3FFFC7F0
7FFFC3F0
7FFFC3F0
7FFFC3F0
7FFFC3F0
7FFFC3F0
7FFFC3F0
7FFFC3F0
FFDFE7F0
FFC7FFF0
FFE7FFE0
FFE3FFE0
FFE3FFE0
FFE1FFE0
FFE1FFE0
FFE0FFC0
FFE07FC0
03E03F80
00000E00
ENDCHAR
STARTCHAR 042F
ENCODING 1071
SWIDTH 517 0
DWIDTH 23 0
BBX 22 32 1 -1
BITMAP
007D80
01FFF0
07FFF0
1FFFF0
3FFFF0
7FFFF0
7C1FF0
F83FF8
F81FF8
F81FF8
F81FF8
FC3FF8
7E7FF8
7FBFF8
7FFFF8
3FFFF8
1FFFF8
07FFF8
07FFFC
07FFFC
0FFFFC
0FDFFC
1FDFFC
1F9FFC
3F9FFC
3F9FFC
3F1FFC
7F1FFC
7F1FFC
FF0FF8
FE0FC0
FE0000
ENDCHAR
STARTCHAR 0430
ENCODING 1072
SWIDTH 630 0
DWIDTH 28 0
BBX 26 31 1 -1
BITMAP
000F0000
000F8000
001F8000
001F8000
003FC000
003FC000
003FC000
007FC000
007FC000
007FE000
00FFE000
00FFE000
01FFF000
01FFF000
01FFF000
03FFF800
03EFF800
07C7F800
0787FC00
0F83FC00
0FBFFC00
1FFFFE00
1FFFFE00
1FFFFE00
3FC3FF00
3F83FF00
7F83FF80
7F01FF80
FF01FFC0
FF01FFC0
FC008000
ENDCHAR
STARTCHAR 0431
ENCODING 1073
SWIDTH 495 0
DWIDTH 22 0
BBX 20 30 1 0
BITMAP
FFFF80
7FFFF0
7FFFF0
7FFFF0
7FFFE0
7FFFE0
7FFFE0
7FFFF0
7F8000
7F8000
7F8000
7FFE00
7FFF80
7FFFE0
7FFFF0
7FFFF0
7FFFF0
7F8FF0
7F83F0
7F83F0
7F83F0
7F83F0
7FC7E0
7FCFE0
7FFFE0
7FFFC0
7FFF80
7FFF00
3FFE00
01E000
ENDCHAR
STARTCHAR 0432
ENCODING 1074
SWIDTH 517 0
DWIDTH 23 0
BBX 21 31 1 0
BITMAP
0C0000
7FF800
FFFE00
FFFF00
FFFF00
FFFF80
FFFF80
FF3FC0
FF0FC0
7F0FC0
7F0F80
7F0F80
7F9F80
7FFF00
7FFE00
7FFF80
3FFFE0
3FFFE0
3FFFF0
3FC3F8
3FC3F8
3FC3F8
3FC7F8
3FEFF8
3FFFF8
1FFFF8
1FFFF0
1FFFE0
1FFFC0
1FFE00
030000
ENDCHAR
STARTCHAR 0433
ENCODING 1075
SWIDTH 495 0
DWIDTH 22 0
BBX 21 31 1 0
BITMAP
01FFE0
7FFFF0
FFFFF0
FFFFF0
FFFFF0
FFFFF8
FFFF78
FF8000
FF0000
FF0000
FF0000
FF0000
FF0000
FF0000
FF0000
FF0000
FF0000
FF0000
FF0000
FF0000
FF0000
FF0000
FF0000
FF0000
FF0000
FF0000
FF0000
FF0000
FF8000
7F8000
7C0000
ENDCHAR
STARTCHAR 0434
ENCODING 1076
SWIDTH 585 0
DWIDTH 26 0
BBX 25 36 1 -6
BITMAP
000F0000
001F8000
003F8000
003FC000
007FC000
007FC000
00FFC000
00FFC000
01FFE000
01FFE000
01FFE000
03FFE000
03FFF000
07FFF000
07F3F000
07F3F000
0FF3F800
0FE3F800
0FE3F800
1FE3F800
1FE3FC00
1FC3FC00
1FC3FC00
3FC3FC00
FFFFFF00
FFFFFF80
FFFFFF80
FFFFFF80
FFFFFF80
FFFFFF80
FE003F00
7E003F00
7F007F00
7F007E00
7F00FE00
3F00FC00
ENDCHAR
STARTCHAR 0435
ENCODING 1077
SWIDTH 495 0
DWIDTH 22 0
BBX 20 31 1 0
BITMAP
0FF800
7FFF00
FFFF00
FFFE00
FFFE00
7FFE00
7FFE00
7FFE00
7FFE00
7FE400
3F8000
3F8000
3F8400
3FFE00
3FFC00
3FFE00
1FFE00
1FF000
1FC000
1FE0C0
1FFFE0
0FFFE0
0FFFE0
0FFFF0
0FFFF0
0FFFF0
0FFFF0
0FFFF0
0FFF80
0FF800
078000
ENDCHAR
STARTCHAR 0436
ENCODING 1078
SWIDTH 697 0
DWIDTH 31 0
BBX 30 29 1 2
BITMAP
000700F0
FF1F87F0
FF3F87F0
FFBF8FF0
FFBF8FF0
FF9F8FF0
7F9FDFE0
7FDFDFE0
3FDFDFE0
3FDFFFC0
1FFFFFC0
1FFFFFC0
0FFFFF80
0FFFFF00
07FFFF00
0FFFFF80
0FFFFF80
0FFFFFC0
1FFFFFE0
1FFFFFF0
3FFFFFF8
3FCFEFF8
7FCFEFFC
7FCFE7FC
FFCFE7FC
FFCFE7F8
FFCFE3F0
FF87E1C0
7F07E000
ENDCHAR
STARTCHAR 0437
ENCODING 1079
SWIDTH 472 0
DWIDTH 21 0
BBX 20 31 1 0
BITMAP
0FF000
7FFE00
FFFF00
FFFF80
FFFFC0
FFFFC0
FFFFC0
F03FE0
801FE0
001FE0
001FC0
001FC0
003FC0
03FF80
0FFF80
0FFF80
0FFFC0
07FFE0
001FE0
000FE0
000FF0
000FF0
303FF0
3FFFF0
3FFFF0
3FFFE0
3FFFE0
3FFFC0
3FFF80
1FFF00
07FC00
ENDCHAR
STARTCHAR 0438
ENCODING 1080
SWIDTH 562 0
DWIDTH 25 0
BBX 23 30 1 0
BITMAP
3C03E0
FF0FF0
FF0FF8
FF0FF8
FF0FF8
FF0FF8
FF0FF8
FF0FF8
FF0FF8
7F1FF8
7F1FFC
7F9FFC
7FBFFC
7FBFFC
7FFFFC
7FFFFC
7FFFFC
7FFFFC
7FFBFC
7FFBFC
3FF3FC
3FF1FC
3FE1FE
3FE1FE
3FE1FE
3FE1FE
3FE1FE
3FE1FE
3FC0FE
00000E
ENDCHAR
STARTCHAR 0439
ENCODING 1081
SWIDTH 562 0
DWIDTH 25 0
BBX 23 38 1 0
BITMAP
1E0780
0E0F00
0FFF00
0FFE00
07FE00
03F800
00E000
000000
3C03E0
FF0FF0
FF0FF8
FF0FF8
FF0FF8
FF0FF8
FF0FF8
FF0FF8
FF0FF8
7F1FF8
7F1FFC
7F9FFC
7FBFFC
7FBFFC
7FFFFC
7FFFFC
7FFFFC
7FFFFC
7FFBFC
7FFBFC
3FF3FC
3FF1FC
3FE1FE
3FE1FE
3FE1FE
3FE1FE
3FE1FE
3FE1FE
3FC0FE
00000E
ENDCHAR
STARTCHAR 043A
ENCODING 1082
SWIDTH 540 0
DWIDTH 24 0
BBX 23 31 1 0
BITMAP
000060
FFF0E0
7FF1F0
7FF1FE
FFF3FC
FFF7FC
FFF7F8
FFF7F0
FFFFF0
FFFFE0
FFFFC0
FFFF80
FFFF80
FFFF00
FFFF00
FFFE00
FFFC00
FFFE00
FFFF00
FFFF80
FFFFC0
FFFFE0
FFFFF0
FFE7F0
FFE7F8
FFE3FC
FFE3FC
FFE1FE
FFF0FE
FFE0E0
03C0C0
ENDCHAR
STARTCHAR 043B
ENCODING 1083
SWIDTH 585 0
DWIDTH 26 0
BBX 25 29 1 1
BITMAP
01C00000
07E00000
07E00000
07F00000
07F80000
0FF80000
0FFC0000
0FFE0000
0FFE0000
0FFF0000
1FFF8000
1FFF8000
1FFFC000
1FFFC000
3FDFE000
3FDFF000
3FDFF000
3FDFF800
3FCFF800
7F8FFC00
7F8FFC00
7F8FFE00
7F87FE00
FF87FE00
FF87FF00
FF87FF00
FF87FF00
FF803F80
FF000380
ENDCHAR
STARTCHAR 043C
ENCODING 1084
SWIDTH 652 0
DWIDTH 29 0
BBX 27 30 1 0
BITMAP
0C000600
0E000F00
0F001F00
0F001F00
1F803F00
1FC03F00
1FC07F00
1FE07F00
1FE0FF80
1FF0FF80
3FF9FF80
3FFBFF80
3FFFFF80
3FFFFF80
3FFFFF80
3FFFFF80
3FFFFFC0
7FEF7FC0
7FE77FC0
7FC27FC0
7FC0FFC0
7FC0FFC0
7F80FFC0
7F80FFC0
FF80FFE0
FF00FFE0
FF00FFE0
FF00FFE0
FE00FFE0
FE000000
ENDCHAR
STARTCHAR 043D
ENCODING 1085
SWIDTH 562 0
DWIDTH 25 0
BBX 23 29 1 1
BITMAP
07F000
1FF0FE
3FE0FE
3FE1FE
1FF1FE
1FF1FE
1FE1FE
3FE1FE
3FE1FE
3FE1FE
3FE1FE
3FFFFE
3FFFFE
3FFFFC
3FFFFC
3FFFFC
3FFFFE
7FFFFE
7FFFFE
7FFFFE
7FE3FE
7FE3FE
7FE3FE
7FC3FC
7FC3FC
7FE3FC
7FE3FC
FFE3FC
FFC7C0
ENDCHAR
STARTCHAR 043E
ENCODING 1086
SWIDTH 517 0
DWIDTH 23 0
BBX 22 31 1 0
BITMAP
03C000
07F000
07FC00
0FFE00
0FFF80
1FFF80
1FFFC0
3FFFE0
3FFFE0
7FFFF0
7FFFF8
7FFFF8
FF87F8
FF07FC
FF03FC
FF03FC
FF03FC
FF07FC
FF87FC
FFEFFC
FFFFFC
7FFFFC
7FFFF8
7FFFF8
3FFFF8
3FFFF8
1FFFF0
1FFFF0
0FFFE0
03FFC0
00FF00
ENDCHAR
STARTCHAR 043F
ENCODING 1087
SWIDTH 540 0
DWIDTH 24 0
BBX 23 30 1 0
BITMAP
FFFFFC
FFFFFC
FFFFFC
FFFFFE
FFFFFE
FFFFFE
FFFFFC
FE79FC
FF01FC
FF01FC
FF01FC
FF01FC
FF01FC
FF01FC
FF01FC
FF01FC
FF01FC
FF01FC
FF01FC
7F81FC
7F81FC
7F81FC
7F81FC
7F81FC
7F81FC
7F81FC
7F81FC
7F81FE
7F81FE
200000
ENDCHAR
STARTCHAR 0440
ENCODING 1088
SWIDTH 495 0
DWIDTH 22 0
BBX 20 30 1 1
BITMAP
1FF800
7FFF00
7FFF80
7FFFC0
7FFFC0
7FFFE0
7F9FE0
7F83F0
7F83F0
7F83F0
7F83F0
7FC7F0
7FC7F0
7FFFF0
7FFFF0
FFFFE0
FFFFC0
FFFF80
FFE000
FFE000
FFE000
FFE000
FFE000
FFE000
FFE000
FFE000
FFE000
FFE000
FFE000
FFE000
ENDCHAR
STARTCHAR 0441
ENCODING 1089
SWIDTH 472 0
DWIDTH 21 0
BBX 20 30 1 0
BITMAP
007F00
03FFC0
0FFFE0
1FFFF0
3FFFF0
7FFFF0
7FFFF0
7FFFF0
FFF800
FFE000
FFC000
FF8000
FF8000
FF8000
FF8000
FF8000
FFC060
FFFFF0
FFFFF0
FFFFF0
FFFFF0
7FFFF0
7FFFF0
3FFFF0
3FFFF0
1FFFE0
1FFFC0
0FFF80
03FE00
000800
ENDCHAR
STARTCHAR 0442
ENCODING 1090
SWIDTH 562 0
DWIDTH 25 0
BBX 24 30 1 0
BITMAP
1FFFF8
FFFFFE
FFFFFE
FFFFFE
FFFFFF
FFFFFF
FFFFFF
FFFFFF
FFFFE0
FC7F80
C07F00
007F00
007F00
007F00
007E00
007E00
007E00
007F00
007E00
007E00
007E00
007E00
007E00
007E00
007F00
007E00
007E00
00FE00
007E00
007E00
ENDCHAR
STARTCHAR 0443
ENCODING 1091
SWIDTH 495 0
DWIDTH 22 0
BBX 21 30 1 0
BITMAP
FF0FF8
FF0FF0
FF8FF0
FF8FF0
7F8FF0
7F8FE0
3FCFE0
3FDFE0
1FDFE0
1FFFE0
0FFFC0
0FFFC0
07FFC0
07FFC0
03FFC0
03FFC0
01FF80
01FF80
01FF80
00FF80
00FF80
FFFF80
7FFF80
7FFF80
FFFF00
FFFF00
FFFE00
FFF800
FFE000
700000
ENDCHAR
STARTCHAR 0444
ENCODING 1092
SWIDTH 652 0
DWIDTH 29 0
BBX 28 35 1 -2
BITMAP
003FC000
003FE000
003FE000
003FE000
07FFEF00
1FFFFF80
3FFFFFC0
7FFFFFC0
7FFFFFE0
7FFFFFE0
FFFFFFE0
FFFFFFE0
FFBFFFE0
FF3FDFF0
FF3FDFF0
FE3FDFF0
FE3F8FF0
FE3F8FF0
FF3F8FE0
FF3F9FE0
FF3F9FE0
FFFF9FE0
FFFFBFE0
FFFFFFC0
FFFFFFC0
7FFFFF80
7FFFFF80
7FFFFF00
3FFFFE00
3FFFFC00
0CFFF800
00FE0000
00FE0000
00FE0000
00FE0000
ENDCHAR
STARTCHAR 0445
ENCODING 1093
SWIDTH 562 0
DWIDTH 25 0
BBX 24 29 1 1
BITMAP
00007F
7F00FF
FF00FF
FF81FE
FF81FE
FFC3FC
FFC3FC
7FE7FC
7FE7F8
3FF7F8
1FFFF0
0FFFF0
07FFF0
07FFE0
03FFC0
03FFC0
01FFC0
03FFC0
03FFC0
07FFE0
07FFE0
0FFFE0
0FE7F0
1FE7F0
1FE3F8
3FE1F8
3FE1F8
3FC0E0
7FC000
ENDCHAR
STARTCHAR 0446
ENCODING 1094
SWIDTH 517 0
DWIDTH 23 0
BBX 22 35 1 -6
BITMAP
FF01FC
FF01FC
FF03FC
FF03FC
FF03FC
FF03FC
FF03FC
FF03FC
FF03FC
FF03FC
FF03FC
FF03FC
FF01FC
FF01FC
FF01FC
FF01FC
FF01FC
FF01FC
FF01FC
FF01FC
FF01FC
FFFFFC
FFFFFC
FFFFFC
FFFFFC
FFFFFC
FFFFFC
FFFFFC
0000FC
0000FC
0000FC
0001FC
0001FC
0001FC
000018
ENDCHAR
STARTCHAR 0447
ENCODING 1095
SWIDTH 517 0
DWIDTH 23 0
BBX 21 29 1 1
BITMAP
000020
FE0FE0
FE0FE0
FE0FE0
FE0FE0
FE07F0
FE07F0
FE07F0
FE07F0
FE07F0
FF07F0
FF07F0
FF07F0
FF0FF0
7FFFF0
7FFFF0
7FFFF0
3FFFF0
3FFFF0
0FFFF0
03F7F0
0007F0
0007F0
0007F8
0007F8
0007F8
0007F8
0003F8
0003F8
ENDCHAR
ENDFONT
